P2
108 108
255
96 96 96 96 96 96 96 96 96 96 96 96 96 96 96 96 96 96 96 96 96 96 96 96 96 96 96 96 96 96 96 96 96 96 96 96 96 96 96 96 96 96 96 96 96 96 96 96 96 96 96 96 96 96 96 96 96 96 96 96 96 96 96 96 96 96 96 96 96 96 96 96 96 96 96 96 96 96 96 96 96 96 96 96 96 96 96 96 96 96 96 96 96 96 96 96 96 96 96 96 96 96 96 96 96 96 96 96
96 96 96 96 96 96 96 96 96 96 96 96 96 96 96 96 96 96 96 96 96 96 96 96 96 96 96 96 96 96 96 96 96 96 96 96 96 96 96 96 96 96 96 96 96 96 96 96 96 96 96 96 96 96 96 96 96 96 96 96 96 96 96 96 96 96 96 96 96 96 96 96 96 96 96 96 96 96 96 96 96 96 96 96 96 96 96 96 96 96 96 96 96 96 96 96 96 96 96 96 96 96 96 96 96 96 96 96
96 96 96 96 96 96 96 96 96 96 96 96 96 96 96 96 96 96 96 96 96 96 96 96 96 96 96 96 96 96 96 96 96 96 96 96 96 96 96 96 96 96 96 96 96 96 96 96 96 96 96 96 96 96 96 96 96 96 96 96 96 96 96 96 96 96 96 96 96 96 96 96 96 96 96 96 96 96 96 96 96 96 96 96 96 96 96 96 96 96 96 96 96 96 96 96 96 96 96 96 96 96 96 96 96 96 96 96
96 96 96 96 96 96 96 96 96 96 96 96 96 96 96 96 96 96 96 96 96 96 96 96 96 96 96 96 96 96 96 96 96 96 96 96 96 96 96 96 96 96 96 96 96 96 96 96 96 96 96 96 96 96 96 96 96 96 96 96 96 96 96 96 96 96 96 96 96 96 96 96 96 96 96 96 96 96 96 96 96 96 96 96 96 96 96 96 96 96 96 96 96 96 96 96 96 96 96 96 96 96 96 96 96 96 96 96
96 96 96 96 96 96 96 96 96 96 96 96 96 96 96 96 96 96 96 96 96 96 96 96 96 96 96 96 96 96 96 96 96 96 96 96 96 96 96 96 96 96 96 96 96 96 96 96 96 96 96 96 96 96 96 96 96 96 96 96 96 96 96 96 96 96 96 96 96 96 96 96 96 96 96 96 96 96 96 96 96 96 96 96 96 96 96 96 96 96 96 96 96 96 96 96 96 96 96 96 96 96 96 96 96 96 96 96
96 96 96 96 96 96 96 96 96 96 96 96 96 96 96 96 96 96 96 96 96 96 96 96 96 96 96 96 96 96 96 96 96 96 96 96 96 96 96 96 96 96 96 96 96 96 96 96 96 96 96 96 96 96 96 96 96 96 96 96 96 96 96 96 96 96 96 96 96 96 96 96 96 96 96 96 96 96 96 96 96 96 96 96 96 96 96 96 96 96 96 96 96 96 96 96 96 96 96 96 96 96 96 96 96 96 96 96
96 96 96 96 96 96 96 96 96 96 96 96 96 96 96 96 96 96 96 96 96 96 96 96 96 96 96 96 96 96 96 96 96 96 96 96 96 96 96 96 96 96 96 96 96 96 96 96 96 96 96 96 96 96 96 96 96 96 96 96 96 96 96 96 96 96 96 96 96 96 96 96 96 96 96 96 96 96 96 96 96 96 96 96 96 96 96 96 96 96 96 96 96 96 96 96 96 96 96 96 96 96 96 96 96 96 96 96
96 96 96 96 96 96 96 96 96 96 96 96 96 96 96 96 96 96 96 96 96 96 96 96 96 96 96 96 96 96 96 96 96 96 96 96 96 96 96 96 96 96 96 96 96 96 96 96 96 96 96 96 96 96 96 96 96 96 96 96 96 96 96 96 96 96 96 96 96 96 96 96 96 96 96 96 96 96 96 96 96 96 96 96 96 96 96 96 96 96 96 96 96 96 96 96 96 96 96 96 96 96 96 96 96 96 96 96
96 96 96 96 96 96 96 96 96 96 96 96 96 96 96 96 96 96 96 96 96 96 96 96 96 96 96 96 96 96 96 96 96 96 96 96 96 96 96 96 96 96 96 96 96 96 96 96 96 96 96 96 96 96 96 96 96 96 96 96 96 96 96 96 96 96 96 96 96 96 96 96 96 96 96 96 96 96 96 96 96 96 96 96 96 96 96 96 96 96 96 96 96 96 96 96 96 96 96 96 96 96 96 96 96 96 96 96
96 96 96 96 96 96 96 96 96 96 96 96 96 96 96 96 96 96 96 96 96 96 96 96 96 96 96 96 96 96 96 96 96 96 96 96 96 96 96 96 96 96 96 96 96 96 96 96 96 96 96 96 96 96 96 96 96 96 96 96 96 96 96 96 96 96 96 96 96 96 96 96 96 96 96 96 96 96 96 96 96 96 96 96 96 96 96 96 96 96 96 96 96 96 96 96 96 96 96 96 96 96 96 96 96 96 96 96
96 96 96 96 96 96 96 96 96 96 96 96 96 96 96 96 96 96 96 96 96 96 96 96 96 96 96 96 96 96 96 96 96 96 96 96 96 96 96 96 96 96 96 96 96 96 96 96 96 96 96 96 96 96 96 96 96 96 96 96 96 96 96 96 96 96 96 96 96 96 96 96 96 96 96 96 96 96 96 96 96 96 96 96 96 96 96 96 96 96 96 96 96 96 96 96 96 96 96 96 96 96 96 96 96 96 96 96
96 96 96 96 96 96 96 96 96 96 96 96 96 96 96 96 96 96 96 96 96 96 96 96 96 96 96 96 96 96 96 96 96 96 96 96 96 96 96 96 96 96 96 96 96 96 96 96 96 96 96 96 96 96 96 96 96 96 96 96 96 96 96 96 96 96 96 96 96 96 96 96 96 96 96 96 96 96 96 96 96 96 96 96 96 96 96 96 96 96 96 96 96 96 96 96 96 96 96 96 96 96 96 96 96 96 96 96
96 96 96 96 96 96 96 96 96 96 96 96 96 96 96 96 96 96 96 96 96 88 88 88 80 80 80 80 80 80 80 80 80 96 96 96 96 96 96 96 96 96 96 96 96 96 96 96 96 96 96 96 96 96 96 96 96 96 96 96 96 96 96 96 96 96 96 96 96 96 96 96 88 88 88 80 80 80 80 80 80 80 80 80 88 88 88 96 96 96 96 96 96 96 96 96 96 96 96 96 96 96 96 96 96 96 96 96
96 96 96 96 96 96 96 96 96 96 96 96 96 96 96 96 96 96 96 96 96 88 88 88 80 80 80 80 80 80 80 80 80 96 96 96 96 96 96 96 96 96 96 96 96 96 96 96 96 96 96 96 96 96 96 96 96 96 96 96 96 96 96 96 96 96 96 96 96 96 96 96 88 88 88 80 80 80 80 80 80 80 80 80 88 88 88 96 96 96 96 96 96 96 96 96 96 96 96 96 96 96 96 96 96 96 96 96
96 96 96 96 96 96 96 96 96 96 96 96 96 96 96 96 96 96 96 96 96 88 88 88 80 80 80 80 80 80 80 80 80 96 96 96 96 96 96 96 96 96 96 96 96 96 96 96 96 96 96 96 96 96 96 96 96 96 96 96 96 96 96 96 96 96 96 96 96 96 96 96 88 88 88 80 80 80 80 80 80 80 80 80 88 88 88 96 96 96 96 96 96 96 96 96 96 96 96 96 96 96 96 96 96 96 96 96
96 96 96 96 96 96 96 96 96 96 96 96 96 96 96 88 88 88 80 80 80 120 120 120 152 152 152 160 160 160 144 144 144 88 88 88 80 80 80 96 96 96 96 96 96 96 96 96 96 96 96 96 96 96 96 96 96 96 96 96 96 96 96 96 96 96 96 96 96 72 72 72 112 112 112 152 152 152 152 152 152 136 136 136 96 96 96 80 80 80 96 96 96 96 96 96 96 96 96 96 96 96 96 96 96 96 96 96
96 96 96 96 96 96 96 96 96 96 96 96 96 96 96 88 88 88 80 80 80 120 120 120 152 152 152 160 160 160 144 144 144 88 88 88 80 80 80 96 96 96 96 96 96 96 96 96 96 96 96 96 96 96 96 96 96 96 96 96 96 96 96 96 96 96 96 96 96 72 72 72 112 112 112 152 152 152 152 152 152 136 136 136 96 96 96 80 80 80 96 96 96 96 96 96 96 96 96 96 96 96 96 96 96 96 96 96
96 96 96 96 96 96 96 96 96 96 96 96 96 96 96 88 88 88 80 80 80 120 120 120 152 152 152 160 160 160 144 144 144 88 88 88 80 80 80 96 96 96 96 96 96 96 96 96 96 96 96 96 96 96 96 96 96 96 96 96 96 96 96 96 96 96 96 96 96 72 72 72 112 112 112 152 152 152 152 152 152 136 136 136 96 96 96 80 80 80 96 96 96 96 96 96 96 96 96 96 96 96 96 96 96 96 96 96
96 96 96 96 96 96 96 96 96 96 96 96 96 96 96 80 80 80 136 136 136 152 152 152 136 136 136 152 152 152 168 168 168 184 184 184 104 104 104 80 80 80 96 96 96 96 96 96 96 96 96 96 96 96 96 96 96 96 96 96 96 96 96 96 96 96 80 80 80 152 152 152 176 176 176 152 152 152 136 136 136 136 136 136 144 144 144 112 112 112 80 80 80 96 96 96 96 96 96 96 96 96 96 96 96 96 96 96
96 96 96 96 96 96 96 96 96 96 96 96 96 96 96 80 80 80 136 136 136 152 152 152 136 136 136 152 152 152 168 168 168 184 184 184 104 104 104 80 80 80 96 96 96 96 96 96 96 96 96 96 96 96 96 96 96 96 96 96 96 96 96 96 96 96 80 80 80 152 152 152 176 176 176 152 152 152 136 136 136 136 136 136 144 144 144 112 112 112 80 80 80 96 96 96 96 96 96 96 96 96 96 96 96 96 96 96
96 96 96 96 96 96 96 96 96 96 96 96 96 96 96 80 80 80 136 136 136 152 152 152 136 136 136 152 152 152 168 168 168 184 184 184 104 104 104 80 80 80 96 96 96 96 96 96 96 96 96 96 96 96 96 96 96 96 96 96 96 96 96 96 96 96 80 80 80 152 152 152 176 176 176 152 152 152 136 136 136 136 136 136 144 144 144 112 112 112 80 80 80 96 96 96 96 96 96 96 96 96 96 96 96 96 96 96
96 96 96 96 96 96 96 96 96 96 96 96 80 80 80 128 128 128 120 120 120 96 96 96 104 104 104 104 104 104 112 112 112 168 168 168 128 128 128 72 72 72 88 88 88 96 96 96 96 96 96 96 96 96 96 96 96 96 96 96 96 96 96 80 80 80 136 136 136 176 176 176 152 152 152 104 104 104 104 104 104 112 112 112 104 104 104 128 128 128 96 96 96 88 88 88 96 96 96 96 96 96 96 96 96 96 96 96
96 96 96 96 96 96 96 96 96 96 96 96 80 80 80 128 128 128 120 120 120 96 96 96 104 104 104 104 104 104 112 112 112 168 168 168 128 128 128 72 72 72 88 88 88 96 96 96 96 96 96 96 96 96 96 96 96 96 96 96 96 96 96 80 80 80 136 136 136 176 176 176 152 152 152 104 104 104 104 104 104 112 112 112 104 104 104 128 128 128 96 96 96 88 88 88 96 96 96 96 96 96 96 96 96 96 96 96
96 96 96 96 96 96 96 96 96 96 96 96 80 80 80 128 128 128 120 120 120 96 96 96 104 104 104 104 104 104 112 112 112 168 168 168 128 128 128 72 72 72 88 88 88 96 96 96 96 96 96 96 96 96 96 96 96 96 96 96 96 96 96 80 80 80 136 136 136 176 176 176 152 152 152 104 104 104 104 104 104 112 112 112 104 104 104 128 128 128 96 96 96 88 88 88 96 96 96 96 96 96 96 96 96 96 96 96
96 96 96 96 96 96 96 96 96 88 88 88 88 88 88 128 128 128 112 112 112 88 88 88 40 40 40 64 64 64 120 120 120 120 120 120 128 128 128 72 72 72 64 64 64 88 88 88 64 64 64 64 64 64 64 64 64 64 64 64 64 64 64 104 104 104 176 176 176 168 168 168 112 112 112 120 120 120 64 64 64 40 40 40 88 88 88 112 112 112 120 120 120 80 80 80 96 96 96 96 96 96 96 96 96 96 96 96
96 96 96 96 96 96 96 96 96 88 88 88 88 88 88 128 128 128 112 112 112 88 88 88 40 40 40 64 64 64 120 120 120 120 120 120 128 128 128 72 72 72 64 64 64 88 88 88 64 64 64 64 64 64 64 64 64 64 64 64 64 64 64 104 104 104 176 176 176 168 168 168 112 112 112 120 120 120 64 64 64 40 40 40 88 88 88 112 112 112 120 120 120 80 80 80 96 96 96 96 96 96 96 96 96 96 96 96
96 96 96 96 96 96 96 96 96 88 88 88 88 88 88 128 128 128 112 112 112 88 88 88 40 40 40 64 64 64 120 120 120 120 120 120 128 128 128 72 72 72 64 64 64 88 88 88 64 64 64 64 64 64 64 64 64 64 64 64 64 64 64 104 104 104 176 176 176 168 168 168 112 112 112 120 120 120 64 64 64 40 40 40 88 88 88 112 112 112 120 120 120 80 80 80 96 96 96 96 96 96 96 96 96 96 96 96
96 96 96 96 96 96 96 96 96 80 80 80 112 112 112 120 120 120 104 104 104 16 16 16 152 152 152 48 48 48 48 48 48 128 128 128 152 152 152 120 120 120 136 136 136 144 144 144 72 72 72 64 64 64 64 64 64 64 64 64 72 72 72 168 168 168 176 176 176 144 144 144 128 128 128 48 48 48 56 56 56 152 152 152 8 8 8 104 104 104 120 120 120 88 88 88 96 96 96 96 96 96 96 96 96 96 96 96
96 96 96 96 96 96 96 96 96 80 80 80 112 112 112 120 120 120 104 104 104 16 16 16 152 152 152 48 48 48 48 48 48 128 128 128 152 152 152 120 120 120 136 136 136 144 144 144 72 72 72 64 64 64 64 64 64 64 64 64 72 72 72 168 168 168 176 176 176 144 144 144 128 128 128 48 48 48 56 56 56 152 152 152 8 8 8 104 104 104 120 120 120 88 88 88 96 96 96 96 96 96 96 96 96 96 96 96
96 96 96 96 96 96 96 96 96 80 80 80 112 112 112 120 120 120 104 104 104 16 16 16 152 152 152 48 48 48 48 48 48 128 128 128 152 152 152 120 120 120 136 136 136 144 144 144 72 72 72 64 64 64 64 64 64 64 64 64 72 72 72 168 168 168 176 176 176 144 144 144 128 128 128 48 48 48 56 56 56 152 152 152 8 8 8 104 104 104 120 120 120 88 88 88 96 96 96 96 96 96 96 96 96 96 96 96
96 96 96 96 96 96 96 96 96 80 80 80 128 128 128 144 144 144 48 48 48 24 24 24 152 152 152 64 64 64 16 16 16 128 128 128 152 152 152 176 176 176 160 160 160 144 144 144 104 104 104 64 64 64 64 64 64 64 64 64 112 112 112 176 176 176 168 168 168 136 136 136 136 136 136 16 16 16 72 72 72 152 152 152 24 24 24 48 48 48 136 136 136 96 96 96 88 88 88 96 96 96 96 96 96 96 96 96
96 96 96 96 96 96 96 96 96 80 80 80 128 128 128 144 144 144 48 48 48 24 24 24 152 152 152 64 64 64 16 16 16 128 128 128 152 152 152 176 176 176 160 160 160 144 144 144 104 104 104 64 64 64 64 64 64 64 64 64 112 112 112 176 176 176 168 168 168 136 136 136 136 136 136 16 16 16 72 72 72 152 152 152 24 24 24 48 48 48 136 136 136 96 96 96 88 88 88 96 96 96 96 96 96 96 96 96
96 96 96 96 96 96 96 96 96 80 80 80 128 128 128 144 144 144 48 48 48 24 24 24 152 152 152 64 64 64 16 16 16 128 128 128 152 152 152 176 176 176 160 160 160 144 144 144 104 104 104 64 64 64 64 64 64 64 64 64 112 112 112 176 176 176 168 168 168 136 136 136 136 136 136 16 16 16 72 72 72 152 152 152 24 24 24 48 48 48 136 136 136 96 96 96 88 88 88 96 96 96 96 96 96 96 96 96
96 96 96 96 96 96 96 96 96 80 80 80 128 128 128 152 152 152 40 40 40 32 32 32 40 40 40 32 32 32 24 24 24 128 128 128 152 152 152 168 168 168 168 168 168 144 144 144 144 144 144 104 104 104 80 80 80 104 104 104 152 152 152 168 168 168 160 160 160 144 144 144 128 128 128 24 24 24 32 32 32 40 40 40 32 32 32 40 40 40 152 152 152 96 96 96 88 88 88 96 96 96 96 96 96 96 96 96
96 96 96 96 96 96 96 96 96 80 80 80 128 128 128 152 152 152 40 40 40 32 32 32 40 40 40 32 32 32 24 24 24 128 128 128 152 152 152 168 168 168 168 168 168 144 144 144 144 144 144 104 104 104 80 80 80 104 104 104 152 152 152 168 168 168 160 160 160 144 144 144 128 128 128 24 24 24 32 32 32 40 40 40 32 32 32 40 40 40 152 152 152 96 96 96 88 88 88 96 96 96 96 96 96 96 96 96
96 96 96 96 96 96 96 96 96 80 80 80 128 128 128 152 152 152 40 40 40 32 32 32 40 40 40 32 32 32 24 24 24 128 128 128 152 152 152 168 168 168 168 168 168 144 144 144 144 144 144 104 104 104 80 80 80 104 104 104 152 152 152 168 168 168 160 160 160 144 144 144 128 128 128 24 24 24 32 32 32 40 40 40 32 32 32 40 40 40 152 152 152 96 96 96 88 88 88 96 96 96 96 96 96 96 96 96
96 96 96 96 96 96 96 96 96 80 80 80 120 120 120 168 168 168 72 72 72 24 24 24 24 24 24 24 24 24 24 24 24 160 160 160 160 160 160 168 168 168 168 168 168 160 160 160 160 160 160 168 168 168 168 168 168 160 160 160 168 168 168 176 176 176 160 160 160 152 152 152 160 160 160 24 24 24 24 24 24 24 24 24 24 24 24 72 72 72 160 160 160 88 88 88 88 88 88 96 96 96 96 96 96 96 96 96
96 96 96 96 96 96 96 96 96 80 80 80 120 120 120 168 168 168 72 72 72 24 24 24 24 24 24 24 24 24 24 24 24 160 160 160 160 160 160 168 168 168 168 168 168 160 160 160 160 160 160 168 168 168 168 168 168 160 160 160 168 168 168 176 176 176 160 160 160 152 152 152 160 160 160 24 24 24 24 24 24 24 24 24 24 24 24 72 72 72 160 160 160 88 88 88 88 88 88 96 96 96 96 96 96 96 96 96
96 96 96 96 96 96 96 96 96 80 80 80 120 120 120 168 168 168 72 72 72 24 24 24 24 24 24 24 24 24 24 24 24 160 160 160 160 160 160 168 168 168 168 168 168 160 160 160 160 160 160 168 168 168 168 168 168 160 160 160 168 168 168 176 176 176 160 160 160 152 152 152 160 160 160 24 24 24 24 24 24 24 24 24 24 24 24 72 72 72 160 160 160 88 88 88 88 88 88 96 96 96 96 96 96 96 96 96
96 96 96 96 96 96 96 96 96 80 80 80 120 120 120 168 168 168 160 160 160 24 24 24 16 16 16 16 16 16 104 104 104 184 184 184 160 160 160 168 168 168 176 176 176 176 176 176 176 176 176 176 176 176 176 176 176 176 176 176 176 176 176 176 176 176 160 160 160 152 152 152 184 184 184 104 104 104 16 16 16 16 16 16 24 24 24 160 160 160 160 160 160 96 96 96 88 88 88 96 96 96 96 96 96 96 96 96
96 96 96 96 96 96 96 96 96 80 80 80 120 120 120 168 168 168 160 160 160 24 24 24 16 16 16 16 16 16 104 104 104 184 184 184 160 160 160 168 168 168 176 176 176 176 176 176 176 176 176 176 176 176 176 176 176 176 176 176 176 176 176 176 176 176 160 160 160 152 152 152 184 184 184 104 104 104 16 16 16 16 16 16 24 24 24 160 160 160 160 160 160 96 96 96 88 88 88 96 96 96 96 96 96 96 96 96
96 96 96 96 96 96 96 96 96 80 80 80 120 120 120 168 168 168 160 160 160 24 24 24 16 16 16 16 16 16 104 104 104 184 184 184 160 160 160 168 168 168 176 176 176 176 176 176 176 176 176 176 176 176 176 176 176 176 176 176 176 176 176 176 176 176 160 160 160 152 152 152 184 184 184 104 104 104 16 16 16 16 16 16 24 24 24 160 160 160 160 160 160 96 96 96 88 88 88 96 96 96 96 96 96 96 96 96
96 96 96 96 96 96 88 88 88 96 96 96 144 144 144 160 160 160 192 192 192 176 176 176 112 112 112 144 144 144 200 200 200 168 168 168 168 168 168 168 168 168 176 176 176 184 184 184 184 184 184 184 184 184 192 192 192 184 184 184 184 184 184 176 176 176 168 168 168 160 160 160 168 168 168 200 200 200 144 144 144 112 112 112 176 176 176 192 192 192 152 152 152 136 136 136 88 88 88 96 96 96 96 96 96 96 96 96
96 96 96 96 96 96 88 88 88 96 96 96 144 144 144 160 160 160 192 192 192 176 176 176 112 112 112 144 144 144 200 200 200 168 168 168 168 168 168 168 168 168 176 176 176 184 184 184 184 184 184 184 184 184 192 192 192 184 184 184 184 184 184 176 176 176 168 168 168 160 160 160 168 168 168 200 200 200 144 144 144 112 112 112 176 176 176 192 192 192 152 152 152 136 136 136 88 88 88 96 96 96 96 96 96 96 96 96
96 96 96 96 96 96 88 88 88 96 96 96 144 144 144 160 160 160 192 192 192 176 176 176 112 112 112 144 144 144 200 200 200 168 168 168 168 168 168 168 168 168 176 176 176 184 184 184 184 184 184 184 184 184 192 192 192 184 184 184 184 184 184 176 176 176 168 168 168 160 160 160 168 168 168 200 200 200 144 144 144 112 112 112 176 176 176 192 192 192 152 152 152 136 136 136 88 88 88 96 96 96 96 96 96 96 96 96
96 96 96 96 96 96 88 88 88 144 144 144 152 152 152 152 152 152 160 160 160 184 184 184 192 192 192 184 184 184 168 168 168 168 168 168 168 168 168 176 176 176 184 184 184 184 184 184 192 192 192 192 192 192 192 192 192 192 192 192 192 192 192 184 184 184 176 176 176 168 168 168 168 168 168 168 168 168 184 184 184 184 184 184 176 176 176 160 160 160 160 160 160 152 152 152 136 136 136 80 80 80 96 96 96 96 96 96
96 96 96 96 96 96 88 88 88 144 144 144 152 152 152 152 152 152 160 160 160 184 184 184 192 192 192 184 184 184 168 168 168 168 168 168 168 168 168 176 176 176 184 184 184 184 184 184 192 192 192 192 192 192 192 192 192 192 192 192 192 192 192 184 184 184 176 176 176 168 168 168 168 168 168 168 168 168 184 184 184 184 184 184 176 176 176 160 160 160 160 160 160 152 152 152 136 136 136 80 80 80 96 96 96 96 96 96
96 96 96 96 96 96 88 88 88 144 144 144 152 152 152 152 152 152 160 160 160 184 184 184 192 192 192 184 184 184 168 168 168 168 168 168 168 168 168 176 176 176 184 184 184 184 184 184 192 192 192 192 192 192 192 192 192 192 192 192 192 192 192 184 184 184 176 176 176 168 168 168 168 168 168 168 168 168 184 184 184 184 184 184 176 176 176 160 160 160 160 160 160 152 152 152 136 136 136 80 80 80 96 96 96 96 96 96
96 96 96 80 80 80 128 128 128 136 136 136 112 112 112 120 120 120 152 152 152 168 168 168 168 168 168 168 168 168 168 168 168 168 168 168 176 176 176 184 184 184 192 192 192 192 192 192 200 200 200 200 200 200 200 200 200 200 200 200 200 200 200 192 192 192 184 184 184 176 176 176 168 168 168 168 168 168 168 168 168 160 160 160 160 160 160 160 160 160 152 152 152 128 128 128 104 104 104 88 88 88 88 88 88 96 96 96
96 96 96 80 80 80 128 128 128 136 136 136 112 112 112 120 120 120 152 152 152 168 168 168 168 168 168 168 168 168 168 168 168 168 168 168 176 176 176 184 184 184 192 192 192 192 192 192 200 200 200 200 200 200 200 200 200 200 200 200 200 200 200 192 192 192 184 184 184 176 176 176 168 168 168 168 168 168 168 168 168 160 160 160 160 160 160 160 160 160 152 152 152 128 128 128 104 104 104 88 88 88 88 88 88 96 96 96
96 96 96 80 80 80 128 128 128 136 136 136 112 112 112 120 120 120 152 152 152 168 168 168 168 168 168 168 168 168 168 168 168 168 168 168 176 176 176 184 184 184 192 192 192 192 192 192 200 200 200 200 200 200 200 200 200 200 200 200 200 200 200 192 192 192 184 184 184 176 176 176 168 168 168 168 168 168 168 168 168 160 160 160 160 160 160 160 160 160 152 152 152 128 128 128 104 104 104 88 88 88 88 88 88 96 96 96
88 88 88 104 104 104 152 152 152 80 80 80 72 72 72 72 72 72 72 72 72 120 120 120 168 168 168 168 168 168 168 168 168 176 176 176 184 184 184 192 192 192 192 192 192 200 200 200 200 200 200 200 200 200 200 200 200 200 200 200 200 200 200 192 192 192 184 184 184 184 184 184 176 176 176 168 168 168 160 160 160 160 160 160 160 160 160 160 160 160 112 112 112 72 72 72 72 72 72 72 72 72 80 80 80 96 96 96
88 88 88 104 104 104 152 152 152 80 80 80 72 72 72 72 72 72 72 72 72 120 120 120 168 168 168 168 168 168 168 168 168 176 176 176 184 184 184 192 192 192 192 192 192 200 200 200 200 200 200 200 200 200 200 200 200 200 200 200 200 200 200 192 192 192 184 184 184 184 184 184 176 176 176 168 168 168 160 160 160 160 160 160 160 160 160 160 160 160 112 112 112 72 72 72 72 72 72 72 72 72 80 80 80 96 96 96
88 88 88 104 104 104 152 152 152 80 80 80 72 72 72 72 72 72 72 72 72 120 120 120 168 168 168 168 168 168 168 168 168 176 176 176 184 184 184 192 192 192 192 192 192 200 200 200 200 200 200 200 200 200 200 200 200 200 200 200 200 200 200 192 192 192 184 184 184 184 184 184 176 176 176 168 168 168 160 160 160 160 160 160 160 160 160 160 160 160 112 112 112 72 72 72 72 72 72 72 72 72 80 80 80 96 96 96
96 96 96 136 136 136 152 152 152 144 144 144 104 104 104 96 96 96 104 104 104 144 144 144 168 168 168 168 168 168 168 168 168 168 168 168 80 80 80 176 176 176 200 200 200 200 200 200 200 200 200 200 200 200 200 200 200 200 200 200 200 200 200 200 200 200 160 160 160 88 88 88 176 176 176 168 168 168 168 168 168 168 168 168 152 152 152 160 160 160 120 120 120 64 64 64 72 72 72 72 72 72 80 80 80 88 88 88
96 96 96 136 136 136 152 152 152 144 144 144 104 104 104 96 96 96 104 104 104 144 144 144 168 168 168 168 168 168 168 168 168 168 168 168 80 80 80 176 176 176 200 200 200 200 200 200 200 200 200 200 200 200 200 200 200 200 200 200 200 200 200 200 200 200 160 160 160 88 88 88 176 176 176 168 168 168 168 168 168 168 168 168 152 152 152 160 160 160 120 120 120 64 64 64 72 72 72 72 72 72 80 80 80 88 88 88
96 96 96 136 136 136 152 152 152 144 144 144 104 104 104 96 96 96 104 104 104 144 144 144 168 168 168 168 168 168 168 168 168 168 168 168 80 80 80 176 176 176 200 200 200 200 200 200 200 200 200 200 200 200 200 200 200 200 200 200 200 200 200 200 200 200 160 160 160 88 88 88 176 176 176 168 168 168 168 168 168 168 168 168 152 152 152 160 160 160 120 120 120 64 64 64 72 72 72 72 72 72 80 80 80 88 88 88
88 88 88 80 80 80 88 88 88 160 160 160 160 160 160 160 160 160 168 168 168 168 168 168 168 168 168 168 168 168 168 168 168 184 184 184 128 128 128 192 192 192 200 200 200 200 200 200 200 200 200 200 200 200 200 200 200 200 200 200 200 200 200 200 200 200 184 184 184 128 128 128 184 184 184 176 176 176 168 168 168 160 160 160 80 80 80 88 88 88 144 144 144 136 136 136 112 112 112 96 96 96 104 104 104 96 96 96
88 88 88 80 80 80 88 88 88 160 160 160 160 160 160 160 160 160 168 168 168 168 168 168 168 168 168 168 168 168 168 168 168 184 184 184 128 128 128 192 192 192 200 200 200 200 200 200 200 200 200 200 200 200 200 200 200 200 200 200 200 200 200 200 200 200 184 184 184 128 128 128 184 184 184 176 176 176 168 168 168 160 160 160 80 80 80 88 88 88 144 144 144 136 136 136 112 112 112 96 96 96 104 104 104 96 96 96
88 88 88 80 80 80 88 88 88 160 160 160 160 160 160 160 160 160 168 168 168 168 168 168 168 168 168 168 168 168 168 168 168 184 184 184 128 128 128 192 192 192 200 200 200 200 200 200 200 200 200 200 200 200 200 200 200 200 200 200 200 200 200 200 200 200 184 184 184 128 128 128 184 184 184 176 176 176 168 168 168 160 160 160 80 80 80 88 88 88 144 144 144 136 136 136 112 112 112 96 96 96 104 104 104 96 96 96
88 88 88 64 64 64 96 96 96 160 160 160 160 160 160 168 168 168 168 168 168 168 168 168 168 168 168 168 168 168 176 176 176 184 184 184 192 192 192 200 200 200 200 200 200 200 200 200 200 200 200 200 200 200 200 200 200 200 200 200 200 200 200 200 200 200 200 200 200 192 192 192 184 184 184 176 176 176 168 168 168 168 168 168 152 152 152 128 128 128 128 128 128 160 160 160 160 160 160 160 160 160 152 152 152 96 96 96
88 88 88 64 64 64 96 96 96 160 160 160 160 160 160 168 168 168 168 168 168 168 168 168 168 168 168 168 168 168 176 176 176 184 184 184 192 192 192 200 200 200 200 200 200 200 200 200 200 200 200 200 200 200 200 200 200 200 200 200 200 200 200 200 200 200 200 200 200 192 192 192 184 184 184 176 176 176 168 168 168 168 168 168 152 152 152 128 128 128 128 128 128 160 160 160 160 160 160 160 160 160 152 152 152 96 96 96
88 88 88 64 64 64 96 96 96 160 160 160 160 160 160 168 168 168 168 168 168 168 168 168 168 168 168 168 168 168 176 176 176 184 184 184 192 192 192 200 200 200 200 200 200 200 200 200 200 200 200 200 200 200 200 200 200 200 200 200 200 200 200 200 200 200 200 200 200 192 192 192 184 184 184 176 176 176 168 168 168 168 168 168 152 152 152 128 128 128 128 128 128 160 160 160 160 160 160 160 160 160 152 152 152 96 96 96
96 96 96 80 80 80 152 152 152 176 176 176 168 168 168 168 168 168 168 168 168 168 168 168 168 168 168 176 176 176 184 184 184 184 184 184 192 192 192 200 200 200 200 200 200 200 200 200 200 200 200 200 200 200 200 200 200 200 200 200 200 200 200 200 200 200 200 200 200 192 192 192 184 184 184 176 176 176 168 168 168 168 168 168 168 168 168 168 168 168 168 168 168 168 168 168 168 168 168 176 176 176 152 152 152 88 88 88
96 96 96 80 80 80 152 152 152 176 176 176 168 168 168 168 168 168 168 168 168 168 168 168 168 168 168 176 176 176 184 184 184 184 184 184 192 192 192 200 200 200 200 200 200 200 200 200 200 200 200 200 200 200 200 200 200 200 200 200 200 200 200 200 200 200 200 200 200 192 192 192 184 184 184 176 176 176 168 168 168 168 168 168 168 168 168 168 168 168 168 168 168 168 168 168 168 168 168 176 176 176 152 152 152 88 88 88
96 96 96 80 80 80 152 152 152 176 176 176 168 168 168 168 168 168 168 168 168 168 168 168 168 168 168 176 176 176 184 184 184 184 184 184 192 192 192 200 200 200 200 200 200 200 200 200 200 200 200 200 200 200 200 200 200 200 200 200 200 200 200 200 200 200 200 200 200 192 192 192 184 184 184 176 176 176 168 168 168 168 168 168 168 168 168 168 168 168 168 168 168 168 168 168 168 168 168 176 176 176 152 152 152 88 88 88
96 96 96 128 128 128 192 192 192 136 136 136 120 120 120 144 144 144 168 168 168 184 184 184 184 184 184 192 192 192 192 192 192 192 192 192 200 200 200 200 200 200 176 176 176 144 144 144 96 96 96 48 48 48 56 56 56 104 104 104 160 160 160 200 200 200 208 208 208 200 200 200 192 192 192 192 192 192 176 176 176 176 176 176 176 176 176 176 176 176 176 176 176 152 152 152 152 152 152 192 192 192 144 144 144 96 96 96
96 96 96 128 128 128 192 192 192 136 136 136 120 120 120 144 144 144 168 168 168 184 184 184 184 184 184 192 192 192 192 192 192 192 192 192 200 200 200 200 200 200 176 176 176 144 144 144 96 96 96 48 48 48 56 56 56 104 104 104 160 160 160 200 200 200 208 208 208 200 200 200 192 192 192 192 192 192 176 176 176 176 176 176 176 176 176 176 176 176 176 176 176 152 152 152 152 152 152 192 192 192 144 144 144 96 96 96
96 96 96 128 128 128 192 192 192 136 136 136 120 120 120 144 144 144 168 168 168 184 184 184 184 184 184 192 192 192 192 192 192 192 192 192 200 200 200 200 200 200 176 176 176 144 144 144 96 96 96 48 48 48 56 56 56 104 104 104 160 160 160 200 200 200 208 208 208 200 200 200 192 192 192 192 192 192 176 176 176 176 176 176 176 176 176 176 176 176 176 176 176 152 152 152 152 152 152 192 192 192 144 144 144 96 96 96
96 96 96 128 128 128 208 208 208 216 216 216 184 184 184 104 104 104 40 40 40 32 32 32 48 48 48 56 56 56 56 56 56 56 56 56 48 48 48 32 32 32 32 32 32 24 24 24 24 24 24 24 24 24 24 24 24 24 24 24 24 24 24 32 32 32 64 64 64 88 88 88 104 104 104 120 120 120 120 120 120 112 112 112 88 88 88 80 80 80 96 96 96 168 168 168 208 208 208 200 200 200 112 112 112 96 96 96
96 96 96 128 128 128 208 208 208 216 216 216 184 184 184 104 104 104 40 40 40 32 32 32 48 48 48 56 56 56 56 56 56 56 56 56 48 48 48 32 32 32 32 32 32 24 24 24 24 24 24 24 24 24 24 24 24 24 24 24 24 24 24 32 32 32 64 64 64 88 88 88 104 104 104 120 120 120 120 120 120 112 112 112 88 88 88 80 80 80 96 96 96 168 168 168 208 208 208 200 200 200 112 112 112 96 96 96
96 96 96 128 128 128 208 208 208 216 216 216 184 184 184 104 104 104 40 40 40 32 32 32 48 48 48 56 56 56 56 56 56 56 56 56 48 48 48 32 32 32 32 32 32 24 24 24 24 24 24 24 24 24 24 24 24 24 24 24 24 24 24 32 32 32 64 64 64 88 88 88 104 104 104 120 120 120 120 120 120 112 112 112 88 88 88 80 80 80 96 96 96 168 168 168 208 208 208 200 200 200 112 112 112 96 96 96
96 96 96 96 96 96 160 160 160 216 216 216 216 216 216 224 224 224 208 208 208 152 152 152 80 80 80 32 32 32 24 24 24 24 24 24 24 24 24 24 24 24 24 24 24 24 24 24 24 24 24 24 24 24 24 24 24 24 24 24 24 24 24 24 24 24 24 24 24 24 24 24 24 24 24 24 24 24 24 24 24 48 48 48 120 120 120 192 192 192 224 224 224 224 224 224 216 216 216 152 152 152 96 96 96 96 96 96
96 96 96 96 96 96 160 160 160 216 216 216 216 216 216 224 224 224 208 208 208 152 152 152 80 80 80 32 32 32 24 24 24 24 24 24 24 24 24 24 24 24 24 24 24 24 24 24 24 24 24 24 24 24 24 24 24 24 24 24 24 24 24 24 24 24 24 24 24 24 24 24 24 24 24 24 24 24 24 24 24 48 48 48 120 120 120 192 192 192 224 224 224 224 224 224 216 216 216 152 152 152 96 96 96 96 96 96
96 96 96 96 96 96 160 160 160 216 216 216 216 216 216 224 224 224 208 208 208 152 152 152 80 80 80 32 32 32 24 24 24 24 24 24 24 24 24 24 24 24 24 24 24 24 24 24 24 24 24 24 24 24 24 24 24 24 24 24 24 24 24 24 24 24 24 24 24 24 24 24 24 24 24 24 24 24 24 24 24 48 48 48 120 120 120 192 192 192 224 224 224 224 224 224 216 216 216 152 152 152 96 96 96 96 96 96
96 96 96 96 96 96 104 104 104 168 168 168 208 208 208 216 216 216 224 224 224 224 224 224 232 232 232 216 216 216 168 168 168 120 120 120 64 64 64 40 40 40 32 32 32 32 32 32 32 32 32 40 40 40 40 40 40 32 32 32 32 32 32 32 32 32 40 40 40 48 48 48 104 104 104 144 144 144 192 192 192 224 224 224 224 224 224 224 224 224 224 224 224 216 216 216 168 168 168 96 96 96 96 96 96 96 96 96
96 96 96 96 96 96 104 104 104 168 168 168 208 208 208 216 216 216 224 224 224 224 224 224 232 232 232 216 216 216 168 168 168 120 120 120 64 64 64 40 40 40 32 32 32 32 32 32 32 32 32 40 40 40 40 40 40 32 32 32 32 32 32 32 32 32 40 40 40 48 48 48 104 104 104 144 144 144 192 192 192 224 224 224 224 224 224 224 224 224 224 224 224 216 216 216 168 168 168 96 96 96 96 96 96 96 96 96
96 96 96 96 96 96 104 104 104 168 168 168 208 208 208 216 216 216 224 224 224 224 224 224 232 232 232 216 216 216 168 168 168 120 120 120 64 64 64 40 40 40 32 32 32 32 32 32 32 32 32 40 40 40 40 40 40 32 32 32 32 32 32 32 32 32 40 40 40 48 48 48 104 104 104 144 144 144 192 192 192 224 224 224 224 224 224 224 224 224 224 224 224 216 216 216 168 168 168 96 96 96 96 96 96 96 96 96
96 96 96 96 96 96 96 96 96 104 104 104 160 160 160 208 208 208 216 216 216 216 216 216 224 224 224 232 232 232 232 232 232 232 232 232 240 240 240 232 232 232 208 208 208 192 192 192 184 184 184 176 176 176 176 176 176 176 176 176 192 192 192 200 200 200 224 224 224 232 232 232 232 232 232 232 232 232 224 224 224 224 224 224 224 224 224 216 216 216 208 208 208 168 168 168 104 104 104 96 96 96 96 96 96 96 96 96
96 96 96 96 96 96 96 96 96 104 104 104 160 160 160 208 208 208 216 216 216 216 216 216 224 224 224 232 232 232 232 232 232 232 232 232 240 240 240 232 232 232 208 208 208 192 192 192 184 184 184 176 176 176 176 176 176 176 176 176 192 192 192 200 200 200 224 224 224 232 232 232 232 232 232 232 232 232 224 224 224 224 224 224 224 224 224 216 216 216 208 208 208 168 168 168 104 104 104 96 96 96 96 96 96 96 96 96
96 96 96 96 96 96 96 96 96 104 104 104 160 160 160 208 208 208 216 216 216 216 216 216 224 224 224 232 232 232 232 232 232 232 232 232 240 240 240 232 232 232 208 208 208 192 192 192 184 184 184 176 176 176 176 176 176 176 176 176 192 192 192 200 200 200 224 224 224 232 232 232 232 232 232 232 232 232 224 224 224 224 224 224 224 224 224 216 216 216 208 208 208 168 168 168 104 104 104 96 96 96 96 96 96 96 96 96
96 96 96 96 96 96 96 96 96 96 96 96 96 96 96 136 136 136 192 192 192 208 208 208 216 216 216 216 216 216 224 224 224 224 224 224 232 232 232 232 232 232 232 232 232 232 232 232 232 232 232 232 232 232 232 232 232 232 232 232 232 232 232 232 232 232 232 232 232 232 232 232 232 232 232 224 224 224 224 224 224 216 216 216 208 208 208 192 192 192 136 136 136 96 96 96 96 96 96 96 96 96 96 96 96 96 96 96
96 96 96 96 96 96 96 96 96 96 96 96 96 96 96 136 136 136 192 192 192 208 208 208 216 216 216 216 216 216 224 224 224 224 224 224 232 232 232 232 232 232 232 232 232 232 232 232 232 232 232 232 232 232 232 232 232 232 232 232 232 232 232 232 232 232 232 232 232 232 232 232 232 232 232 224 224 224 224 224 224 216 216 216 208 208 208 192 192 192 136 136 136 96 96 96 96 96 96 96 96 96 96 96 96 96 96 96
96 96 96 96 96 96 96 96 96 96 96 96 96 96 96 136 136 136 192 192 192 208 208 208 216 216 216 216 216 216 224 224 224 224 224 224 232 232 232 232 232 232 232 232 232 232 232 232 232 232 232 232 232 232 232 232 232 232 232 232 232 232 232 232 232 232 232 232 232 232 232 232 232 232 232 224 224 224 224 224 224 216 216 216 208 208 208 192 192 192 136 136 136 96 96 96 96 96 96 96 96 96 96 96 96 96 96 96
96 96 96 96 96 96 96 96 96 96 96 96 96 96 96 96 96 96 112 112 112 152 152 152 192 192 192 208 208 208 208 208 208 216 216 216 216 216 216 224 224 224 224 224 224 224 224 224 224 224 224 224 224 224 224 224 224 224 224 224 224 224 224 224 224 224 224 224 224 224 224 224 224 224 224 216 216 216 208 208 208 192 192 192 152 152 152 112 112 112 96 96 96 96 96 96 96 96 96 96 96 96 96 96 96 96 96 96
96 96 96 96 96 96 96 96 96 96 96 96 96 96 96 96 96 96 112 112 112 152 152 152 192 192 192 208 208 208 208 208 208 216 216 216 216 216 216 224 224 224 224 224 224 224 224 224 224 224 224 224 224 224 224 224 224 224 224 224 224 224 224 224 224 224 224 224 224 224 224 224 224 224 224 216 216 216 208 208 208 192 192 192 152 152 152 112 112 112 96 96 96 96 96 96 96 96 96 96 96 96 96 96 96 96 96 96
96 96 96 96 96 96 96 96 96 96 96 96 96 96 96 96 96 96 112 112 112 152 152 152 192 192 192 208 208 208 208 208 208 216 216 216 216 216 216 224 224 224 224 224 224 224 224 224 224 224 224 224 224 224 224 224 224 224 224 224 224 224 224 224 224 224 224 224 224 224 224 224 224 224 224 216 216 216 208 208 208 192 192 192 152 152 152 112 112 112 96 96 96 96 96 96 96 96 96 96 96 96 96 96 96 96 96 96
96 96 96 96 96 96 96 96 96 96 96 96 96 96 96 96 96 96 96 96 96 96 96 96 112 112 112 136 136 136 176 176 176 200 200 200 208 208 208 208 208 208 216 216 216 216 216 216 216 216 216 224 224 224 224 224 224 224 224 224 216 216 216 216 216 216 216 216 216 216 216 216 208 208 208 192 192 192 152 152 152 112 112 112 88 88 88 96 96 96 96 96 96 96 96 96 96 96 96 96 96 96 96 96 96 96 96 96
96 96 96 96 96 96 96 96 96 96 96 96 96 96 96 96 96 96 96 96 96 96 96 96 112 112 112 136 136 136 176 176 176 200 200 200 208 208 208 208 208 208 216 216 216 216 216 216 216 216 216 224 224 224 224 224 224 224 224 224 216 216 216 216 216 216 216 216 216 216 216 216 208 208 208 192 192 192 152 152 152 112 112 112 88 88 88 96 96 96 96 96 96 96 96 96 96 96 96 96 96 96 96 96 96 96 96 96
96 96 96 96 96 96 96 96 96 96 96 96 96 96 96 96 96 96 96 96 96 96 96 96 112 112 112 136 136 136 176 176 176 200 200 200 208 208 208 208 208 208 216 216 216 216 216 216 216 216 216 224 224 224 224 224 224 224 224 224 216 216 216 216 216 216 216 216 216 216 216 216 208 208 208 192 192 192 152 152 152 112 112 112 88 88 88 96 96 96 96 96 96 96 96 96 96 96 96 96 96 96 96 96 96 96 96 96
96 96 96 96 96 96 96 96 96 96 96 96 96 96 96 96 96 96 96 96 96 96 96 96 96 96 96 96 96 96 96 96 96 120 120 120 136 136 136 168 168 168 192 192 192 200 200 200 208 208 208 208 208 208 208 208 208 208 208 208 200 200 200 192 192 192 176 176 176 152 152 152 120 120 120 96 96 96 96 96 96 96 96 96 96 96 96 96 96 96 96 96 96 96 96 96 96 96 96 96 96 96 96 96 96 96 96 96
96 96 96 96 96 96 96 96 96 96 96 96 96 96 96 96 96 96 96 96 96 96 96 96 96 96 96 96 96 96 96 96 96 120 120 120 136 136 136 168 168 168 192 192 192 200 200 200 208 208 208 208 208 208 208 208 208 208 208 208 200 200 200 192 192 192 176 176 176 152 152 152 120 120 120 96 96 96 96 96 96 96 96 96 96 96 96 96 96 96 96 96 96 96 96 96 96 96 96 96 96 96 96 96 96 96 96 96
96 96 96 96 96 96 96 96 96 96 96 96 96 96 96 96 96 96 96 96 96 96 96 96 96 96 96 96 96 96 96 96 96 120 120 120 136 136 136 168 168 168 192 192 192 200 200 200 208 208 208 208 208 208 208 208 208 208 208 208 200 200 200 192 192 192 176 176 176 152 152 152 120 120 120 96 96 96 96 96 96 96 96 96 96 96 96 96 96 96 96 96 96 96 96 96 96 96 96 96 96 96 96 96 96 96 96 96
96 96 96 96 96 96 96 96 96 96 96 96 96 96 96 96 96 96 96 96 96 96 96 96 96 96 96 96 96 96 96 96 96 96 96 96 96 96 96 88 88 88 104 104 104 104 104 104 120 120 120 128 128 128 128 128 128 120 120 120 112 112 112 104 104 104 96 96 96 96 96 96 96 96 96 96 96 96 96 96 96 96 96 96 96 96 96 96 96 96 96 96 96 96 96 96 96 96 96 96 96 96 96 96 96 96 96 96
96 96 96 96 96 96 96 96 96 96 96 96 96 96 96 96 96 96 96 96 96 96 96 96 96 96 96 96 96 96 96 96 96 96 96 96 96 96 96 88 88 88 104 104 104 104 104 104 120 120 120 128 128 128 128 128 128 120 120 120 112 112 112 104 104 104 96 96 96 96 96 96 96 96 96 96 96 96 96 96 96 96 96 96 96 96 96 96 96 96 96 96 96 96 96 96 96 96 96 96 96 96 96 96 96 96 96 96
96 96 96 96 96 96 96 96 96 96 96 96 96 96 96 96 96 96 96 96 96 96 96 96 96 96 96 96 96 96 96 96 96 96 96 96 96 96 96 88 88 88 104 104 104 104 104 104 120 120 120 128 128 128 128 128 128 120 120 120 112 112 112 104 104 104 96 96 96 96 96 96 96 96 96 96 96 96 96 96 96 96 96 96 96 96 96 96 96 96 96 96 96 96 96 96 96 96 96 96 96 96 96 96 96 96 96 96
96 96 96 96 96 96 96 96 96 96 96 96 96 96 96 96 96 96 96 96 96 96 96 96 96 96 96 96 96 96 96 96 96 96 96 96 96 96 96 96 96 96 96 96 96 96 96 96 96 96 96 96 96 96 96 96 96 96 96 96 96 96 96 96 96 96 96 96 96 96 96 96 96 96 96 96 96 96 96 96 96 96 96 96 96 96 96 96 96 96 96 96 96 96 96 96 96 96 96 96 96 96 96 96 96 96 96 96
96 96 96 96 96 96 96 96 96 96 96 96 96 96 96 96 96 96 96 96 96 96 96 96 96 96 96 96 96 96 96 96 96 96 96 96 96 96 96 96 96 96 96 96 96 96 96 96 96 96 96 96 96 96 96 96 96 96 96 96 96 96 96 96 96 96 96 96 96 96 96 96 96 96 96 96 96 96 96 96 96 96 96 96 96 96 96 96 96 96 96 96 96 96 96 96 96 96 96 96 96 96 96 96 96 96 96 96
96 96 96 96 96 96 96 96 96 96 96 96 96 96 96 96 96 96 96 96 96 96 96 96 96 96 96 96 96 96 96 96 96 96 96 96 96 96 96 96 96 96 96 96 96 96 96 96 96 96 96 96 96 96 96 96 96 96 96 96 96 96 96 96 96 96 96 96 96 96 96 96 96 96 96 96 96 96 96 96 96 96 96 96 96 96 96 96 96 96 96 96 96 96 96 96 96 96 96 96 96 96 96 96 96 96 96 96
96 96 96 96 96 96 96 96 96 96 96 96 96 96 96 96 96 96 96 96 96 96 96 96 96 96 96 96 96 96 96 96 96 96 96 96 96 96 96 96 96 96 96 96 96 96 96 96 96 96 96 96 96 96 96 96 96 96 96 96 96 96 96 96 96 96 96 96 96 96 96 96 96 96 96 96 96 96 96 96 96 96 96 96 96 96 96 96 96 96 96 96 96 96 96 96 96 96 96 96 96 96 96 96 96 96 96 96
96 96 96 96 96 96 96 96 96 96 96 96 96 96 96 96 96 96 96 96 96 96 96 96 96 96 96 96 96 96 96 96 96 96 96 96 96 96 96 96 96 96 96 96 96 96 96 96 96 96 96 96 96 96 96 96 96 96 96 96 96 96 96 96 96 96 96 96 96 96 96 96 96 96 96 96 96 96 96 96 96 96 96 96 96 96 96 96 96 96 96 96 96 96 96 96 96 96 96 96 96 96 96 96 96 96 96 96
96 96 96 96 96 96 96 96 96 96 96 96 96 96 96 96 96 96 96 96 96 96 96 96 96 96 96 96 96 96 96 96 96 96 96 96 96 96 96 96 96 96 96 96 96 96 96 96 96 96 96 96 96 96 96 96 96 96 96 96 96 96 96 96 96 96 96 96 96 96 96 96 96 96 96 96 96 96 96 96 96 96 96 96 96 96 96 96 96 96 96 96 96 96 96 96 96 96 96 96 96 96 96 96 96 96 96 96
96 96 96 96 96 96 96 96 96 96 96 96 96 96 96 96 96 96 96 96 96 96 96 96 96 96 96 96 96 96 96 96 96 96 96 96 96 96 96 96 96 96 96 96 96 96 96 96 96 96 96 96 96 96 96 96 96 96 96 96 96 96 96 96 96 96 96 96 96 96 96 96 96 96 96 96 96 96 96 96 96 96 96 96 96 96 96 96 96 96 96 96 96 96 96 96 96 96 96 96 96 96 96 96 96 96 96 96
96 96 96 96 96 96 96 96 96 96 96 96 96 96 96 96 96 96 96 96 96 96 96 96 96 96 96 96 96 96 96 96 96 96 96 96 96 96 96 96 96 96 96 96 96 96 96 96 96 96 96 96 96 96 96 96 96 96 96 96 96 96 96 96 96 96 96 96 96 96 96 96 96 96 96 96 96 96 96 96 96 96 96 96 96 96 96 96 96 96 96 96 96 96 96 96 96 96 96 96 96 96 96 96 96 96 96 96
96 96 96 96 96 96 96 96 96 96 96 96 96 96 96 96 96 96 96 96 96 96 96 96 96 96 96 96 96 96 96 96 96 96 96 96 96 96 96 96 96 96 96 96 96 96 96 96 96 96 96 96 96 96 96 96 96 96 96 96 96 96 96 96 96 96 96 96 96 96 96 96 96 96 96 96 96 96 96 96 96 96 96 96 96 96 96 96 96 96 96 96 96 96 96 96 96 96 96 96 96 96 96 96 96 96 96 96
96 96 96 96 96 96 96 96 96 96 96 96 96 96 96 96 96 96 96 96 96 96 96 96 96 96 96 96 96 96 96 96 96 96 96 96 96 96 96 96 96 96 96 96 96 96 96 96 96 96 96 96 96 96 96 96 96 96 96 96 96 96 96 96 96 96 96 96 96 96 96 96 96 96 96 96 96 96 96 96 96 96 96 96 96 96 96 96 96 96 96 96 96 96 96 96 96 96 96 96 96 96 96 96 96 96 96 96
96 96 96 96 96 96 96 96 96 96 96 96 96 96 96 96 96 96 96 96 96 96 96 96 96 96 96 96 96 96 96 96 96 96 96 96 96 96 96 96 96 96 96 96 96 96 96 96 96 96 96 96 96 96 96 96 96 96 96 96 96 96 96 96 96 96 96 96 96 96 96 96 96 96 96 96 96 96 96 96 96 96 96 96 96 96 96 96 96 96 96 96 96 96 96 96 96 96 96 96 96 96 96 96 96 96 96 96
96 96 96 96 96 96 96 96 96 96 96 96 96 96 96 96 96 96 96 96 96 96 96 96 96 96 96 96 96 96 96 96 96 96 96 96 96 96 96 96 96 96 96 96 96 96 96 96 96 96 96 96 96 96 96 96 96 96 96 96 96 96 96 96 96 96 96 96 96 96 96 96 96 96 96 96 96 96 96 96 96 96 96 96 96 96 96 96 96 96 96 96 96 96 96 96 96 96 96 96 96 96 96 96 96 96 96 96