P2
108 108
255
96 96 96 96 96 96 96 96 96 96 96 96 96 96 96 96 96 96 96 96 96 96 96 96 96 96 96 96 96 96 96 96 96 96 96 96 96 96 96 96 96 96 96 96 96 96 96 96 96 96 96 96 96 96 96 96 96 96 96 96 96 96 96 96 96 96 96 96 96 96 96 96 96 96 96 96 96 96 96 96 96 96 96 96 96 96 96 96 96 96 96 96 96 96 96 96 96 96 96 96 96 96 96 96 96 96 96 96
96 96 96 96 96 96 96 96 96 96 96 96 96 96 96 96 96 96 96 96 96 96 96 96 96 96 96 96 96 96 96 96 96 96 96 96 96 96 96 96 96 96 96 96 96 96 96 96 96 96 96 96 96 96 96 96 96 96 96 96 96 96 96 96 96 96 96 96 96 96 96 96 96 96 96 96 96 96 96 96 96 96 96 96 96 96 96 96 96 96 96 96 96 96 96 96 96 96 96 96 96 96 96 96 96 96 96 96
96 96 96 96 96 96 96 96 96 96 96 96 96 96 96 96 96 96 96 96 96 96 96 96 96 96 96 96 96 96 96 96 96 96 96 96 96 96 96 96 96 96 96 96 96 96 96 96 96 96 96 96 96 96 96 96 96 96 96 96 96 96 96 96 96 96 96 96 96 96 96 96 96 96 96 96 96 96 96 96 96 96 96 96 96 96 96 96 96 96 96 96 96 96 96 96 96 96 96 96 96 96 96 96 96 96 96 96
96 96 96 96 96 96 96 96 96 96 96 96 96 96 96 96 96 96 96 96 96 96 96 96 96 96 96 96 96 96 96 96 96 96 96 96 96 96 96 96 96 96 96 96 96 96 96 96 96 96 96 96 96 96 96 96 96 96 96 96 96 96 96 96 96 96 96 96 96 96 96 96 96 96 96 96 96 96 96 96 96 96 96 96 96 96 96 96 96 96 96 96 96 96 96 96 96 96 96 96 96 96 96 96 96 96 96 96
96 96 96 96 96 96 96 96 96 96 96 96 96 96 96 96 96 96 96 96 96 96 96 96 96 96 96 96 96 96 96 96 96 96 96 96 96 96 96 96 96 96 96 96 96 96 96 96 96 96 96 96 96 96 96 96 96 96 96 96 96 96 96 96 96 96 96 96 96 96 96 96 96 96 96 96 96 96 96 96 96 96 96 96 96 96 96 96 96 96 96 96 96 96 96 96 96 96 96 96 96 96 96 96 96 96 96 96
96 96 96 96 96 96 96 96 96 96 96 96 96 96 96 96 96 96 96 96 96 96 96 96 96 96 96 96 96 96 96 96 96 96 96 96 96 96 96 96 96 96 96 96 96 96 96 96 96 96 96 96 96 96 96 96 96 96 96 96 96 96 96 96 96 96 96 96 96 96 96 96 96 96 96 96 96 96 96 96 96 96 96 96 96 96 96 96 96 96 96 96 96 96 96 96 96 96 96 96 96 96 96 96 96 96 96 96
96 96 96 96 96 96 96 96 96 96 96 96 96 96 96 96 96 96 96 96 96 96 96 96 96 96 96 96 96 96 96 96 96 96 96 96 96 96 96 96 96 96 96 96 96 96 96 96 96 96 96 96 96 96 96 96 96 96 96 96 96 96 96 96 96 96 96 96 96 96 96 96 96 96 96 96 96 96 96 96 96 96 96 96 96 96 96 96 96 96 96 96 96 96 96 96 96 96 96 96 96 96 96 96 96 96 96 96
96 96 96 96 96 96 96 96 96 96 96 96 96 96 96 96 96 96 96 96 96 96 96 96 96 96 96 96 96 96 96 96 96 96 96 96 96 96 96 96 96 96 96 96 96 96 96 96 96 96 96 96 96 96 96 96 96 96 96 96 96 96 96 96 96 96 96 96 96 96 96 96 96 96 96 96 96 96 96 96 96 96 96 96 96 96 96 96 96 96 96 96 96 96 96 96 96 96 96 96 96 96 96 96 96 96 96 96
96 96 96 96 96 96 96 96 96 96 96 96 96 96 96 96 96 96 96 96 96 96 96 96 96 96 96 96 96 96 96 96 96 96 96 96 96 96 96 96 96 96 96 96 96 96 96 96 96 96 96 96 96 96 96 96 96 96 96 96 96 96 96 96 96 96 96 96 96 96 96 96 96 96 96 96 96 96 96 96 96 96 96 96 96 96 96 96 96 96 96 96 96 96 96 96 96 96 96 96 96 96 96 96 96 96 96 96
96 96 96 96 96 96 96 96 96 96 96 96 96 96 96 96 96 96 96 96 96 96 96 96 96 96 96 96 96 96 96 96 96 96 96 96 96 96 96 96 96 96 96 96 96 96 96 96 96 96 96 96 96 96 96 96 96 96 96 96 96 96 96 96 96 96 96 96 96 96 96 96 96 96 96 96 96 96 96 96 96 96 96 96 96 96 96 96 96 96 96 96 96 96 96 96 96 96 96 96 96 96 96 96 96 96 96 96
96 96 96 96 96 96 96 96 96 96 96 96 96 96 96 96 96 96 96 96 96 96 96 96 96 96 96 96 96 96 96 96 96 96 96 96 96 96 96 96 96 96 96 96 96 96 96 96 96 96 96 96 96 96 96 96 96 96 96 96 96 96 96 96 96 96 96 96 96 96 96 96 96 96 96 96 96 96 96 96 96 96 96 96 96 96 96 96 96 96 96 96 96 96 96 96 96 96 96 96 96 96 96 96 96 96 96 96
96 96 96 96 96 96 96 96 96 96 96 96 96 96 96 96 96 96 96 96 96 96 96 96 96 96 96 96 96 96 96 96 96 96 96 96 96 96 96 96 96 96 96 96 96 96 96 96 96 96 96 96 96 96 96 96 96 96 96 96 96 96 96 96 96 96 96 96 96 96 96 96 96 96 96 96 96 96 96 96 96 96 96 96 96 96 96 96 96 96 96 96 96 96 96 96 96 96 96 96 96 96 96 96 96 96 96 96
96 96 96 96 96 96 96 96 96 96 96 96 96 96 96 96 96 96 96 96 96 96 96 96 96 96 96 96 96 96 96 96 96 96 96 96 96 96 96 96 96 96 96 96 96 96 96 96 96 96 96 96 96 96 96 96 96 96 96 96 96 96 96 96 96 96 96 96 96 96 96 96 96 96 96 96 96 96 96 96 96 96 96 96 96 96 96 96 96 96 96 96 96 96 96 96 96 96 96 96 96 96 96 96 96 96 96 96
96 96 96 96 96 96 96 96 96 96 96 96 96 96 96 96 96 96 96 96 96 96 96 96 96 96 96 96 96 96 96 96 96 96 96 96 96 96 96 96 96 96 96 96 96 96 96 96 96 96 96 96 96 96 96 96 96 96 96 96 96 96 96 96 96 96 96 96 96 96 96 96 96 96 96 96 96 96 96 96 96 96 96 96 96 96 96 96 96 96 96 96 96 96 96 96 96 96 96 96 96 96 96 96 96 96 96 96
96 96 96 96 96 96 96 96 96 96 96 96 96 96 96 96 96 96 96 96 96 96 88 56 56 56 64 64 64 56 56 56 88 96 96 96 96 96 96 96 96 96 96 96 96 96 96 96 96 96 96 96 96 96 96 96 96 96 96 96 96 96 96 96 96 96 96 96 96 96 96 96 96 96 88 56 56 56 64 64 64 56 56 56 88 96 96 96 96 96 96 96 96 96 96 96 96 96 96 96 96 96 96 96 96 96 96 96
96 96 96 96 96 96 96 96 96 96 96 96 96 96 96 96 96 96 96 96 88 56 64 88 96 112 128 128 128 128 112 88 56 56 64 96 96 96 96 96 96 96 96 96 96 96 96 96 96 96 96 96 96 96 96 96 96 96 96 96 96 96 96 96 96 96 96 96 96 96 96 96 64 56 56 88 112 128 128 128 128 112 88 88 64 56 88 96 96 96 96 96 96 96 96 96 96 96 96 96 96 96 96 96 96 96 96 96
96 96 96 96 96 96 96 96 96 96 96 96 96 96 96 96 96 96 96 56 56 88 128 144 176 184 184 184 184 184 184 176 144 96 64 56 88 96 96 96 96 96 96 96 96 96 96 96 96 96 96 96 96 96 96 96 96 96 96 96 96 96 96 96 96 96 96 96 96 96 64 56 64 112 144 176 192 184 184 184 176 168 160 136 112 88 56 56 96 96 96 96 96 96 96 96 96 96 96 96 96 96 96 96 96 96 96 96
96 96 96 96 96 96 96 96 96 96 96 96 96 96 96 96 96 88 56 88 112 160 176 176 176 176 176 176 176 184 184 192 192 184 144 88 56 64 96 96 96 96 96 96 96 96 96 96 96 96 96 96 96 96 96 96 96 96 96 96 96 96 96 96 96 96 96 96 96 56 56 96 144 184 192 192 184 176 176 168 160 160 160 160 160 144 112 64 56 88 96 96 96 96 96 96 96 96 96 96 96 96 96 96 96 96 96 96
96 96 96 96 96 96 96 96 96 96 96 96 96 96 96 96 88 56 72 136 160 160 160 160 160 160 160 160 168 176 176 184 192 192 184 168 112 56 64 96 96 96 96 96 96 96 96 96 96 96 96 96 96 96 96 96 96 96 96 96 96 96 96 96 96 96 96 96 56 64 112 176 192 192 192 176 176 160 160 160 152 152 152 152 152 152 152 120 72 64 88 96 96 96 96 96 96 96 96 96 96 96 96 96 96 96 96 96
96 96 96 96 96 96 96 96 96 96 96 96 96 96 96 88 56 88 144 152 152 152 152 152 152 152 152 152 160 160 168 176 184 192 192 184 176 112 56 64 96 96 96 96 96 96 96 96 96 96 96 96 96 96 96 96 96 96 96 96 96 96 96 96 96 96 96 56 64 128 184 184 192 184 176 168 160 152 144 144 144 144 144 144 144 144 144 152 136 72 64 88 96 96 96 96 96 96 96 96 96 96 96 96 96 96 96 96
96 96 96 96 96 96 96 96 96 96 96 96 96 96 96 56 72 136 152 152 144 152 144 136 120 112 112 120 136 152 160 160 168 176 192 192 184 136 72 56 64 96 96 96 96 96 96 96 96 96 96 96 96 96 96 96 96 96 96 96 96 96 96 96 96 96 64 64 128 184 184 184 184 176 160 152 144 144 144 128 112 112 112 128 136 144 144 144 144 128 72 56 96 96 96 96 96 96 96 96 96 96 96 96 96 96 96 96
96 96 96 96 96 96 96 96 96 96 96 96 96 96 56 64 136 152 144 144 144 120 96 88 80 80 80 80 88 104 128 152 160 176 176 192 184 136 80 72 56 88 96 96 96 96 96 96 96 96 96 96 96 96 96 96 96 96 96 96 96 96 96 96 96 88 56 112 176 184 184 184 176 160 152 144 136 112 96 88 80 80 80 88 88 104 128 144 144 144 120 64 64 96 96 96 96 96 96 96 96 96 96 96 96 96 96 96
96 96 96 96 96 96 96 96 96 96 96 96 96 88 64 112 152 144 144 136 112 72 80 88 104 112 112 104 88 80 88 104 144 160 176 184 184 144 80 80 72 56 96 96 96 96 96 96 96 96 96 96 96 96 96 96 96 96 96 96 96 96 96 96 96 56 88 168 184 184 184 184 168 152 144 128 96 88 80 96 112 112 112 104 88 80 88 120 144 144 144 96 56 88 96 96 96 96 96 96 96 96 96 96 96 96 96 96
96 96 96 96 96 96 96 96 96 96 96 96 96 56 72 144 144 144 128 88 80 104 128 144 144 144 144 144 144 128 96 80 88 144 160 176 184 144 80 80 80 64 88 96 96 96 96 96 96 96 96 96 96 96 96 96 96 96 96 96 96 96 96 96 88 64 144 176 184 184 184 168 160 144 128 88 80 104 128 144 144 144 144 144 144 128 96 88 96 136 144 128 72 56 96 96 96 96 96 96 96 96 96 96 96 96 96 96
96 96 96 96 96 96 96 96 96 96 96 96 88 64 112 144 144 136 88 80 128 144 144 128 104 96 96 104 128 144 144 128 80 96 144 168 176 144 80 80 80 72 64 56 56 56 56 56 56 56 56 56 56 56 56 56 56 56 56 56 56 56 56 56 64 112 176 184 184 184 176 160 152 128 88 88 128 144 144 128 104 96 96 104 128 144 144 112 80 112 144 136 112 56 88 96 96 96 96 96 96 96 96 96 96 96 96 96
96 96 96 96 96 96 96 96 96 96 96 96 56 72 144 144 144 112 88 128 144 144 104 56 32 8 8 32 56 96 128 144 128 88 112 160 176 144 80 80 80 80 64 64 64 88 88 72 64 64 64 64 64 64 64 64 64 64 64 64 64 64 64 64 96 160 184 184 184 184 168 160 144 96 88 128 144 128 96 56 32 8 8 32 56 104 144 144 112 96 120 136 128 72 64 96 96 96 96 96 96 96 96 96 96 96 96 96
96 96 96 96 96 96 96 96 96 96 96 88 56 96 144 144 128 96 128 144 144 88 32 8 8 8 8 8 8 8 88 128 144 112 88 144 168 160 80 80 80 80 80 80 104 144 160 136 72 72 72 72 72 72 72 72 72 72 72 72 72 72 72 96 160 176 184 184 184 176 160 152 128 88 128 144 128 72 8 8 8 8 8 8 8 32 88 144 144 112 96 128 136 96 56 96 96 96 96 96 96 96 96 96 96 96 96 96
96 96 96 96 96 96 96 96 96 96 96 88 64 120 144 144 112 112 144 144 96 8 8 8 16 72 72 24 8 8 8 88 144 144 112 112 160 168 120 80 72 72 80 104 144 152 152 144 72 64 64 64 64 64 64 64 64 64 64 64 64 64 72 128 168 176 184 184 176 168 160 144 112 112 144 144 88 8 8 8 32 72 48 16 8 8 8 96 144 144 104 120 136 120 64 88 96 96 96 96 96 96 96 96 96 96 96 96
96 96 96 96 96 96 96 96 96 96 96 56 72 144 144 136 104 128 152 128 32 8 8 32 112 224 200 128 24 8 8 32 112 152 128 104 152 168 168 128 112 112 136 160 160 152 152 144 80 64 64 64 64 64 64 64 64 64 64 64 64 64 80 152 176 184 184 184 176 160 152 136 104 144 152 112 32 8 8 32 144 224 200 112 24 8 8 32 128 152 128 104 128 128 72 64 96 96 96 96 96 96 96 96 96 96 96 96
96 96 96 96 96 96 96 96 96 96 96 56 88 144 144 128 112 152 144 88 8 16 8 48 224 248 248 224 48 24 16 8 56 152 144 112 136 168 176 192 184 184 168 160 152 152 152 144 112 64 64 64 64 64 64 64 64 64 64 64 64 72 104 168 176 184 192 184 168 160 152 128 112 152 144 56 8 16 16 72 248 248 248 200 32 16 16 8 88 152 152 104 128 128 88 56 96 96 96 96 96 96 96 96 96 96 96 96
96 96 96 96 96 96 96 96 96 96 88 56 96 144 144 128 136 160 128 32 8 24 16 48 200 248 248 224 48 32 24 8 32 128 152 136 128 160 176 184 184 176 168 160 152 152 152 152 136 72 64 64 64 64 64 72 64 64 64 64 64 80 144 168 176 184 184 176 168 160 144 120 144 152 128 32 8 24 24 72 224 248 248 200 40 24 16 8 32 144 152 112 128 128 96 56 96 96 96 96 96 96 96 96 96 96 96 96
96 96 96 96 96 96 96 96 96 96 88 64 112 144 136 136 144 160 128 8 16 24 32 40 112 200 200 128 32 32 24 16 32 96 160 144 136 160 168 176 184 176 168 160 152 152 152 152 144 96 64 64 64 72 72 72 72 72 72 64 72 112 160 168 176 184 184 176 168 152 144 120 152 160 104 16 16 32 32 40 144 200 200 112 32 32 24 16 8 128 160 136 128 128 96 64 88 96 96 96 96 96 96 96 96 96 96 96
96 96 96 96 96 96 96 96 96 96 88 64 112 136 136 136 152 160 104 8 16 32 32 32 40 72 72 40 40 32 32 16 16 72 160 152 136 160 168 176 176 176 168 160 152 152 144 144 144 136 80 64 64 72 72 72 72 72 64 64 96 152 168 168 176 184 176 168 160 152 144 144 160 160 88 16 16 32 32 40 40 72 72 40 40 32 32 16 16 104 160 144 136 128 112 64 88 96 96 96 96 96 96 96 96 96 96 96
96 96 96 96 96 96 96 96 96 96 88 56 112 136 136 144 160 160 96 8 16 32 32 40 48 40 48 48 40 32 32 24 16 64 160 160 144 160 168 176 176 176 176 168 160 152 144 144 144 144 128 80 64 64 72 72 72 64 72 96 144 160 168 168 176 176 176 168 160 152 144 144 160 160 72 16 24 32 32 40 48 40 48 48 40 32 32 24 16 96 160 152 136 128 112 64 88 96 96 96 96 96 96 96 96 96 96 96
96 96 96 96 96 96 96 96 96 96 88 56 112 136 136 144 160 160 96 8 24 32 32 40 48 48 48 40 40 32 32 24 16 64 168 160 152 160 160 168 176 176 176 168 160 152 152 144 144 152 152 136 96 80 72 64 72 80 104 144 152 160 168 176 176 176 176 168 160 152 144 152 168 160 72 16 24 32 32 40 48 48 48 40 40 32 32 24 16 96 160 168 144 128 112 64 88 96 96 96 96 96 96 96 96 96 96 96
96 96 96 96 96 96 96 96 96 96 88 64 112 136 136 152 160 168 112 16 24 32 32 32 40 40 48 40 32 32 32 24 24 88 168 160 152 160 160 168 176 176 176 168 160 160 152 152 152 152 152 160 160 136 112 104 112 136 152 152 152 160 168 176 176 176 168 168 160 152 152 152 168 168 88 16 24 32 32 32 40 48 40 40 32 32 32 16 16 104 168 168 152 128 112 64 88 96 96 96 96 96 96 96 96 96 96 96
96 96 96 96 96 96 96 96 96 96 88 56 96 136 136 152 168 184 128 16 24 24 32 32 32 32 32 32 32 32 32 16 24 104 168 168 168 160 160 168 176 176 176 176 168 160 160 160 160 160 160 160 168 168 168 168 168 160 160 160 160 168 168 176 176 176 168 168 160 152 152 152 168 168 112 16 16 32 32 32 32 32 32 32 32 32 24 16 16 128 168 168 152 128 96 56 88 96 96 96 96 96 96 96 96 96 96 96
96 96 96 96 96 96 96 96 96 96 96 56 96 136 136 160 176 184 160 32 16 24 24 32 32 32 32 32 32 32 24 16 32 144 184 176 168 160 160 168 176 176 176 176 168 168 160 160 168 168 168 168 168 168 168 168 168 168 168 160 168 168 176 176 176 176 168 168 160 152 152 168 168 184 152 24 16 24 32 32 32 32 32 32 32 24 24 16 32 160 184 176 144 136 96 56 96 96 96 96 96 96 96 96 96 96 96 96
96 96 96 96 96 96 96 96 96 96 96 56 88 144 136 144 176 184 168 96 16 24 24 24 24 32 32 24 24 24 24 16 64 184 184 176 168 160 160 168 168 176 176 176 176 168 168 168 168 168 176 176 176 176 176 176 176 176 168 168 168 168 176 176 176 176 168 168 160 152 152 160 192 184 168 64 16 24 24 24 24 32 32 24 24 24 24 16 96 184 184 176 144 136 88 56 96 96 96 96 96 96 96 96 96 96 96 96
96 96 96 96 96 96 96 96 96 96 96 64 88 136 144 152 168 184 184 168 32 16 24 24 24 24 24 24 24 24 16 32 136 184 184 192 160 160 160 168 168 176 176 176 176 176 176 176 176 176 176 176 176 176 176 176 176 176 176 176 176 176 176 176 176 176 168 168 160 160 152 160 192 184 184 144 32 16 24 24 24 24 24 24 24 24 16 32 168 184 192 168 144 128 88 88 96 96 96 96 96 96 96 96 96 96 96 96
96 96 96 96 96 96 96 96 96 96 96 64 88 120 144 152 160 200 192 184 112 24 16 24 24 24 24 24 24 16 16 96 192 192 200 176 160 160 160 168 168 176 176 176 176 176 176 176 176 184 184 184 184 184 184 184 184 184 184 176 176 176 176 176 176 176 168 168 160 160 152 160 168 200 184 192 96 16 16 24 24 24 24 24 16 16 24 112 192 192 192 160 144 128 88 64 96 96 96 96 96 96 96 96 96 96 96 96
96 96 96 96 96 96 96 96 96 96 96 56 96 144 152 152 160 184 208 192 184 112 32 8 16 16 16 16 16 24 96 184 192 208 192 168 160 160 168 168 168 176 176 176 176 176 184 184 184 184 184 184 184 184 184 184 184 184 184 184 184 184 184 176 176 176 168 168 168 160 160 160 160 200 208 192 184 96 24 8 16 16 16 16 8 32 112 192 192 208 184 160 152 144 96 64 88 96 96 96 96 96 96 96 96 96 96 96
96 96 96 96 96 96 96 96 96 96 56 88 136 144 152 152 160 176 208 208 192 192 136 64 32 24 24 32 64 112 184 192 208 208 176 168 168 168 168 168 176 176 176 176 184 184 184 184 184 184 184 184 192 192 192 192 192 192 192 184 184 184 184 184 176 176 176 168 168 160 160 160 160 176 208 208 192 184 112 64 32 24 24 32 64 136 192 192 208 200 160 152 152 152 144 96 88 88 96 96 96 96 96 96 96 96 96 96
96 96 96 96 96 96 96 96 96 56 88 136 144 152 152 160 160 160 184 208 208 208 208 184 136 112 112 136 184 208 208 208 208 184 168 168 168 168 168 168 176 176 176 184 184 184 184 184 184 192 192 192 192 192 192 192 192 192 192 192 192 192 184 184 184 184 176 168 168 168 160 160 160 160 184 208 208 208 208 184 136 112 112 144 184 208 208 208 208 176 160 152 152 152 152 136 88 56 96 96 96 96 96 96 96 96 96 96
96 96 96 96 96 96 96 96 64 88 120 152 152 152 152 160 160 160 160 184 208 208 208 208 208 208 208 208 208 208 208 208 184 168 168 168 168 168 168 176 176 184 184 184 184 184 192 192 192 192 192 192 192 192 192 192 192 192 192 192 192 192 192 192 184 184 176 176 168 168 168 168 168 168 168 184 208 208 208 208 208 208 208 208 208 208 216 200 176 160 160 160 152 152 152 152 136 96 64 96 96 96 96 96 96 96 96 96
96 96 96 96 96 96 96 88 96 112 144 152 152 152 152 152 160 160 160 160 168 200 208 216 208 208 208 208 216 208 200 176 168 168 168 168 168 168 176 176 184 184 184 184 192 184 192 192 192 192 192 192 192 192 192 192 192 192 192 192 192 192 192 184 192 184 184 176 176 168 168 168 168 168 168 168 176 200 208 216 208 208 208 216 216 208 184 160 160 160 160 160 160 160 160 152 152 120 96 64 96 96 96 96 96 96 96 96
96 96 96 96 96 96 96 56 96 144 152 152 152 152 152 152 152 160 160 168 168 168 168 192 200 200 200 200 192 176 168 168 168 168 168 168 168 168 176 176 184 184 184 192 184 192 192 192 192 192 192 192 192 200 200 200 200 200 200 192 192 192 192 192 192 192 184 184 176 176 168 168 168 168 168 168 168 160 176 184 200 200 200 200 184 168 160 160 160 160 160 160 160 160 160 160 160 152 112 64 88 96 96 96 96 96 96 96
96 96 96 96 96 96 56 88 136 144 152 152 152 152 152 152 152 160 160 160 168 168 168 168 168 168 168 168 168 168 168 168 168 168 168 168 168 176 176 184 184 184 192 192 192 192 192 192 192 192 200 200 200 200 200 200 200 200 200 200 200 192 192 192 192 192 192 184 176 176 176 168 168 168 168 168 168 168 168 168 160 160 160 160 160 168 160 160 160 160 160 160 160 160 160 160 168 160 152 96 56 96 96 96 96 96 96 96
96 96 96 96 96 64 96 120 152 152 152 152 160 160 160 160 160 160 160 160 168 168 168 168 168 168 168 168 168 168 168 168 168 168 168 168 176 176 176 184 192 192 192 192 192 192 192 192 200 200 200 200 200 200 200 200 200 200 200 200 200 200 200 192 192 192 192 192 184 176 176 176 168 168 168 168 168 168 168 168 168 168 168 168 168 168 160 160 160 160 160 160 160 160 168 160 160 152 152 136 96 64 96 96 96 96 96 96
96 96 96 96 96 56 112 144 144 152 152 144 128 128 128 128 136 144 160 168 168 168 168 168 168 168 168 168 168 168 168 168 168 168 168 168 176 176 184 184 192 192 192 192 192 192 200 200 200 200 200 200 200 200 200 200 200 200 200 200 200 200 200 200 192 192 192 192 184 184 176 176 176 168 168 168 168 168 168 168 168 168 168 168 160 160 160 160 160 160 160 160 160 152 144 120 104 96 96 104 96 96 88 96 96 96 96 96
96 96 96 96 56 88 136 152 152 152 120 96 72 64 64 80 80 96 112 128 152 168 168 168 168 168 168 168 168 168 168 168 168 176 168 176 176 184 184 192 192 192 192 192 192 200 200 200 200 200 200 200 200 200 200 200 200 200 200 200 200 200 200 200 192 192 192 192 184 184 184 176 176 176 168 168 168 168 168 168 168 160 160 160 160 160 160 160 160 160 160 160 144 112 80 72 72 72 72 72 80 88 56 96 96 96 96 96
96 96 96 88 96 128 152 152 152 128 72 64 72 72 72 72 72 72 64 72 96 128 160 168 168 168 168 168 168 168 168 168 168 168 176 176 176 184 184 192 192 192 192 192 200 200 200 200 200 200 200 200 200 200 200 200 200 200 200 200 200 200 200 200 200 192 192 192 184 184 184 184 176 176 176 168 168 168 168 160 160 160 160 160 160 160 160 160 160 160 160 144 96 72 72 72 80 80 80 80 80 80 96 88 96 96 96 96
96 96 96 56 96 144 152 160 152 104 64 72 72 72 72 72 72 72 72 72 72 80 120 160 168 168 168 168 168 168 168 168 168 176 176 176 176 184 192 192 192 192 192 200 200 200 200 200 200 200 200 200 200 200 200 200 200 200 200 200 200 200 200 200 200 200 192 192 192 192 184 184 176 176 176 176 168 168 168 168 168 160 160 160 160 160 160 160 160 160 160 104 72 72 72 72 72 80 80 80 80 72 88 88 88 96 96 96
96 96 88 96 128 152 160 160 160 128 80 64 72 72 72 72 72 72 72 72 72 72 80 160 168 168 168 168 168 168 168 168 176 176 176 184 184 200 200 192 192 192 200 200 200 200 200 200 200 200 200 200 200 200 200 200 200 200 200 200 200 200 200 200 200 200 192 192 184 192 184 184 184 176 176 176 168 168 168 168 168 168 168 168 168 160 160 160 160 160 160 80 72 72 72 72 72 72 80 80 80 80 80 88 64 96 96 96
96 96 104 104 152 152 160 160 160 160 120 80 72 64 64 72 72 72 72 72 72 80 112 160 168 168 168 168 168 168 168 168 176 176 176 176 176 144 144 176 192 192 200 200 200 200 200 200 200 200 200 200 200 200 200 200 200 200 200 200 200 200 200 200 200 200 200 184 144 128 144 168 184 176 176 176 168 168 168 168 168 168 168 168 168 168 168 168 168 168 160 80 72 72 72 72 72 72 72 80 80 80 72 88 96 88 96 96
96 88 96 128 152 160 160 160 160 160 160 144 112 96 80 80 80 80 80 96 96 128 160 168 168 168 168 168 168 168 168 168 176 176 184 168 128 16 40 144 200 200 200 200 200 200 200 200 200 200 200 200 200 200 200 200 200 200 200 200 200 200 200 200 200 200 200 176 112 24 72 144 176 184 176 176 168 168 168 168 168 168 168 168 168 168 168 168 168 168 160 112 72 64 72 72 72 72 72 72 80 80 72 80 88 64 96 96
96 104 104 144 144 152 152 160 160 160 160 160 160 160 144 136 136 136 136 144 168 168 168 168 168 168 168 168 168 168 168 176 176 176 176 152 72 8 32 144 200 200 200 200 200 200 200 200 200 200 200 200 200 200 200 200 200 200 200 200 200 200 200 200 200 200 200 176 112 16 16 128 184 184 184 176 176 168 168 168 168 168 168 168 160 136 120 136 160 168 168 160 112 80 72 64 72 72 72 72 72 80 72 72 88 88 88 96
96 112 112 112 104 104 104 112 136 160 160 160 160 160 160 168 168 168 168 168 168 168 168 168 168 168 168 168 168 168 168 176 176 184 184 168 72 32 72 144 200 200 200 200 200 200 200 200 200 200 200 200 200 200 200 200 200 200 200 200 200 200 200 200 200 200 200 200 128 32 32 128 184 184 184 176 176 168 168 168 168 168 168 168 112 72 72 80 112 144 168 168 160 136 96 80 80 72 64 72 72 72 72 64 80 88 88 96
96 96 72 64 64 72 72 64 96 160 160 160 160 160 160 160 168 168 168 168 168 168 168 168 168 168 168 168 168 168 168 176 176 184 184 184 128 112 144 176 200 200 200 200 200 200 200 200 200 200 200 200 200 200 200 200 200 200 200 200 200 200 200 200 200 200 200 208 176 128 112 152 192 184 184 184 176 168 168 168 168 168 168 160 80 72 72 72 72 96 136 168 168 168 160 136 120 104 96 80 80 80 80 96 112 104 104 96
96 88 72 64 72 72 72 72 96 160 160 160 160 160 160 168 168 168 168 168 168 168 168 168 168 168 168 168 168 168 176 176 184 184 184 200 200 200 200 208 200 200 200 200 200 200 200 200 200 200 200 200 200 200 200 200 200 200 200 200 200 200 200 200 200 200 200 200 208 200 200 208 192 184 176 184 176 176 168 168 168 168 168 168 112 80 72 72 72 72 80 136 168 168 160 160 160 160 160 144 136 136 136 160 144 104 120 96
96 96 72 64 72 72 72 80 120 168 160 160 160 160 168 168 168 168 168 168 168 168 168 168 168 168 168 168 168 176 176 176 184 184 184 192 208 208 208 200 200 200 200 200 200 200 200 200 200 200 200 200 200 200 200 200 200 200 200 200 200 200 200 200 200 200 200 200 208 208 208 200 192 184 184 176 176 176 168 168 168 168 168 168 168 136 112 96 80 80 72 80 144 168 168 160 160 160 160 160 160 160 160 160 144 104 104 96
96 96 88 64 72 72 72 80 144 168 168 168 168 168 168 168 168 168 168 168 168 168 168 168 168 168 168 168 176 176 176 184 184 184 184 192 192 200 200 200 200 200 200 200 200 200 200 200 200 200 200 200 200 200 200 200 200 200 200 200 200 200 200 200 200 200 200 200 200 200 200 192 192 184 184 184 184 176 176 168 168 168 168 168 168 168 168 160 136 120 104 104 144 168 168 160 160 160 168 168 168 168 160 160 144 104 104 96
96 88 88 64 72 80 80 104 168 168 168 168 168 168 168 168 168 168 168 168 168 168 168 168 168 168 168 168 176 176 184 176 184 184 184 192 192 192 192 200 200 200 200 200 200 200 200 200 200 200 200 200 200 200 200 200 200 200 200 200 200 200 200 200 200 200 200 200 200 200 192 192 192 184 184 184 176 176 176 168 168 168 168 168 168 168 168 168 168 168 168 168 168 168 168 168 168 168 168 168 168 168 168 160 144 104 64 96
96 112 88 72 80 72 80 144 176 176 168 168 168 168 168 168 168 168 168 168 168 168 168 168 168 168 168 176 176 176 184 184 184 184 192 192 192 192 200 200 200 200 200 200 200 200 200 200 200 200 200 200 200 200 200 200 200 200 200 200 200 200 200 200 200 200 200 200 200 200 192 192 192 184 184 184 184 176 176 168 168 168 168 168 168 168 168 168 168 168 168 168 168 168 168 168 168 168 168 176 176 176 160 160 144 88 88 96
96 104 96 80 80 80 112 176 184 176 176 176 168 168 168 168 168 168 168 168 168 168 168 168 168 176 176 176 176 184 184 184 184 184 192 192 192 192 200 200 200 200 200 200 200 200 200 200 200 200 208 208 216 216 216 216 208 208 200 200 200 200 200 200 200 200 200 200 200 200 200 192 192 192 184 184 184 184 176 168 168 168 168 168 168 168 168 168 168 168 168 168 168 168 168 168 168 176 176 176 176 176 176 160 144 96 88 96
96 88 88 88 72 96 160 192 192 200 200 192 184 176 176 176 176 176 176 176 176 168 176 176 176 176 176 184 176 184 184 184 184 192 192 192 192 192 192 200 200 200 200 200 200 200 208 208 216 216 216 200 192 192 192 200 224 224 216 216 208 208 200 200 200 200 200 200 200 200 200 192 192 192 184 184 184 184 176 176 168 168 168 168 168 168 168 168 168 168 168 168 168 168 168 176 176 184 184 184 184 184 184 168 128 112 96 96
96 88 112 96 80 144 192 192 192 168 168 168 184 184 192 192 192 184 176 176 184 184 184 184 184 184 184 184 184 184 184 184 192 192 192 192 192 200 200 200 200 208 208 216 216 224 224 208 200 192 168 120 80 56 56 104 152 192 200 208 224 224 216 208 208 200 200 200 200 200 192 192 192 192 192 184 184 184 176 176 168 168 168 168 168 168 168 168 168 168 168 176 176 176 184 200 192 168 168 192 192 192 184 168 104 128 96 96
96 96 104 96 128 192 200 200 192 136 88 88 104 136 152 168 168 184 184 192 200 200 200 200 200 200 200 200 200 200 200 200 200 200 200 208 208 208 216 216 224 224 224 208 200 192 176 144 104 56 56 56 40 24 24 40 56 56 88 120 176 192 200 224 224 224 216 216 208 208 200 200 192 192 192 192 184 184 184 176 176 176 176 176 176 176 176 176 176 184 184 200 200 200 168 152 152 104 136 192 192 192 192 152 96 88 96 96
96 96 88 96 152 208 200 200 208 208 152 104 80 56 56 56 88 104 136 136 152 168 168 168 184 184 184 184 200 200 200 200 200 200 200 200 192 192 192 192 192 176 152 120 88 64 56 56 40 24 24 24 24 24 24 24 24 24 40 56 56 64 104 144 176 200 200 208 224 224 224 224 216 216 208 208 208 200 200 184 184 184 184 200 200 200 200 200 200 200 192 176 168 144 96 80 104 144 200 200 200 192 192 136 120 96 96 96
96 96 96 120 136 192 208 208 208 208 224 208 152 120 88 40 40 40 40 56 56 56 64 64 88 96 104 120 120 120 120 120 120 120 120 104 96 88 64 56 56 56 56 40 40 24 24 24 24 24 24 24 24 24 24 24 24 24 24 24 24 24 40 56 56 64 88 120 152 176 200 200 200 208 208 208 200 200 200 200 200 192 192 192 192 176 176 176 152 144 104 64 56 64 104 144 208 208 208 208 200 200 168 120 88 96 96 96
96 96 96 88 128 168 216 216 216 216 216 224 224 232 176 120 96 56 24 24 24 24 24 24 40 40 40 40 40 40 40 40 40 40 40 40 40 40 24 24 24 24 24 24 24 24 24 24 24 24 24 24 24 24 24 24 24 24 24 24 24 24 24 24 24 24 40 40 56 56 56 72 72 96 104 120 120 120 120 120 120 120 104 96 88 64 56 40 56 56 40 56 104 152 208 224 224 208 208 208 208 200 136 128 96 96 96 96
96 96 96 96 104 136 192 224 216 216 216 216 224 224 232 240 200 152 104 72 24 24 24 24 24 24 24 24 24 24 24 24 24 24 24 32 32 32 32 32 32 32 32 32 32 32 32 32 32 32 24 24 24 24 24 24 24 24 32 32 32 32 32 32 32 32 32 32 32 32 24 24 24 40 40 40 40 40 40 40 40 40 40 40 24 24 24 24 40 72 104 152 224 232 224 224 216 216 216 216 208 168 120 88 96 96 96 96
96 96 96 96 88 112 152 208 224 216 216 216 216 224 224 224 232 240 232 160 120 104 56 24 24 24 24 24 24 24 24 24 24 24 32 32 32 32 32 32 32 32 32 24 24 24 24 24 24 24 24 24 24 24 24 24 24 24 24 24 24 24 24 24 24 32 32 32 32 32 32 32 32 32 32 32 24 24 24 24 24 24 24 24 24 24 56 104 120 160 240 240 232 224 224 224 224 216 216 216 192 120 120 96 96 96 96 96
96 96 96 96 96 88 128 168 216 216 216 216 216 216 224 224 224 224 232 240 240 200 160 112 80 56 24 24 24 24 24 24 24 24 32 32 32 32 32 32 24 24 24 24 24 24 24 32 32 32 32 32 32 32 32 32 32 32 32 32 32 24 24 24 24 24 24 24 32 32 32 32 32 32 32 24 24 24 24 24 24 24 24 56 80 104 144 200 240 240 232 224 224 224 224 224 224 224 224 208 144 112 96 96 96 96 96 96
96 96 96 96 96 96 104 120 176 216 216 216 216 224 224 224 224 224 224 224 232 240 240 248 216 160 112 80 56 32 24 24 24 24 24 24 32 32 24 24 24 24 24 32 32 32 32 32 32 32 32 32 32 32 32 32 32 32 32 32 32 32 32 32 32 24 24 24 24 24 32 32 32 24 24 24 24 24 24 32 56 80 96 144 200 232 232 232 232 224 224 224 224 224 224 224 224 224 216 168 120 88 96 96 96 96 96 96
96 96 96 96 96 96 88 120 136 176 208 216 216 216 224 224 224 224 224 224 224 232 232 240 240 248 248 216 168 112 96 80 56 32 32 32 32 24 24 24 24 32 32 32 32 32 32 32 32 32 40 40 40 40 40 40 40 40 32 32 32 32 32 32 32 32 32 24 24 24 24 32 32 32 32 32 56 80 96 112 160 200 240 240 232 224 224 224 224 224 224 224 224 224 224 224 224 216 176 120 104 96 96 96 96 96 96 96
96 96 96 96 96 96 96 88 128 136 176 208 216 216 216 224 224 224 224 224 224 224 224 232 232 240 240 240 248 248 248 200 160 112 96 96 56 24 24 24 32 32 32 32 32 32 40 40 40 40 40 40 40 40 40 40 40 40 40 40 40 40 32 32 32 32 32 32 24 24 24 24 56 80 96 112 144 200 240 240 240 232 232 224 224 224 224 224 224 224 224 232 224 224 224 216 216 176 120 120 96 96 96 96 96 96 96 96
96 96 96 96 96 96 96 96 88 128 136 176 208 216 208 216 216 224 224 224 224 232 224 224 224 232 232 232 240 240 240 240 248 248 248 216 200 144 96 80 80 80 32 32 32 32 32 40 40 40 40 40 40 40 40 40 40 40 40 40 40 32 32 32 32 32 32 80 80 80 96 112 168 200 240 240 240 240 232 232 224 224 224 224 224 224 224 224 232 232 224 224 224 216 216 216 176 120 120 96 96 96 96 96 96 96 96 96
96 96 96 96 96 96 96 96 96 96 128 136 168 200 216 216 216 216 216 224 224 224 224 232 232 224 232 232 232 232 232 240 240 240 240 240 248 248 248 248 232 216 168 144 112 112 112 80 80 80 80 80 80 80 80 80 80 80 80 80 80 80 112 112 112 144 168 200 216 240 240 240 240 240 240 240 232 232 232 224 224 224 224 224 224 224 232 232 232 224 224 224 216 216 208 176 120 120 96 96 96 96 96 96 96 96 96 96
96 96 96 96 96 96 96 96 96 96 96 120 120 160 200 216 216 216 216 216 216 224 224 224 232 232 232 232 232 232 232 232 232 232 240 240 240 240 240 240 248 248 248 248 248 248 248 248 248 240 232 232 216 216 216 216 216 216 232 232 248 248 248 248 240 240 240 240 240 240 240 240 232 240 232 232 232 232 232 224 224 224 224 232 232 232 224 224 224 216 216 216 216 200 168 120 120 96 96 96 96 96 96 96 96 96 96 96
96 96 96 96 96 96 96 96 96 96 96 96 128 128 152 192 208 216 208 216 216 216 216 224 224 224 224 232 232 232 232 232 232 232 232 232 232 232 240 240 240 240 240 240 240 240 240 240 240 240 240 240 240 240 240 240 240 240 240 240 240 240 240 240 240 240 240 240 240 240 232 232 232 232 232 232 232 232 232 232 232 232 232 232 224 224 224 216 216 216 216 208 192 160 136 128 96 96 96 96 96 96 96 96 96 96 96 96
96 96 96 96 96 96 96 96 96 96 96 96 96 88 112 136 176 200 208 208 208 216 216 216 216 224 224 224 224 224 232 232 232 232 232 232 232 232 232 232 232 240 240 240 240 240 240 240 240 240 240 240 240 240 240 240 240 240 240 240 240 240 240 240 240 240 240 232 232 232 232 232 232 232 232 232 232 232 232 232 232 232 224 224 224 216 216 216 216 208 208 176 136 128 88 96 96 96 96 96 96 96 96 96 96 96 96 96
96 96 96 96 96 96 96 96 96 96 96 96 96 96 96 120 136 160 192 208 208 208 208 208 216 216 216 216 224 224 224 224 224 232 232 232 232 232 232 232 232 232 232 232 232 240 240 240 240 240 240 240 240 240 240 240 240 240 240 240 240 240 240 232 232 232 232 232 232 232 232 232 232 232 232 232 232 232 232 232 224 224 224 216 216 216 208 208 208 192 160 136 120 96 96 96 96 96 96 96 96 96 96 96 96 96 96 96
96 96 96 96 96 96 96 96 96 96 96 96 96 96 96 96 88 112 136 168 192 208 208 208 208 216 216 216 216 216 224 224 224 224 224 224 232 232 232 232 232 232 232 232 232 232 232 232 232 232 232 232 232 232 232 232 232 232 232 232 232 232 232 232 232 232 232 232 232 232 232 232 232 232 232 232 232 224 224 224 224 216 216 216 208 208 208 200 176 152 128 128 96 96 96 96 96 96 96 96 96 96 96 96 96 96 96 96
96 96 96 96 96 96 96 96 96 96 96 96 96 96 96 96 96 96 128 128 152 176 192 208 208 208 208 208 216 216 216 216 216 224 224 224 224 224 224 224 224 232 232 232 232 232 232 232 232 232 232 232 232 232 232 232 232 232 232 232 232 232 232 232 232 232 232 232 232 232 232 232 232 232 224 224 224 224 216 216 216 216 208 208 208 200 176 160 136 120 96 96 96 96 96 96 96 96 96 96 96 96 96 96 96 96 96 96
96 96 96 96 96 96 96 96 96 96 96 96 96 96 96 96 96 96 96 96 128 136 152 176 192 208 208 208 208 208 216 216 216 216 216 216 224 224 224 224 224 224 224 224 224 232 224 232 232 232 232 232 232 232 232 232 232 232 224 232 232 232 232 232 224 232 232 232 232 224 224 224 224 224 224 224 216 216 216 216 216 208 208 200 176 160 136 128 88 96 96 96 96 96 96 96 96 96 96 96 96 96 96 96 96 96 96 96
96 96 96 96 96 96 96 96 96 96 96 96 96 96 96 96 96 96 96 96 96 96 128 136 152 168 192 208 208 208 208 208 216 216 216 216 216 216 216 224 224 224 224 224 224 224 224 224 224 224 224 224 224 224 224 224 224 224 224 224 224 224 224 224 224 224 224 224 224 224 224 224 224 224 224 216 216 216 216 208 208 200 176 160 136 128 88 96 96 96 96 96 96 96 96 96 96 96 96 96 96 96 96 96 96 96 96 96
96 96 96 96 96 96 96 96 96 96 96 96 96 96 96 96 96 96 96 96 96 96 96 96 120 136 152 168 176 200 208 208 208 216 216 216 216 216 216 216 216 216 224 224 224 224 224 224 224 224 224 224 224 224 224 224 224 224 224 224 224 224 224 224 224 224 224 224 224 224 224 224 216 216 216 216 216 216 216 200 176 160 136 128 88 96 96 96 96 96 96 96 96 96 96 96 96 96 96 96 96 96 96 96 96 96 96 96
96 96 96 96 96 96 96 96 96 96 96 96 96 96 96 96 96 96 96 96 96 96 96 96 96 96 128 128 136 160 168 192 208 208 208 208 208 208 216 216 216 216 216 216 216 216 224 224 224 224 224 224 224 224 224 224 224 224 224 224 224 224 224 224 224 224 224 216 224 216 216 216 216 216 216 216 208 192 176 152 136 120 88 96 96 96 96 96 96 96 96 96 96 96 96 96 96 96 96 96 96 96 96 96 96 96 96 96
96 96 96 96 96 96 96 96 96 96 96 96 96 96 96 96 96 96 96 96 96 96 96 96 96 96 96 96 88 128 136 152 160 176 192 208 208 208 208 208 216 216 216 216 216 216 216 216 216 224 224 224 224 224 224 224 224 224 224 224 224 224 216 216 216 216 216 216 216 216 216 216 216 208 192 176 160 136 128 128 96 96 96 96 96 96 96 96 96 96 96 96 96 96 96 96 96 96 96 96 96 96 96 96 96 96 96 96
96 96 96 96 96 96 96 96 96 96 96 96 96 96 96 96 96 96 96 96 96 96 96 96 96 96 96 96 96 96 96 128 128 136 152 160 168 176 200 208 208 208 208 216 216 216 216 216 216 216 216 216 216 216 216 216 216 216 216 216 216 216 216 216 216 216 216 216 216 216 208 176 176 160 136 128 120 88 96 96 96 96 96 96 96 96 96 96 96 96 96 96 96 96 96 96 96 96 96 96 96 96 96 96 96 96 96 96
96 96 96 96 96 96 96 96 96 96 96 96 96 96 96 96 96 96 96 96 96 96 96 96 96 96 96 96 96 96 96 96 96 96 128 128 128 136 160 160 168 176 192 208 208 208 208 208 208 216 216 216 216 216 216 216 216 216 216 216 216 216 216 216 216 208 200 192 176 160 152 136 128 120 88 96 96 96 96 96 96 96 96 96 96 96 96 96 96 96 96 96 96 96 96 96 96 96 96 96 96 96 96 96 96 96 96 96
96 96 96 96 96 96 96 96 96 96 96 96 96 96 96 96 96 96 96 96 96 96 96 96 96 96 96 96 96 96 96 96 96 96 96 96 96 88 120 128 128 136 152 160 168 176 176 192 192 200 208 208 208 208 208 208 208 208 208 200 192 192 176 176 160 160 152 136 128 128 128 96 96 96 96 96 96 96 96 96 96 96 96 96 96 96 96 96 96 96 96 96 96 96 96 96 96 96 96 96 96 96 96 96 96 96 96 96
96 96 96 96 96 96 96 96 96 96 96 96 96 96 96 96 96 96 96 96 96 96 96 96 96 96 96 96 96 96 96 96 96 96 96 96 96 96 96 96 96 88 128 128 128 128 136 136 152 160 160 160 160 160 160 160 160 160 160 152 152 136 136 128 128 120 128 96 96 96 96 96 96 96 96 96 96 96 96 96 96 96 96 96 96 96 96 96 96 96 96 96 96 96 96 96 96 96 96 96 96 96 96 96 96 96 96 96
96 96 96 96 96 96 96 96 96 96 96 96 96 96 96 96 96 96 96 96 96 96 96 96 96 96 96 96 96 96 96 96 96 96 96 96 96 96 96 96 96 96 96 96 88 88 88 128 120 128 128 128 128 128 128 128 128 128 128 120 128 88 88 88 88 96 96 96 96 96 96 96 96 96 96 96 96 96 96 96 96 96 96 96 96 96 96 96 96 96 96 96 96 96 96 96 96 96 96 96 96 96 96 96 96 96 96 96
96 96 96 96 96 96 96 96 96 96 96 96 96 96 96 96 96 96 96 96 96 96 96 96 96 96 96 96 96 96 96 96 96 96 96 96 96 96 96 96 96 96 96 96 96 96 96 96 96 96 96 96 96 96 96 96 96 96 96 96 96 96 96 96 96 96 96 96 96 96 96 96 96 96 96 96 96 96 96 96 96 96 96 96 96 96 96 96 96 96 96 96 96 96 96 96 96 96 96 96 96 96 96 96 96 96 96 96
96 96 96 96 96 96 96 96 96 96 96 96 96 96 96 96 96 96 96 96 96 96 96 96 96 96 96 96 96 96 96 96 96 96 96 96 96 96 96 96 96 96 96 96 96 96 96 96 96 96 96 96 96 96 96 96 96 96 96 96 96 96 96 96 96 96 96 96 96 96 96 96 96 96 96 96 96 96 96 96 96 96 96 96 96 96 96 96 96 96 96 96 96 96 96 96 96 96 96 96 96 96 96 96 96 96 96 96
96 96 96 96 96 96 96 96 96 96 96 96 96 96 96 96 96 96 96 96 96 96 96 96 96 96 96 96 96 96 96 96 96 96 96 96 96 96 96 96 96 96 96 96 96 96 96 96 96 96 96 96 96 96 96 96 96 96 96 96 96 96 96 96 96 96 96 96 96 96 96 96 96 96 96 96 96 96 96 96 96 96 96 96 96 96 96 96 96 96 96 96 96 96 96 96 96 96 96 96 96 96 96 96 96 96 96 96
96 96 96 96 96 96 96 96 96 96 96 96 96 96 96 96 96 96 96 96 96 96 96 96 96 96 96 96 96 96 96 96 96 96 96 96 96 96 96 96 96 96 96 96 96 96 96 96 96 96 96 96 96 96 96 96 96 96 96 96 96 96 96 96 96 96 96 96 96 96 96 96 96 96 96 96 96 96 96 96 96 96 96 96 96 96 96 96 96 96 96 96 96 96 96 96 96 96 96 96 96 96 96 96 96 96 96 96
96 96 96 96 96 96 96 96 96 96 96 96 96 96 96 96 96 96 96 96 96 96 96 96 96 96 96 96 96 96 96 96 96 96 96 96 96 96 96 96 96 96 96 96 96 96 96 96 96 96 96 96 96 96 96 96 96 96 96 96 96 96 96 96 96 96 96 96 96 96 96 96 96 96 96 96 96 96 96 96 96 96 96 96 96 96 96 96 96 96 96 96 96 96 96 96 96 96 96 96 96 96 96 96 96 96 96 96
96 96 96 96 96 96 96 96 96 96 96 96 96 96 96 96 96 96 96 96 96 96 96 96 96 96 96 96 96 96 96 96 96 96 96 96 96 96 96 96 96 96 96 96 96 96 96 96 96 96 96 96 96 96 96 96 96 96 96 96 96 96 96 96 96 96 96 96 96 96 96 96 96 96 96 96 96 96 96 96 96 96 96 96 96 96 96 96 96 96 96 96 96 96 96 96 96 96 96 96 96 96 96 96 96 96 96 96
96 96 96 96 96 96 96 96 96 96 96 96 96 96 96 96 96 96 96 96 96 96 96 96 96 96 96 96 96 96 96 96 96 96 96 96 96 96 96 96 96 96 96 96 96 96 96 96 96 96 96 96 96 96 96 96 96 96 96 96 96 96 96 96 96 96 96 96 96 96 96 96 96 96 96 96 96 96 96 96 96 96 96 96 96 96 96 96 96 96 96 96 96 96 96 96 96 96 96 96 96 96 96 96 96 96 96 96
96 96 96 96 96 96 96 96 96 96 96 96 96 96 96 96 96 96 96 96 96 96 96 96 96 96 96 96 96 96 96 96 96 96 96 96 96 96 96 96 96 96 96 96 96 96 96 96 96 96 96 96 96 96 96 96 96 96 96 96 96 96 96 96 96 96 96 96 96 96 96 96 96 96 96 96 96 96 96 96 96 96 96 96 96 96 96 96 96 96 96 96 96 96 96 96 96 96 96 96 96 96 96 96 96 96 96 96
96 96 96 96 96 96 96 96 96 96 96 96 96 96 96 96 96 96 96 96 96 96 96 96 96 96 96 96 96 96 96 96 96 96 96 96 96 96 96 96 96 96 96 96 96 96 96 96 96 96 96 96 96 96 96 96 96 96 96 96 96 96 96 96 96 96 96 96 96 96 96 96 96 96 96 96 96 96 96 96 96 96 96 96 96 96 96 96 96 96 96 96 96 96 96 96 96 96 96 96 96 96 96 96 96 96 96 96
96 96 96 96 96 96 96 96 96 96 96 96 96 96 96 96 96 96 96 96 96 96 96 96 96 96 96 96 96 96 96 96 96 96 96 96 96 96 96 96 96 96 96 96 96 96 96 96 96 96 96 96 96 96 96 96 96 96 96 96 96 96 96 96 96 96 96 96 96 96 96 96 96 96 96 96 96 96 96 96 96 96 96 96 96 96 96 96 96 96 96 96 96 96 96 96 96 96 96 96 96 96 96 96 96 96 96 96
96 96 96 96 96 96 96 96 96 96 96 96 96 96 96 96 96 96 96 96 96 96 96 96 96 96 96 96 96 96 96 96 96 96 96 96 96 96 96 96 96 96 96 96 96 96 96 96 96 96 96 96 96 96 96 96 96 96 96 96 96 96 96 96 96 96 96 96 96 96 96 96 96 96 96 96 96 96 96 96 96 96 96 96 96 96 96 96 96 96 96 96 96 96 96 96 96 96 96 96 96 96 96 96 96 96 96 96
96 96 96 96 96 96 96 96 96 96 96 96 96 96 96 96 96 96 96 96 96 96 96 96 96 96 96 96 96 96 96 96 96 96 96 96 96 96 96 96 96 96 96 96 96 96 96 96 96 96 96 96 96 96 96 96 96 96 96 96 96 96 96 96 96 96 96 96 96 96 96 96 96 96 96 96 96 96 96 96 96 96 96 96 96 96 96 96 96 96 96 96 96 96 96 96 96 96 96 96 96 96 96 96 96 96 96 96
96 96 96 96 96 96 96 96 96 96 96 96 96 96 96 96 96 96 96 96 96 96 96 96 96 96 96 96 96 96 96 96 96 96 96 96 96 96 96 96 96 96 96 96 96 96 96 96 96 96 96 96 96 96 96 96 96 96 96 96 96 96 96 96 96 96 96 96 96 96 96 96 96 96 96 96 96 96 96 96 96 96 96 96 96 96 96 96 96 96 96 96 96 96 96 96 96 96 96 96 96 96 96 96 96 96 96 96