P2
108 108
255
96 96 96 96 96 96 96 96 96 96 96 96 96 96 96 96 96 96 96 96 96 96 96 96 96 96 96 96 96 96 96 96 96 96 96 96 96 96 96 96 96 96 96 96 96 96 96 96 96 96 96 96 96 96 96 96 96 96 96 96 96 96 96 96 96 96 96 96 96 96 96 96 96 96 96 96 96 96 96 96 96 96 96 96 96 96 96 96 96 96 96 96 96 96 96 96 96 96 96 96 96 96 96 96 96 96 96 96
96 96 96 96 96 96 96 96 96 96 96 96 96 96 96 96 96 96 96 96 96 96 96 96 96 96 96 96 96 96 96 96 96 96 96 96 96 96 96 96 96 96 96 96 96 96 96 96 96 96 96 96 96 96 96 96 96 96 96 96 96 96 96 96 96 96 96 96 96 96 96 96 96 96 96 96 96 96 96 96 96 96 96 96 96 96 96 96 96 96 96 96 96 96 96 96 96 96 96 96 96 96 96 96 96 96 96 96
96 96 96 96 96 96 96 96 96 96 96 96 96 96 96 96 96 96 96 96 96 96 96 96 96 96 96 96 96 96 96 96 96 96 96 96 96 96 96 96 96 96 96 96 96 96 96 96 96 96 96 96 96 96 96 96 96 96 96 96 96 96 96 96 96 96 96 96 96 96 96 96 96 96 96 96 96 96 96 96 96 96 96 96 96 96 96 96 96 96 96 96 96 96 96 96 96 96 96 96 96 96 96 96 96 96 96 96
96 96 96 96 96 96 96 96 96 96 96 96 96 96 96 96 96 96 96 96 96 96 96 96 96 96 96 96 96 96 96 96 96 96 96 96 96 96 96 96 96 96 96 96 96 96 96 96 96 96 96 96 96 96 96 96 96 96 96 96 96 96 96 96 96 96 96 96 96 96 96 96 96 96 96 96 96 96 96 96 96 96 96 96 96 96 96 96 96 96 96 96 96 96 96 96 96 96 96 96 96 96 96 96 96 96 96 96
96 96 96 96 96 96 96 96 96 96 96 96 96 96 96 96 96 96 96 96 96 96 96 96 96 96 96 96 96 96 96 96 96 96 96 96 96 96 96 96 96 96 96 96 96 96 96 96 96 96 96 96 96 96 96 96 96 96 96 96 96 96 96 96 96 96 96 96 96 96 96 96 96 96 96 96 96 96 96 96 96 96 96 96 96 96 96 96 96 96 96 96 96 96 96 96 96 96 96 96 96 96 96 96 96 96 96 96
96 96 96 96 96 96 96 96 96 96 96 96 96 96 96 96 96 96 96 96 96 96 96 96 96 96 96 96 96 96 96 96 96 96 96 96 96 96 96 96 96 96 96 96 96 96 96 96 96 96 96 96 96 96 96 96 96 96 96 96 96 96 96 96 96 96 96 96 96 96 96 96 96 96 96 96 96 96 96 96 96 96 96 96 96 96 96 96 96 96 96 96 96 96 96 96 96 96 96 96 96 96 96 96 96 96 96 96
96 96 96 96 96 96 96 96 96 96 96 96 96 96 96 96 96 96 96 96 96 96 96 96 96 96 96 96 96 96 96 96 96 96 96 96 96 96 96 96 96 96 96 96 96 96 96 96 96 96 96 96 96 96 96 96 96 96 96 96 96 96 96 96 96 96 96 96 96 96 96 96 96 96 96 96 96 96 96 96 96 96 96 96 96 96 96 96 96 96 96 96 96 96 96 96 96 96 96 96 96 96 96 96 96 96 96 96
96 96 96 96 96 96 96 96 96 96 96 96 96 96 96 96 96 96 96 96 96 96 96 96 96 96 96 96 96 96 96 96 96 96 96 96 96 96 96 96 96 96 96 96 96 96 96 96 96 96 96 96 96 96 96 96 96 96 96 96 96 96 96 96 96 96 96 96 96 96 96 96 96 96 96 96 96 96 96 96 96 96 96 96 96 96 96 96 96 96 96 96 96 96 96 96 96 96 96 96 96 96 96 96 96 96 96 96
96 96 96 96 96 96 96 96 96 96 96 96 96 96 96 96 96 96 96 96 96 96 96 96 96 96 96 96 96 96 96 96 96 96 96 96 96 96 96 96 96 96 96 96 96 96 96 96 96 96 96 96 96 96 96 96 96 96 96 96 96 96 96 96 96 96 96 96 96 96 96 96 96 96 96 96 96 96 96 96 96 96 96 96 96 96 96 96 96 96 96 96 96 96 96 96 96 96 96 96 96 96 96 96 96 96 96 96
96 96 96 96 96 96 96 96 96 96 96 96 96 96 96 96 96 96 96 96 96 96 96 96 96 96 96 96 96 96 96 96 96 96 96 96 96 96 96 96 96 96 96 96 96 96 96 96 96 96 96 96 96 96 96 96 96 96 96 96 96 96 96 96 96 96 96 96 96 96 96 96 96 96 96 96 96 96 96 96 96 96 96 96 96 96 96 96 96 96 96 96 96 96 96 96 96 96 96 96 96 96 96 96 96 96 96 96
96 96 96 96 96 96 96 96 96 96 96 96 96 96 96 96 96 96 96 96 96 96 96 96 96 96 96 96 96 96 96 96 96 96 96 96 96 96 96 96 96 96 96 96 96 96 96 96 96 96 96 96 96 96 96 96 96 96 96 96 96 96 96 96 96 96 96 96 96 96 96 96 96 96 96 96 96 96 96 96 96 96 96 96 96 96 96 96 96 96 96 96 96 96 96 96 96 96 96 96 96 96 96 96 96 96 96 96
96 96 96 96 96 96 96 96 96 96 96 96 96 96 96 96 96 96 96 96 96 96 96 96 96 96 96 96 96 96 96 96 96 96 96 96 96 96 96 96 96 96 96 96 96 96 96 96 96 96 96 96 96 96 96 96 96 96 96 96 96 96 96 96 96 96 96 96 96 96 96 96 96 96 96 96 96 96 96 96 96 96 96 96 96 96 96 96 96 96 96 96 96 96 96 96 96 96 96 96 96 96 96 96 96 96 96 96
96 96 96 96 96 96 96 96 96 96 96 96 96 96 96 96 96 96 96 96 96 96 96 96 96 96 96 96 96 96 96 96 96 96 96 96 96 96 96 96 96 96 96 96 96 96 96 96 96 96 96 96 96 96 96 96 96 96 96 96 96 96 96 96 96 96 96 96 96 96 96 96 96 96 96 96 96 96 96 96 96 96 96 96 96 96 96 96 96 96 96 96 96 96 96 96 96 96 96 96 96 96 96 96 96 96 96 96
96 96 96 96 96 96 96 96 96 96 96 96 96 96 96 96 96 96 96 96 96 96 96 96 96 96 96 96 96 96 96 96 96 96 96 96 96 96 96 96 96 96 96 96 96 96 96 96 96 96 96 96 96 96 96 96 96 96 96 96 96 96 96 96 96 96 96 96 96 96 96 96 96 96 96 96 96 96 96 96 96 96 96 96 96 96 96 96 96 96 96 96 96 96 96 96 96 96 96 96 96 96 96 96 96 96 96 96
96 96 96 96 96 96 96 96 96 96 96 96 96 96 96 96 96 96 96 96 96 96 96 96 96 96 96 96 96 96 96 96 96 96 96 96 96 96 96 96 96 96 96 96 96 96 96 96 96 96 96 96 96 96 96 96 96 96 96 96 96 96 96 96 96 96 96 96 96 96 96 96 96 96 96 96 96 96 96 96 96 96 96 96 96 96 96 96 96 96 96 96 96 96 96 96 96 96 96 96 96 96 96 96 96 96 96 96
96 96 96 96 96 96 96 96 96 96 96 96 96 96 96 96 96 96 96 96 96 56 64 88 96 96 96 128 160 176 112 72 72 56 64 88 96 96 96 96 96 96 96 96 96 96 96 96 96 96 96 96 96 96 96 96 96 96 96 96 96 96 96 96 96 96 96 96 96 96 96 96 64 96 96 88 120 152 128 160 176 112 72 72 64 96 96 96 96 96 96 96 96 96 96 96 96 96 96 96 96 96 96 96 96 96 96 96
96 96 96 96 96 96 96 96 96 96 96 96 96 96 96 96 96 96 96 96 96 88 128 144 96 96 96 136 160 168 80 72 72 88 128 144 96 96 96 96 96 96 96 96 96 96 96 96 96 96 96 96 96 96 96 96 96 96 96 96 96 96 96 96 96 96 96 96 96 96 96 96 64 88 96 40 40 56 136 160 168 80 72 72 64 88 96 96 96 96 96 96 96 96 96 96 96 96 96 96 96 96 96 96 96 96 96 96
96 96 96 96 96 96 96 96 96 96 96 96 96 96 96 96 96 96 96 96 96 160 176 176 96 96 96 136 160 168 112 80 72 160 176 176 96 96 96 96 96 96 96 96 96 96 96 96 96 96 96 96 96 96 96 96 96 96 96 96 96 96 96 96 96 96 96 96 96 96 96 96 96 56 96 32 32 32 136 160 168 112 80 72 96 56 96 96 96 96 96 96 96 96 96 96 96 96 96 96 96 96 96 96 96 96 96 96
96 96 96 96 96 96 96 96 96 96 96 96 96 96 96 96 96 96 72 64 80 160 152 136 160 152 136 160 152 136 176 176 184 192 136 64 112 72 72 96 96 96 96 96 96 96 96 96 96 96 96 96 96 96 96 96 96 96 96 96 96 96 96 96 96 96 96 96 96 64 96 96 192 136 64 176 176 184 160 152 136 152 144 96 152 144 96 112 72 72 88 120 152 96 96 96 96 96 96 96 96 96 96 96 96 96 96 96
96 96 96 96 96 96 96 96 96 96 96 96 96 96 96 96 96 96 80 96 112 160 168 144 160 168 144 160 168 144 176 184 184 208 208 184 80 72 72 96 96 96 96 96 96 96 96 96 96 96 96 96 96 96 96 96 96 96 96 96 96 96 96 96 96 96 96 96 96 64 88 96 208 208 184 176 184 184 160 168 144 152 152 136 152 152 136 80 72 72 40 40 56 96 96 96 96 96 96 96 96 96 96 96 96 96 96 96
96 96 96 96 96 96 96 96 96 96 96 96 96 96 96 96 96 96 136 160 144 168 168 152 168 168 152 168 168 152 184 184 184 208 208 208 112 80 72 96 96 96 96 96 96 96 96 96 96 96 96 96 96 96 96 96 96 96 96 96 96 96 96 96 96 96 96 96 96 96 56 96 208 208 208 184 184 184 168 168 152 152 152 152 152 152 152 112 80 72 32 32 32 96 96 96 96 96 96 96 96 96 96 96 96 96 96 96
96 96 96 96 96 96 96 96 96 96 96 96 96 96 96 64 96 96 144 112 112 112 72 72 80 80 80 80 80 80 128 160 176 176 176 184 184 184 184 72 64 80 96 96 96 96 96 96 96 96 96 96 96 96 96 96 96 96 96 96 96 96 96 96 96 96 56 64 88 184 184 184 176 160 152 144 112 112 96 96 96 80 80 80 88 120 152 144 112 112 112 72 72 96 96 96 96 96 96 96 96 96 96 96 96 96 96 96
96 96 96 96 96 96 96 96 96 96 96 96 96 96 96 64 88 96 152 128 104 80 72 72 216 232 232 216 232 232 136 160 168 176 184 184 192 192 184 80 96 112 96 96 96 96 96 96 96 96 96 96 96 96 96 96 96 96 96 96 96 96 96 96 96 96 88 128 144 192 192 184 168 152 144 152 128 104 96 96 96 216 232 232 40 40 56 152 128 104 80 72 72 96 96 96 96 96 96 96 96 96 96 96 96 96 96 96
96 96 96 96 96 96 96 96 96 96 96 96 96 96 96 96 56 96 152 144 112 112 80 72 240 240 240 240 240 240 136 160 168 184 184 184 192 192 192 136 160 144 96 96 96 96 96 96 96 96 96 96 96 96 96 96 96 96 96 96 96 96 96 96 96 96 160 176 176 192 192 192 160 144 128 152 144 112 96 96 96 240 240 240 32 32 32 152 144 112 112 80 72 96 96 96 96 96 96 96 96 96 96 96 96 96 96 96
96 96 96 96 96 96 96 96 96 96 96 96 88 120 152 144 112 112 88 120 152 144 112 112 104 128 144 104 128 144 144 112 112 96 96 96 176 160 152 80 80 80 64 96 96 56 64 88 56 64 88 56 64 88 56 64 88 56 64 88 56 64 88 56 64 88 176 176 184 184 184 184 152 144 96 88 120 152 144 112 112 96 96 96 128 160 176 112 72 72 144 112 112 56 64 88 96 96 96 96 96 96 96 96 96 96 96 96
96 96 96 96 96 96 96 96 96 96 96 96 40 40 56 152 128 104 40 40 56 152 128 104 32 56 96 32 56 96 152 128 104 96 96 96 168 152 144 216 232 232 64 88 96 88 128 144 88 128 144 88 128 144 88 128 144 88 128 144 88 128 144 88 128 144 176 184 184 192 192 184 152 152 136 40 40 56 152 128 104 96 96 96 136 160 168 80 72 72 152 128 104 88 128 144 96 96 96 96 96 96 96 96 96 96 96 96
96 96 96 96 96 96 96 96 96 96 96 96 32 32 32 152 144 112 32 32 32 152 144 112 8 8 8 8 8 8 152 144 112 96 96 96 160 144 128 240 240 240 96 56 96 160 176 176 160 176 176 160 176 176 160 176 176 160 176 176 160 176 176 160 176 176 184 184 184 192 192 192 152 152 152 32 32 32 152 144 112 96 96 96 136 160 168 112 80 72 152 144 112 160 176 176 96 96 96 96 96 96 96 96 96 96 96 96
96 96 96 96 96 96 96 96 96 96 96 96 64 96 96 144 112 112 144 112 112 8 8 8 24 24 24 24 24 24 8 8 8 144 112 112 160 152 136 80 80 80 80 80 80 152 144 96 72 64 80 64 96 96 64 96 96 64 96 96 64 96 96 128 160 176 184 184 184 168 168 160 112 72 72 144 112 112 8 8 8 72 64 80 8 8 8 96 96 96 104 128 144 112 72 72 96 96 96 96 96 96 96 96 96 96 96 96
96 96 96 96 96 96 96 96 96 96 96 96 64 88 96 152 128 104 152 128 104 8 8 32 24 24 24 24 24 24 8 8 32 152 128 104 160 168 144 216 232 232 216 232 232 152 152 136 80 96 112 64 88 96 64 88 96 64 88 96 64 88 96 136 160 168 192 192 184 160 160 160 80 72 72 152 128 104 8 8 32 80 96 112 8 8 32 96 96 96 32 56 96 80 72 72 96 96 96 96 96 96 96 96 96 96 96 96
96 96 96 96 96 96 96 96 96 96 96 96 96 56 96 152 144 112 152 144 112 16 8 48 24 32 56 24 32 56 16 8 48 152 144 112 168 168 152 240 240 240 240 240 240 152 152 152 136 160 144 96 56 96 96 56 96 96 56 96 96 56 96 136 160 168 192 192 192 160 160 160 112 80 72 152 144 112 16 8 48 136 160 144 16 8 48 96 96 96 8 8 8 112 80 72 96 96 96 96 96 96 96 96 96 96 96 96
96 96 96 96 96 96 96 96 96 96 96 96 96 96 96 128 160 176 128 160 176 24 24 24 200 200 200 216 208 176 24 24 24 128 160 176 128 160 176 184 184 184 168 168 160 152 144 96 136 152 160 64 96 96 64 96 96 64 96 96 64 96 96 168 168 168 184 184 184 160 152 136 144 112 112 32 32 32 24 24 24 232 232 232 32 168 184 8 8 8 152 144 96 128 160 176 96 96 96 96 96 96 96 96 96 96 96 96
96 96 96 96 96 96 96 96 96 96 96 96 96 96 96 136 160 168 136 160 168 24 24 24 200 200 200 200 168 120 24 24 24 136 160 168 136 160 168 192 192 184 160 160 160 152 152 136 96 128 128 64 88 96 64 88 96 64 88 96 64 88 96 168 168 168 192 192 184 160 168 144 152 128 104 32 32 32 32 32 32 224 224 224 112 192 192 8 8 32 152 152 136 136 160 168 96 96 96 96 96 96 96 96 96 96 96 96
96 96 96 96 96 96 96 96 96 96 96 96 96 96 96 136 160 168 136 160 168 24 32 56 200 200 200 160 136 128 24 32 56 136 160 168 136 160 168 192 192 192 160 160 160 152 152 152 96 96 96 96 56 96 96 56 96 96 56 96 96 56 96 168 168 168 192 192 192 168 168 152 152 144 112 32 24 24 32 32 32 224 224 224 192 192 208 16 8 48 152 152 152 136 160 168 96 96 96 96 96 96 96 96 96 96 96 96
96 96 96 96 96 96 96 96 96 96 96 96 112 72 72 144 112 112 96 96 96 32 32 32 56 64 88 56 64 88 32 32 32 64 96 96 144 112 112 176 176 184 176 160 152 152 144 96 144 112 112 80 80 80 72 64 80 64 96 96 144 112 112 168 168 168 176 160 152 152 144 96 160 152 136 24 24 24 32 32 32 32 168 184 32 168 184 24 24 24 160 152 136 128 160 176 88 120 152 96 96 96 96 96 96 96 96 96
96 96 96 96 96 96 96 96 96 96 96 96 80 72 72 152 128 104 96 96 96 40 40 32 88 128 144 88 128 144 32 32 32 64 88 96 152 128 104 176 184 184 168 152 144 152 152 136 152 128 104 216 232 232 80 96 112 64 88 96 152 128 104 168 168 168 168 152 144 152 152 136 160 168 144 24 24 24 40 40 32 112 192 192 112 192 192 24 24 24 160 168 144 136 160 168 40 40 56 96 96 96 96 96 96 96 96 96
96 96 96 96 96 96 96 96 96 96 96 96 112 80 72 152 144 112 96 96 96 40 32 32 160 176 176 160 176 176 32 24 24 96 56 96 152 144 112 184 184 184 160 144 128 152 152 152 152 144 112 240 240 240 136 160 144 96 56 96 152 144 112 168 168 168 160 144 128 152 152 152 168 168 152 24 32 56 40 32 32 192 192 208 192 192 208 24 32 56 168 168 152 136 160 168 32 32 32 96 96 96 96 96 96 96 96 96
96 96 96 96 96 96 96 96 96 96 96 96 96 96 96 152 144 96 128 160 176 24 24 24 32 32 32 32 32 32 32 32 32 104 128 144 168 168 160 168 168 168 176 176 184 160 152 136 160 152 136 160 152 136 168 168 168 160 152 136 160 152 136 176 176 184 168 168 160 152 144 96 168 168 160 24 24 24 32 32 32 32 32 32 32 32 32 24 24 24 168 168 160 128 160 176 88 120 152 96 96 96 96 96 96 96 96 96
96 96 96 96 96 96 96 96 96 96 96 96 96 96 96 152 152 136 136 160 168 32 32 32 32 32 32 32 32 32 32 32 32 32 56 96 160 160 160 168 168 168 176 184 184 160 168 144 160 168 144 160 168 144 168 168 168 160 168 144 160 168 144 176 184 184 160 160 160 152 152 136 160 160 160 24 24 24 32 32 32 32 32 32 32 32 32 24 24 24 160 160 160 136 160 168 40 40 56 96 96 96 96 96 96 96 96 96
96 96 96 96 96 96 96 96 96 96 96 96 96 96 96 152 152 152 136 160 168 32 32 32 32 24 24 32 24 24 32 24 24 8 8 8 160 160 160 168 168 168 184 184 184 168 168 152 168 168 152 168 168 152 168 168 168 168 168 152 168 168 152 184 184 184 160 160 160 152 152 152 160 160 160 24 32 56 32 24 24 32 24 24 32 24 24 24 32 56 160 160 160 136 160 168 32 32 32 96 96 96 96 96 96 96 96 96
96 96 96 96 96 96 96 96 96 96 96 96 88 120 152 152 144 96 184 184 184 24 24 24 24 24 24 24 24 24 24 24 24 184 184 192 160 152 136 168 168 168 176 176 184 176 176 184 176 176 184 176 176 184 176 176 184 176 176 184 176 176 184 176 176 184 168 168 160 160 152 136 192 136 64 144 112 112 24 24 24 24 24 24 24 24 24 32 168 184 192 136 64 128 160 176 96 96 96 96 96 96 96 96 96 96 96 96
96 96 96 96 96 96 96 96 96 96 96 96 40 40 56 152 152 136 192 192 184 24 24 24 24 24 24 24 24 24 24 24 24 184 192 184 160 168 144 168 168 168 176 184 184 176 184 184 176 184 184 176 184 184 176 184 184 176 184 184 176 184 184 176 184 184 160 160 160 160 168 144 208 208 184 152 128 104 24 24 24 24 24 24 24 24 24 112 192 192 208 208 184 136 160 168 96 96 96 96 96 96 96 96 96 96 96 96
96 96 96 96 96 96 96 96 96 96 96 96 32 32 32 152 152 152 192 192 192 24 32 56 24 32 56 24 32 56 24 32 56 192 192 192 168 168 152 168 168 168 184 184 184 184 184 184 184 184 184 184 184 184 184 184 184 184 184 184 184 184 184 184 184 184 160 160 160 168 168 152 208 208 208 152 144 112 24 32 56 24 32 56 24 32 56 192 192 208 208 208 208 136 160 168 96 96 96 96 96 96 96 96 96 96 96 96
96 96 96 96 96 96 96 96 96 96 96 96 136 152 160 152 144 96 208 208 208 192 136 64 32 32 32 32 32 32 184 184 192 208 208 208 168 168 168 168 168 168 176 176 184 184 184 184 184 184 184 184 184 192 192 136 64 192 136 64 184 184 184 184 184 184 176 176 184 160 152 136 160 152 136 208 208 208 112 72 72 24 24 24 64 96 96 192 136 64 160 152 136 152 144 96 88 120 152 96 96 96 96 96 96 96 96 96
96 96 96 96 96 96 96 96 96 96 96 96 96 128 128 152 152 136 168 192 208 208 208 184 32 32 32 40 40 32 184 192 184 168 192 208 168 168 168 168 168 168 176 184 184 192 192 184 192 192 184 184 192 184 208 208 184 208 208 184 192 192 184 192 192 184 176 184 184 160 168 144 160 168 144 168 192 208 80 72 72 32 32 32 64 88 96 208 208 184 160 168 144 152 152 136 40 40 56 96 96 96 96 96 96 96 96 96
96 96 96 96 96 96 96 96 96 96 96 96 96 96 96 152 152 152 136 152 160 208 208 208 32 24 24 40 32 32 192 192 192 136 152 160 168 168 168 168 168 168 184 184 184 192 192 192 192 192 192 192 192 192 208 208 208 208 208 208 192 192 192 192 192 192 184 184 184 168 168 152 168 168 152 136 152 160 112 80 72 32 32 32 96 56 96 208 208 208 168 168 152 152 152 152 32 32 32 96 96 96 96 96 96 96 96 96
96 96 96 96 96 96 96 96 96 112 72 72 152 144 96 152 144 96 160 152 136 200 200 200 208 208 208 208 208 208 200 200 200 168 168 168 168 168 168 176 176 184 184 184 192 184 184 192 192 136 64 192 136 64 192 136 64 192 136 64 192 136 64 184 184 192 184 184 184 168 168 168 168 168 168 168 168 168 208 208 208 208 208 208 216 208 176 160 152 136 160 152 136 160 152 136 152 144 96 64 96 96 96 96 96 96 96 96
96 96 96 96 96 96 96 96 96 80 72 72 152 152 136 152 152 136 160 168 144 200 200 200 168 192 208 168 192 208 200 200 200 168 168 168 168 168 168 176 184 184 184 192 184 184 192 184 208 208 184 208 208 184 208 208 184 208 208 184 208 208 184 184 192 184 192 192 184 168 168 168 168 168 168 168 168 168 168 192 208 168 192 208 200 168 120 160 168 144 160 168 144 160 168 144 152 152 136 64 88 96 96 96 96 96 96 96
96 96 96 96 96 96 96 96 96 112 80 72 152 152 152 152 152 152 168 168 152 200 200 200 136 152 160 136 152 160 200 200 200 168 168 168 168 168 168 184 184 184 192 192 192 192 192 192 208 208 208 208 208 208 208 208 208 208 208 208 208 208 208 192 192 192 192 192 192 168 168 168 168 168 168 168 168 168 136 152 160 136 152 160 160 136 128 168 168 152 168 168 152 168 168 152 152 152 152 96 56 96 96 96 96 96 96 96
96 96 96 96 96 96 96 96 96 152 144 96 160 152 136 160 152 136 160 152 136 168 168 168 168 168 168 168 168 168 168 168 168 168 168 168 176 176 184 184 184 192 192 136 64 192 136 64 200 200 200 200 200 200 200 200 200 200 200 200 200 200 200 192 136 64 192 136 64 176 176 184 168 168 168 168 168 168 168 168 168 168 168 168 168 168 160 160 152 136 160 152 136 160 152 136 160 152 136 136 152 160 96 96 96 96 96 96
96 96 96 96 96 96 96 96 96 152 152 136 160 168 144 160 168 144 160 168 144 168 168 168 168 168 168 168 168 168 168 168 168 168 168 168 176 184 184 184 192 184 208 208 184 208 208 184 200 200 200 200 200 200 200 200 200 200 200 200 200 200 200 208 208 184 208 208 184 176 184 184 168 168 168 168 168 168 168 168 168 168 168 168 160 160 160 160 168 144 160 168 144 160 168 144 160 168 144 96 128 128 96 96 96 96 96 96
96 96 96 96 96 96 96 96 96 152 152 152 168 168 152 168 168 152 168 168 152 168 168 168 168 168 168 168 168 168 168 168 168 168 168 168 184 184 184 192 192 192 208 208 208 208 208 208 200 200 200 200 200 200 200 200 200 200 200 200 200 200 200 208 208 208 208 208 208 184 184 184 168 168 168 168 168 168 168 168 168 168 168 168 160 160 160 168 168 152 168 168 152 168 168 152 168 168 152 96 96 96 96 96 96 96 96 96
96 96 96 88 120 152 152 144 96 128 160 176 72 64 80 72 64 80 64 96 96 128 160 176 168 168 168 168 168 168 168 168 168 168 168 168 176 176 184 192 136 64 192 136 64 200 200 200 200 200 200 200 200 200 200 200 200 200 200 200 200 200 200 200 200 200 192 136 64 184 184 184 176 176 184 168 168 168 168 168 160 160 152 136 160 152 136 160 152 136 160 152 136 72 64 80 80 80 80 80 80 80 96 96 96 96 96 96
96 96 96 40 40 56 152 152 136 136 160 168 80 96 112 80 96 112 64 88 96 136 160 168 168 168 168 168 168 168 168 168 168 168 168 168 176 184 184 208 208 184 208 208 184 200 200 200 200 200 200 200 200 200 200 200 200 200 200 200 200 200 200 200 200 200 208 208 184 192 192 184 176 184 184 168 168 168 160 160 160 160 168 144 160 168 144 160 168 144 160 168 144 80 96 112 216 232 232 216 232 232 96 96 96 96 96 96
96 96 96 32 32 32 152 152 152 136 160 168 136 160 144 136 160 144 96 56 96 136 160 168 168 168 168 168 168 168 168 168 168 168 168 168 184 184 184 208 208 208 208 208 208 200 200 200 200 200 200 200 200 200 200 200 200 200 200 200 200 200 200 200 200 200 208 208 208 192 192 192 184 184 184 168 168 168 160 160 160 168 168 152 168 168 152 168 168 152 168 168 152 136 160 144 240 240 240 240 240 240 96 96 96 96 96 96
96 96 96 104 128 144 160 152 136 160 152 136 72 64 80 72 64 80 72 64 80 80 80 80 168 168 168 168 168 168 168 168 168 176 176 184 176 160 152 176 176 184 200 200 200 200 200 200 200 200 200 200 200 200 200 200 200 200 200 200 200 200 200 200 200 200 200 200 200 128 160 176 184 184 184 176 176 184 168 168 168 168 168 168 168 168 168 168 168 168 160 80 72 72 64 80 72 64 80 80 80 80 72 64 80 88 120 152
96 96 96 32 56 96 160 168 144 160 168 144 80 96 112 80 96 112 80 96 112 216 232 232 168 168 168 168 168 168 168 168 168 176 184 184 168 152 144 176 184 184 200 200 200 200 200 200 200 200 200 200 200 200 200 200 200 200 200 200 200 200 200 200 200 200 200 200 200 136 160 168 192 192 184 176 184 184 168 168 168 168 168 168 168 168 168 168 168 168 160 112 72 80 96 112 80 96 112 216 232 232 80 96 112 40 40 56
96 96 96 8 8 8 168 168 152 168 168 152 136 160 144 136 160 144 136 160 144 240 240 240 168 168 168 168 168 168 168 168 168 184 184 184 160 144 128 184 184 184 200 200 200 200 200 200 200 200 200 200 200 200 200 200 200 200 200 200 200 200 200 200 200 200 200 200 200 136 160 168 192 192 192 184 184 184 168 168 168 168 168 168 168 168 168 168 168 168 168 160 112 136 160 144 136 160 144 240 240 240 136 160 144 32 32 32
96 96 96 112 72 72 104 128 144 160 152 136 160 152 136 168 168 168 168 168 168 168 168 168 168 168 168 168 168 168 168 168 168 184 184 184 72 64 80 144 112 112 200 200 200 200 200 200 200 200 200 200 200 200 200 200 200 200 200 200 200 200 200 200 200 200 200 200 200 32 32 32 184 184 184 176 176 184 168 168 168 168 168 168 112 72 72 80 80 80 168 168 160 136 152 160 80 80 80 72 64 80 72 64 80 88 120 152
96 96 96 80 72 72 32 56 96 160 168 144 160 168 144 168 168 168 168 168 168 168 168 168 168 168 168 168 168 168 168 168 168 192 192 184 80 96 112 152 128 104 200 200 200 200 200 200 200 200 200 200 200 200 200 200 200 200 200 200 200 200 200 200 200 200 200 200 200 40 40 32 192 192 184 176 184 184 168 168 168 168 168 168 80 72 72 216 232 232 160 160 160 96 128 128 216 232 232 80 96 112 80 96 112 40 40 56
96 96 96 112 80 72 8 8 8 168 168 152 168 168 152 168 168 168 168 168 168 168 168 168 168 168 168 168 168 168 168 168 168 192 192 192 136 160 144 152 144 112 200 200 200 200 200 200 200 200 200 200 200 200 200 200 200 200 200 200 200 200 200 200 200 200 200 200 200 40 32 32 192 192 192 184 184 184 168 168 168 168 168 168 112 80 72 240 240 240 160 160 160 96 96 96 240 240 240 136 160 144 136 160 144 32 32 32
96 96 96 64 96 96 72 64 80 168 168 160 160 152 136 168 168 168 168 168 168 168 168 168 168 168 168 168 168 168 176 176 184 184 184 192 208 208 208 200 200 200 200 200 200 200 200 200 200 200 200 200 200 200 200 200 200 200 200 200 200 200 200 200 200 200 200 200 200 208 208 208 192 136 64 176 176 184 168 168 168 168 168 168 168 168 160 96 96 96 72 64 80 168 168 160 160 152 136 160 152 136 160 152 136 104 128 144
96 96 96 64 88 96 80 96 112 160 160 160 160 168 144 168 168 168 168 168 168 168 168 168 168 168 168 168 168 168 176 184 184 184 192 184 168 192 208 200 200 200 200 200 200 200 200 200 200 200 200 200 200 200 200 200 200 200 200 200 200 200 200 200 200 200 200 200 200 168 192 208 208 208 184 176 184 184 168 168 168 168 168 168 160 160 160 96 96 96 80 96 112 160 160 160 160 168 144 160 168 144 160 168 144 32 56 96
96 96 96 96 56 96 136 160 144 160 160 160 168 168 152 168 168 168 168 168 168 168 168 168 168 168 168 168 168 168 184 184 184 192 192 192 136 152 160 200 200 200 200 200 200 200 200 200 200 200 200 200 200 200 200 200 200 200 200 200 200 200 200 200 200 200 200 200 200 136 152 160 208 208 208 184 184 184 168 168 168 168 168 168 160 160 160 96 96 96 136 160 144 160 160 160 168 168 152 168 168 152 168 168 152 8 8 8
96 96 96 72 64 80 80 80 80 176 176 184 168 168 168 168 168 168 168 168 168 168 168 168 168 168 168 176 176 184 184 184 184 184 184 192 192 136 64 200 200 200 200 200 200 200 200 200 200 200 200 200 200 200 200 200 200 200 200 200 200 200 200 200 200 200 200 200 200 200 200 200 192 136 64 184 184 184 176 176 184 168 168 168 168 168 168 168 168 168 168 168 168 168 168 168 168 168 168 176 176 184 160 152 136 88 120 152
96 96 96 80 96 112 216 232 232 176 184 184 168 168 168 168 168 168 168 168 168 168 168 168 168 168 168 176 184 184 192 192 184 184 192 184 208 208 184 200 200 200 200 200 200 200 200 200 200 200 200 200 200 200 200 200 200 200 200 200 200 200 200 200 200 200 200 200 200 200 200 200 208 208 184 192 192 184 176 184 184 168 168 168 168 168 168 168 168 168 168 168 168 168 168 168 168 168 168 176 184 184 160 168 144 40 40 56
96 96 96 136 160 144 240 240 240 184 184 184 168 168 168 168 168 168 168 168 168 168 168 168 168 168 168 184 184 184 192 192 192 192 192 192 208 208 208 200 200 200 200 200 200 200 200 200 200 200 200 200 200 200 200 200 200 200 200 200 200 200 200 200 200 200 200 200 200 200 200 200 208 208 208 192 192 192 184 184 184 168 168 168 168 168 168 168 168 168 168 168 168 168 168 168 168 168 168 184 184 184 168 168 152 32 32 32
96 96 96 96 96 96 192 136 64 168 168 168 184 184 192 192 136 64 176 176 184 184 184 184 184 184 184 184 184 184 184 184 192 192 136 64 192 136 64 200 200 200 208 208 208 232 224 224 200 200 200 112 72 72 56 64 88 192 136 64 232 224 224 208 208 208 200 200 200 200 200 200 192 136 64 184 184 184 176 176 184 168 168 168 168 168 168 168 168 168 168 168 168 176 176 184 192 136 64 192 136 64 184 184 184 128 160 176
96 96 96 96 96 96 208 208 184 168 168 168 184 192 184 208 208 184 176 184 184 192 192 184 192 192 184 192 192 184 184 192 184 208 208 184 208 208 184 200 200 200 168 192 208 232 224 224 200 200 200 80 72 72 88 128 144 208 208 184 232 224 224 168 192 208 200 200 200 200 200 200 208 208 184 192 192 184 176 184 184 168 168 168 168 168 168 168 168 168 168 168 168 176 184 184 208 208 184 208 208 184 192 192 184 136 160 168
96 96 96 96 96 96 208 208 208 168 168 168 192 192 192 208 208 208 184 184 184 192 192 192 192 192 192 192 192 192 192 192 192 208 208 208 208 208 208 200 200 200 136 152 160 232 232 232 200 200 200 112 80 72 160 176 176 208 208 208 232 232 232 136 152 160 200 200 200 200 200 200 208 208 208 192 192 192 184 184 184 168 168 168 168 168 168 168 168 168 168 168 168 184 184 184 208 208 208 208 208 208 192 192 192 136 160 168
96 96 96 128 160 176 208 208 208 208 208 208 152 144 96 32 168 184 32 168 184 56 64 88 88 120 152 128 160 176 128 160 176 128 160 176 96 96 96 56 64 88 56 64 88 24 24 24 24 24 24 24 24 24 24 24 24 24 24 24 24 24 24 56 64 88 88 120 152 176 176 184 200 200 200 208 208 208 200 200 200 192 136 64 192 136 64 176 160 152 104 128 144 64 96 96 208 208 208 208 208 208 168 168 160 96 96 96
96 96 96 136 160 168 168 192 208 168 192 208 152 152 136 112 192 192 112 192 192 88 128 144 40 40 56 136 160 168 136 160 168 136 160 168 96 96 96 88 128 144 88 128 144 24 24 24 24 24 24 24 24 24 24 24 24 24 24 24 32 32 32 88 128 144 40 40 56 176 184 184 200 200 200 168 192 208 200 200 200 208 208 184 208 208 184 168 152 144 32 56 96 64 88 96 168 192 208 168 192 208 160 160 160 96 96 96
96 96 96 136 160 168 136 152 160 136 152 160 152 152 152 192 192 208 192 192 208 160 176 176 32 32 32 136 160 168 136 160 168 136 160 168 96 96 96 160 176 176 160 176 176 24 32 56 24 32 56 24 32 56 24 32 56 24 32 56 32 32 32 160 176 176 32 32 32 184 184 184 200 200 200 136 152 160 200 200 200 208 208 208 208 208 208 160 144 128 8 8 8 96 56 96 136 152 160 136 152 160 160 160 160 96 96 96
96 96 96 96 96 96 152 144 96 216 208 176 216 208 176 232 224 224 232 224 224 104 128 144 24 24 24 24 24 24 24 24 24 24 24 24 32 32 32 32 32 32 32 32 32 24 24 24 24 24 24 24 24 24 24 24 24 24 24 24 24 24 24 24 24 24 32 32 32 32 32 32 32 32 32 32 32 32 24 24 24 24 24 24 24 24 24 104 128 144 232 232 232 232 224 224 232 224 224 216 208 176 112 72 72 96 96 96
96 96 96 96 96 96 152 152 136 200 168 120 200 168 120 232 224 224 232 224 224 32 56 96 32 32 32 24 24 24 24 24 24 32 32 32 32 32 32 32 32 32 32 32 32 24 24 24 32 32 32 32 32 32 32 32 32 32 32 32 32 32 32 32 32 32 32 32 32 32 32 32 32 32 32 32 32 32 24 24 24 24 24 24 32 32 32 32 56 96 224 224 224 232 224 224 232 224 224 200 168 120 80 72 72 96 96 96
96 96 96 96 96 96 152 152 152 160 136 128 160 136 128 232 232 232 232 232 232 8 8 8 32 32 32 24 32 56 24 32 56 32 32 32 32 24 24 32 24 24 32 24 24 24 32 56 32 32 32 32 32 32 32 32 32 32 32 32 32 32 32 32 32 32 32 24 24 32 24 24 32 24 24 32 24 24 24 32 56 24 32 56 32 32 32 8 8 8 224 224 224 232 232 232 232 232 232 160 136 128 112 80 72 96 96 96
96 96 96 96 96 96 88 120 152 176 176 184 216 208 176 232 224 224 232 224 224 232 232 232 232 232 232 216 208 176 96 96 96 32 32 32 32 32 32 24 24 24 32 32 32 32 32 32 32 32 32 32 168 184 32 168 184 32 168 184 32 32 32 32 32 32 32 32 32 24 24 24 32 32 32 32 32 32 96 96 96 200 200 200 232 224 224 232 224 224 232 224 224 232 224 224 216 208 176 112 72 72 96 96 96 96 96 96
96 96 96 96 96 96 40 40 56 176 184 184 200 168 120 232 224 224 232 224 224 224 224 224 224 224 224 200 168 120 96 96 96 40 40 32 32 32 32 32 32 32 32 32 32 32 32 32 40 40 32 112 192 192 112 192 192 112 192 192 40 40 32 32 32 32 32 32 32 32 32 32 40 40 32 40 40 32 96 96 96 200 200 200 232 224 224 232 224 224 232 224 224 232 224 224 200 168 120 80 72 72 96 96 96 96 96 96
96 96 96 96 96 96 32 32 32 184 184 184 160 136 128 232 232 232 232 232 232 224 224 224 224 224 224 160 136 128 96 96 96 40 32 32 32 24 24 32 32 32 32 24 24 32 24 24 40 32 32 192 192 208 192 192 208 192 192 208 40 32 32 32 24 24 32 24 24 32 32 32 40 32 32 40 32 32 96 96 96 200 200 200 232 232 232 232 232 232 232 232 232 232 232 232 160 136 128 112 80 72 96 96 96 96 96 96
96 96 96 96 96 96 96 96 96 96 96 96 168 168 168 216 208 176 216 208 176 232 224 224 232 224 224 232 232 232 232 232 232 232 232 232 232 232 232 232 232 232 168 168 160 112 72 72 80 80 80 80 80 80 80 80 80 80 80 80 80 80 80 112 72 72 168 168 168 232 232 232 232 232 232 232 232 232 232 224 224 232 224 224 232 224 224 232 232 232 232 224 224 216 208 176 128 160 176 96 96 96 96 96 96 96 96 96
96 96 96 96 96 96 96 96 96 96 96 96 168 168 168 200 168 120 200 168 120 232 224 224 232 224 224 224 224 224 224 224 224 224 224 224 224 224 224 224 224 224 160 160 160 80 72 72 216 232 232 216 232 232 216 232 232 216 232 232 216 232 232 80 72 72 168 168 168 224 224 224 224 224 224 224 224 224 232 224 224 232 224 224 232 224 224 224 224 224 232 224 224 200 168 120 136 160 168 96 96 96 96 96 96 96 96 96
96 96 96 96 96 96 96 96 96 96 96 96 168 168 168 160 136 128 160 136 128 232 232 232 232 232 232 224 224 224 224 224 224 224 224 224 224 224 224 224 224 224 160 160 160 112 80 72 240 240 240 240 240 240 240 240 240 240 240 240 240 240 240 112 80 72 168 168 168 224 224 224 224 224 224 224 224 224 232 232 232 232 232 232 232 232 232 224 224 224 232 232 232 160 136 128 136 160 168 96 96 96 96 96 96 96 96 96
96 96 96 96 96 96 96 96 96 96 96 96 96 96 96 136 152 160 208 208 208 216 208 176 216 208 176 232 224 224 232 232 232 232 232 232 232 232 232 232 232 232 232 232 232 232 232 232 232 232 232 232 232 232 232 232 232 232 232 232 232 232 232 232 232 232 232 232 232 232 232 232 232 232 232 232 232 232 232 232 232 232 224 224 232 224 224 216 208 176 208 208 208 128 160 176 96 96 96 96 96 96 96 96 96 96 96 96
96 96 96 96 96 96 96 96 96 96 96 96 96 96 96 96 128 128 168 192 208 200 168 120 200 168 120 232 224 224 224 224 224 224 224 224 224 224 224 224 224 224 224 224 224 224 224 224 224 224 224 224 224 224 224 224 224 224 224 224 224 224 224 224 224 224 224 224 224 224 224 224 224 224 224 224 224 224 224 224 224 232 224 224 232 224 224 200 168 120 168 192 208 136 160 168 96 96 96 96 96 96 96 96 96 96 96 96
96 96 96 96 96 96 96 96 96 96 96 96 96 96 96 96 96 96 136 152 160 160 136 128 160 136 128 232 232 232 224 224 224 224 224 224 224 224 224 224 224 224 224 224 224 224 224 224 224 224 224 224 224 224 224 224 224 224 224 224 224 224 224 224 224 224 224 224 224 224 224 224 224 224 224 224 224 224 224 224 224 232 232 232 232 232 232 160 136 128 136 152 160 136 160 168 96 96 96 96 96 96 96 96 96 96 96 96
96 96 96 96 96 96 96 96 96 96 96 96 96 96 96 96 96 96 128 160 176 176 176 184 208 208 208 208 208 208 216 208 176 232 224 224 232 224 224 232 224 224 232 232 232 232 232 232 232 232 232 232 232 232 232 232 232 232 232 232 232 232 232 232 232 232 232 232 232 232 232 232 232 232 232 232 224 224 216 208 176 216 208 176 208 208 208 160 152 136 96 96 96 96 96 96 96 96 96 96 96 96 96 96 96 96 96 96
96 96 96 96 96 96 96 96 96 96 96 96 96 96 96 96 96 96 136 160 168 176 184 184 168 192 208 168 192 208 200 168 120 232 224 224 232 224 224 232 224 224 224 224 224 224 224 224 224 224 224 224 224 224 224 224 224 224 224 224 224 224 224 224 224 224 224 224 224 224 224 224 224 224 224 232 224 224 200 168 120 200 168 120 168 192 208 160 168 144 96 96 96 96 96 96 96 96 96 96 96 96 96 96 96 96 96 96
96 96 96 96 96 96 96 96 96 96 96 96 96 96 96 96 96 96 136 160 168 184 184 184 136 152 160 136 152 160 160 136 128 232 232 232 232 232 232 232 232 232 224 224 224 224 224 224 224 224 224 224 224 224 224 224 224 224 224 224 224 224 224 224 224 224 224 224 224 224 224 224 224 224 224 232 232 232 160 136 128 160 136 128 136 152 160 168 168 152 96 96 96 96 96 96 96 96 96 96 96 96 96 96 96 96 96 96
96 96 96 96 96 96 96 96 96 96 96 96 96 96 96 96 96 96 96 96 96 96 96 96 128 160 176 168 168 168 208 208 208 216 208 176 216 208 176 216 208 176 232 224 224 232 224 224 232 224 224 232 224 224 232 224 224 232 224 224 232 224 224 232 224 224 232 224 224 232 224 224 216 208 176 216 208 176 216 208 176 160 152 136 88 120 152 96 96 96 96 96 96 96 96 96 96 96 96 96 96 96 96 96 96 96 96 96
96 96 96 96 96 96 96 96 96 96 96 96 96 96 96 96 96 96 96 96 96 96 96 96 136 160 168 168 168 168 168 192 208 200 168 120 200 168 120 200 168 120 232 224 224 232 224 224 232 224 224 232 224 224 232 224 224 232 224 224 232 224 224 232 224 224 232 224 224 232 224 224 200 168 120 200 168 120 200 168 120 160 168 144 40 40 56 96 96 96 96 96 96 96 96 96 96 96 96 96 96 96 96 96 96 96 96 96
96 96 96 96 96 96 96 96 96 96 96 96 96 96 96 96 96 96 96 96 96 96 96 96 136 160 168 168 168 168 136 152 160 160 136 128 160 136 128 160 136 128 232 232 232 232 232 232 232 232 232 232 232 232 232 232 232 232 232 232 232 232 232 232 232 232 232 232 232 232 232 232 160 136 128 160 136 128 160 136 128 168 168 152 32 32 32 96 96 96 96 96 96 96 96 96 96 96 96 96 96 96 96 96 96 96 96 96
96 96 96 96 96 96 96 96 96 96 96 96 96 96 96 96 96 96 96 96 96 96 96 96 96 96 96 96 96 96 96 96 96 136 152 160 168 168 168 208 208 208 208 208 208 216 208 176 216 208 176 216 208 176 216 208 176 216 208 176 216 208 176 216 208 176 216 208 176 216 208 176 176 160 152 128 160 176 96 96 96 96 96 96 96 96 96 96 96 96 96 96 96 96 96 96 96 96 96 96 96 96 96 96 96 96 96 96
96 96 96 96 96 96 96 96 96 96 96 96 96 96 96 96 96 96 96 96 96 96 96 96 96 96 96 96 96 96 96 96 96 96 128 128 168 168 168 168 192 208 168 192 208 200 168 120 200 168 120 200 168 120 200 168 120 200 168 120 200 168 120 200 168 120 200 168 120 200 168 120 168 152 144 136 160 168 96 96 96 96 96 96 96 96 96 96 96 96 96 96 96 96 96 96 96 96 96 96 96 96 96 96 96 96 96 96
96 96 96 96 96 96 96 96 96 96 96 96 96 96 96 96 96 96 96 96 96 96 96 96 96 96 96 96 96 96 96 96 96 96 96 96 168 168 168 136 152 160 136 152 160 160 136 128 160 136 128 160 136 128 160 136 128 160 136 128 160 136 128 160 136 128 160 136 128 160 136 128 160 144 128 136 160 168 96 96 96 96 96 96 96 96 96 96 96 96 96 96 96 96 96 96 96 96 96 96 96 96 96 96 96 96 96 96
96 96 96 96 96 96 96 96 96 96 96 96 96 96 96 96 96 96 96 96 96 96 96 96 96 96 96 96 96 96 96 96 96 96 96 96 96 96 96 96 96 96 128 160 176 128 160 176 152 144 96 160 152 136 160 152 136 160 152 136 152 144 96 128 160 176 128 160 176 96 96 96 96 96 96 96 96 96 96 96 96 96 96 96 96 96 96 96 96 96 96 96 96 96 96 96 96 96 96 96 96 96 96 96 96 96 96 96
96 96 96 96 96 96 96 96 96 96 96 96 96 96 96 96 96 96 96 96 96 96 96 96 96 96 96 96 96 96 96 96 96 96 96 96 96 96 96 96 96 96 136 160 168 136 160 168 152 152 136 160 168 144 160 168 144 160 168 144 152 152 136 136 160 168 136 160 168 96 96 96 96 96 96 96 96 96 96 96 96 96 96 96 96 96 96 96 96 96 96 96 96 96 96 96 96 96 96 96 96 96 96 96 96 96 96 96
96 96 96 96 96 96 96 96 96 96 96 96 96 96 96 96 96 96 96 96 96 96 96 96 96 96 96 96 96 96 96 96 96 96 96 96 96 96 96 96 96 96 136 160 168 136 160 168 152 152 152 168 168 152 168 168 152 168 168 152 152 152 152 136 160 168 136 160 168 96 96 96 96 96 96 96 96 96 96 96 96 96 96 96 96 96 96 96 96 96 96 96 96 96 96 96 96 96 96 96 96 96 96 96 96 96 96 96
96 96 96 96 96 96 96 96 96 96 96 96 96 96 96 96 96 96 96 96 96 96 96 96 96 96 96 96 96 96 96 96 96 96 96 96 96 96 96 96 96 96 96 96 96 96 96 96 96 96 96 96 96 96 96 96 96 96 96 96 96 96 96 96 96 96 96 96 96 96 96 96 96 96 96 96 96 96 96 96 96 96 96 96 96 96 96 96 96 96 96 96 96 96 96 96 96 96 96 96 96 96 96 96 96 96 96 96
96 96 96 96 96 96 96 96 96 96 96 96 96 96 96 96 96 96 96 96 96 96 96 96 96 96 96 96 96 96 96 96 96 96 96 96 96 96 96 96 96 96 96 96 96 96 96 96 96 96 96 96 96 96 96 96 96 96 96 96 96 96 96 96 96 96 96 96 96 96 96 96 96 96 96 96 96 96 96 96 96 96 96 96 96 96 96 96 96 96 96 96 96 96 96 96 96 96 96 96 96 96 96 96 96 96 96 96
96 96 96 96 96 96 96 96 96 96 96 96 96 96 96 96 96 96 96 96 96 96 96 96 96 96 96 96 96 96 96 96 96 96 96 96 96 96 96 96 96 96 96 96 96 96 96 96 96 96 96 96 96 96 96 96 96 96 96 96 96 96 96 96 96 96 96 96 96 96 96 96 96 96 96 96 96 96 96 96 96 96 96 96 96 96 96 96 96 96 96 96 96 96 96 96 96 96 96 96 96 96 96 96 96 96 96 96
96 96 96 96 96 96 96 96 96 96 96 96 96 96 96 96 96 96 96 96 96 96 96 96 96 96 96 96 96 96 96 96 96 96 96 96 96 96 96 96 96 96 96 96 96 96 96 96 96 96 96 96 96 96 96 96 96 96 96 96 96 96 96 96 96 96 96 96 96 96 96 96 96 96 96 96 96 96 96 96 96 96 96 96 96 96 96 96 96 96 96 96 96 96 96 96 96 96 96 96 96 96 96 96 96 96 96 96
96 96 96 96 96 96 96 96 96 96 96 96 96 96 96 96 96 96 96 96 96 96 96 96 96 96 96 96 96 96 96 96 96 96 96 96 96 96 96 96 96 96 96 96 96 96 96 96 96 96 96 96 96 96 96 96 96 96 96 96 96 96 96 96 96 96 96 96 96 96 96 96 96 96 96 96 96 96 96 96 96 96 96 96 96 96 96 96 96 96 96 96 96 96 96 96 96 96 96 96 96 96 96 96 96 96 96 96
96 96 96 96 96 96 96 96 96 96 96 96 96 96 96 96 96 96 96 96 96 96 96 96 96 96 96 96 96 96 96 96 96 96 96 96 96 96 96 96 96 96 96 96 96 96 96 96 96 96 96 96 96 96 96 96 96 96 96 96 96 96 96 96 96 96 96 96 96 96 96 96 96 96 96 96 96 96 96 96 96 96 96 96 96 96 96 96 96 96 96 96 96 96 96 96 96 96 96 96 96 96 96 96 96 96 96 96
96 96 96 96 96 96 96 96 96 96 96 96 96 96 96 96 96 96 96 96 96 96 96 96 96 96 96 96 96 96 96 96 96 96 96 96 96 96 96 96 96 96 96 96 96 96 96 96 96 96 96 96 96 96 96 96 96 96 96 96 96 96 96 96 96 96 96 96 96 96 96 96 96 96 96 96 96 96 96 96 96 96 96 96 96 96 96 96 96 96 96 96 96 96 96 96 96 96 96 96 96 96 96 96 96 96 96 96
96 96 96 96 96 96 96 96 96 96 96 96 96 96 96 96 96 96 96 96 96 96 96 96 96 96 96 96 96 96 96 96 96 96 96 96 96 96 96 96 96 96 96 96 96 96 96 96 96 96 96 96 96 96 96 96 96 96 96 96 96 96 96 96 96 96 96 96 96 96 96 96 96 96 96 96 96 96 96 96 96 96 96 96 96 96 96 96 96 96 96 96 96 96 96 96 96 96 96 96 96 96 96 96 96 96 96 96
96 96 96 96 96 96 96 96 96 96 96 96 96 96 96 96 96 96 96 96 96 96 96 96 96 96 96 96 96 96 96 96 96 96 96 96 96 96 96 96 96 96 96 96 96 96 96 96 96 96 96 96 96 96 96 96 96 96 96 96 96 96 96 96 96 96 96 96 96 96 96 96 96 96 96 96 96 96 96 96 96 96 96 96 96 96 96 96 96 96 96 96 96 96 96 96 96 96 96 96 96 96 96 96 96 96 96 96
96 96 96 96 96 96 96 96 96 96 96 96 96 96 96 96 96 96 96 96 96 96 96 96 96 96 96 96 96 96 96 96 96 96 96 96 96 96 96 96 96 96 96 96 96 96 96 96 96 96 96 96 96 96 96 96 96 96 96 96 96 96 96 96 96 96 96 96 96 96 96 96 96 96 96 96 96 96 96 96 96 96 96 96 96 96 96 96 96 96 96 96 96 96 96 96 96 96 96 96 96 96 96 96 96 96 96 96
96 96 96 96 96 96 96 96 96 96 96 96 96 96 96 96 96 96 96 96 96 96 96 96 96 96 96 96 96 96 96 96 96 96 96 96 96 96 96 96 96 96 96 96 96 96 96 96 96 96 96 96 96 96 96 96 96 96 96 96 96 96 96 96 96 96 96 96 96 96 96 96 96 96 96 96 96 96 96 96 96 96 96 96 96 96 96 96 96 96 96 96 96 96 96 96 96 96 96 96 96 96 96 96 96 96 96 96
96 96 96 96 96 96 96 96 96 96 96 96 96 96 96 96 96 96 96 96 96 96 96 96 96 96 96 96 96 96 96 96 96 96 96 96 96 96 96 96 96 96 96 96 96 96 96 96 96 96 96 96 96 96 96 96 96 96 96 96 96 96 96 96 96 96 96 96 96 96 96 96 96 96 96 96 96 96 96 96 96 96 96 96 96 96 96 96 96 96 96 96 96 96 96 96 96 96 96 96 96 96 96 96 96 96 96 96