P2
108 108
255
96 96 96 96 96 96 96 96 96 96 96 96 96 96 96 96 96 96 96 96 96 96 96 96 96 96 96 96 96 96 96 96 96 96 96 96 96 96 96 96 96 96 96 96 96 96 96 96 96 96 96 96 96 96 96 96 96 96 96 96 96 96 96 96 96 96 96 96 96 96 96 96 96 96 96 96 96 96 96 96 96 96 96 96 96 96 96 96 96 96 96 96 96 96 96 96 96 96 96 96 96 96 96 96 96 96 96 96
96 96 96 96 96 96 96 96 96 96 96 96 96 96 96 96 96 96 96 96 96 96 96 96 96 96 96 96 96 96 96 96 96 96 96 96 96 96 96 96 96 96 96 96 96 96 96 96 96 96 96 96 96 96 96 96 96 96 96 96 96 96 96 96 96 96 96 96 96 96 96 96 96 96 96 96 96 96 96 96 96 96 96 96 96 96 96 96 96 96 96 96 96 96 96 96 96 96 96 96 96 96 96 96 96 96 96 96
96 96 96 96 96 96 96 96 96 96 96 96 96 96 96 96 96 96 96 96 96 96 96 96 96 96 96 96 96 96 96 96 96 96 96 96 96 96 96 96 96 96 96 96 96 96 96 96 96 96 96 96 96 96 96 96 96 96 96 96 96 96 96 96 96 96 96 96 96 96 96 96 96 96 96 96 96 96 96 96 96 96 96 96 96 96 96 96 96 96 96 96 96 96 96 96 96 96 96 96 96 96 96 96 96 96 96 96
96 96 96 96 96 96 96 96 96 96 96 96 96 96 96 96 96 96 96 96 96 96 96 96 96 96 96 96 96 96 96 96 96 96 96 96 96 96 96 96 96 96 96 96 96 96 96 96 96 96 96 96 96 96 96 96 96 96 96 96 96 96 96 96 96 96 96 96 96 96 96 96 96 96 96 96 96 96 96 96 96 96 96 96 96 96 96 96 96 96 96 96 96 96 96 96 96 96 96 96 96 96 96 96 96 96 96 96
96 96 96 96 96 96 96 96 96 96 96 96 96 96 96 96 96 96 96 96 96 96 96 96 96 96 96 96 96 96 96 96 96 96 96 96 96 96 96 96 96 96 96 96 96 96 96 96 96 96 96 96 96 96 96 96 96 96 96 96 96 96 96 96 96 96 96 96 96 96 96 96 96 96 96 96 96 96 96 96 96 96 96 96 96 96 96 96 96 96 96 96 96 96 96 96 96 96 96 96 96 96 96 96 96 96 96 96
96 96 96 96 96 96 96 96 96 96 96 96 96 96 96 96 96 96 96 96 96 96 96 96 96 96 96 96 96 96 96 96 96 96 96 96 96 96 96 96 96 96 96 96 96 96 96 96 96 96 96 96 96 96 96 96 96 96 96 96 96 96 96 96 96 96 96 96 96 96 96 96 96 96 96 96 96 96 96 96 96 96 96 96 96 96 96 96 96 96 96 96 96 96 96 96 96 96 96 96 96 96 96 96 96 96 96 96
96 96 96 96 96 96 96 96 96 96 96 96 96 96 96 96 96 96 96 96 96 96 96 96 96 96 96 96 96 96 96 96 96 96 96 96 96 96 96 96 96 96 96 96 96 96 96 96 96 96 96 96 96 96 96 96 96 96 96 96 96 96 96 96 96 96 96 96 96 96 96 96 96 96 96 96 96 96 96 96 96 96 96 96 96 96 96 96 96 96 96 96 96 96 96 96 96 96 96 96 96 96 96 96 96 96 96 96
96 96 96 96 96 96 96 96 96 96 96 96 96 96 96 96 96 96 96 96 96 96 96 96 96 96 96 96 96 96 96 96 96 96 96 96 96 96 96 96 96 96 96 96 96 96 96 96 96 96 96 96 96 96 96 96 96 96 96 96 96 96 96 96 96 96 96 96 96 96 96 96 96 96 96 96 96 96 96 96 96 96 96 96 96 96 96 96 96 96 96 96 96 96 96 96 96 96 96 96 96 96 96 96 96 96 96 96
96 96 96 96 96 96 96 96 96 96 96 96 96 96 96 96 96 96 96 96 96 96 96 96 96 96 96 96 96 96 96 96 96 96 96 96 96 96 96 96 96 96 96 96 96 96 96 96 96 96 96 96 96 96 96 96 96 96 96 96 96 96 96 96 96 96 96 96 96 96 96 96 96 96 96 96 96 96 96 96 96 96 96 96 96 96 96 96 96 96 96 96 96 96 96 96 96 96 96 96 96 96 96 96 96 96 96 96
96 96 96 96 96 96 96 96 96 96 96 96 96 96 96 96 96 96 96 96 96 96 96 96 96 96 96 96 96 96 96 96 96 96 96 96 96 96 96 96 96 96 96 96 96 96 96 96 96 96 96 96 96 96 96 96 96 96 96 96 96 96 96 96 96 96 96 96 96 96 96 96 96 96 96 96 96 96 96 96 96 96 96 96 96 96 96 96 96 96 96 96 96 96 96 96 96 96 96 96 96 96 96 96 96 96 96 96
96 96 96 96 96 96 96 96 96 96 96 96 96 96 96 96 96 96 96 96 96 96 96 96 96 96 96 96 96 96 96 96 96 96 96 96 96 96 96 96 96 96 96 96 96 96 96 96 96 96 96 96 96 96 96 96 96 96 96 96 96 96 96 96 96 96 96 96 96 96 96 96 96 96 96 96 96 96 96 96 96 96 96 96 96 96 96 96 96 96 96 96 96 96 96 96 96 96 96 96 96 96 96 96 96 96 96 96
96 96 96 96 96 96 96 96 96 96 96 96 96 96 96 96 96 96 96 96 96 96 96 96 96 96 96 96 96 96 96 96 96 96 96 96 96 96 96 96 96 96 96 96 96 96 96 96 96 96 96 96 96 96 96 96 96 96 96 96 96 96 96 96 96 96 96 96 96 96 96 96 96 96 96 96 96 96 96 96 96 96 96 96 96 96 96 96 96 96 96 96 96 96 96 96 96 96 96 96 96 96 96 96 96 96 96 96
96 96 96 96 96 96 96 96 96 96 96 96 96 96 96 96 96 96 96 96 96 96 96 96 96 96 96 96 96 96 96 96 96 96 96 96 96 96 96 96 96 96 96 96 96 96 96 96 96 96 96 96 96 96 96 96 96 96 96 96 96 96 96 96 96 96 96 96 96 96 96 96 96 96 96 96 96 96 96 96 96 96 96 96 96 96 96 96 96 96 96 96 96 96 96 96 96 96 96 96 96 96 96 96 96 96 96 96
96 96 96 96 96 96 96 96 96 96 96 96 96 96 96 96 96 96 96 96 96 96 96 96 96 96 96 96 96 96 96 96 96 96 96 96 96 96 96 96 96 96 96 96 96 96 96 96 96 96 96 96 96 96 96 96 96 96 96 96 96 96 96 96 96 96 96 96 96 96 96 96 96 96 96 96 96 96 96 96 96 96 96 96 96 96 96 96 96 96 96 96 96 96 96 96 96 96 96 96 96 96 96 96 96 96 96 96
96 96 96 96 96 96 96 96 96 96 96 96 96 96 96 96 96 96 96 96 96 96 96 88 88 96 96 88 96 96 88 96 96 96 96 96 96 96 96 96 96 96 96 96 96 96 96 96 96 96 96 96 96 96 96 96 96 96 96 96 96 96 96 96 96 96 96 96 96 96 96 96 96 96 88 88 96 96 88 96 96 88 96 96 88 96 96 96 96 96 96 96 96 96 96 96 96 96 96 96 96 96 96 96 96 96 96 96
96 96 96 96 96 96 96 96 96 96 96 96 96 96 96 96 96 96 96 96 96 56 64 88 96 120 152 128 128 152 112 72 72 56 64 88 96 96 96 96 96 96 96 96 96 96 96 96 96 96 96 96 96 96 96 96 96 96 96 96 96 96 96 96 96 96 96 96 96 96 96 96 64 64 72 88 120 136 128 128 152 112 72 72 64 64 72 96 96 96 96 96 96 96 96 96 96 96 96 96 96 96 96 96 96 96 96 96
96 96 96 96 96 96 96 96 96 96 96 96 96 96 96 96 96 96 96 96 96 88 128 144 112 144 144 96 96 128 80 72 72 88 128 144 96 96 96 96 96 96 96 96 96 96 96 96 96 96 96 96 96 96 96 96 96 96 96 96 96 96 96 96 96 96 96 96 96 96 96 96 64 64 80 96 88 128 96 96 128 80 72 72 64 64 80 96 96 96 96 96 96 96 96 96 96 96 96 96 96 96 96 96 96 96 96 96
96 96 96 96 96 96 96 96 96 96 96 96 96 96 96 96 96 88 88 96 96 160 176 176 136 152 152 96 96 96 112 80 72 160 176 176 88 96 96 96 96 96 96 96 96 96 96 96 96 96 96 96 96 96 96 96 96 96 96 96 96 96 96 96 96 96 96 96 96 88 96 96 64 72 104 96 96 88 96 96 96 112 80 72 64 72 104 88 96 96 96 96 96 96 96 96 96 96 96 96 96 96 96 96 96 96 96 96
96 96 96 96 96 96 96 96 96 96 96 96 96 96 96 96 88 56 72 64 80 160 160 160 160 160 160 160 168 168 176 176 184 192 184 168 112 72 72 96 96 96 96 96 96 96 96 96 96 96 96 96 96 96 96 96 96 96 96 96 96 96 96 96 96 96 96 96 96 64 96 96 192 192 192 176 176 176 160 160 160 152 152 152 152 152 152 120 64 88 88 96 104 96 96 96 96 96 96 96 96 96 96 96 96 96 96 96
96 96 96 96 96 96 96 96 96 96 96 96 96 96 96 88 56 88 80 96 112 152 152 152 152 152 152 168 168 168 176 184 184 192 192 184 80 72 72 96 96 96 96 96 96 96 96 96 96 96 96 96 96 96 96 96 96 96 96 96 96 96 96 96 96 96 96 96 96 64 88 96 200 200 208 184 184 176 152 152 152 152 152 144 152 152 144 128 72 64 40 40 40 96 96 96 96 96 96 96 96 96 96 96 96 96 96 96
96 96 96 96 96 96 96 96 96 96 96 96 96 96 96 56 72 136 136 160 144 120 112 112 120 112 112 176 176 176 184 184 184 176 192 192 112 80 72 88 96 96 96 96 96 96 96 96 96 96 96 96 96 96 96 96 96 96 96 96 96 96 96 96 96 96 88 96 96 96 56 96 200 200 200 184 176 176 120 112 112 152 120 96 152 120 96 128 88 56 24 24 24 96 96 96 96 96 96 96 96 96 96 96 96 96 96 96
96 96 96 96 96 96 96 96 96 96 96 96 96 96 96 64 136 192 144 144 144 120 96 88 80 80 80 80 80 80 128 160 176 176 176 184 184 168 32 72 64 80 96 96 96 96 96 96 96 96 96 96 96 96 96 96 96 96 96 96 96 96 96 96 96 96 56 64 88 184 184 184 176 160 152 144 128 104 96 88 56 80 80 80 88 96 128 144 144 144 120 64 88 96 96 96 96 96 96 96 96 96 96 96 96 96 96 96
96 96 96 96 96 96 96 96 96 96 96 96 96 96 96 184 208 208 120 144 144 72 80 88 216 232 232 216 232 232 136 160 168 176 184 184 192 184 112 80 96 112 96 96 96 96 96 96 96 96 96 96 96 96 96 96 96 96 96 96 96 96 96 96 96 96 88 128 144 184 184 184 168 152 144 96 56 32 88 56 88 216 232 232 56 96 144 120 144 144 128 72 64 96 96 96 96 96 96 96 96 96 96 96 96 96 96 96
96 96 96 96 96 96 96 96 96 96 96 96 88 96 96 208 208 216 88 96 136 104 128 144 240 240 240 240 240 240 136 160 168 184 184 184 208 192 184 136 160 144 88 96 96 96 96 96 96 96 96 96 96 96 96 96 96 96 96 96 96 96 96 88 96 96 160 176 176 184 184 168 160 144 128 8 8 8 56 72 136 240 240 240 96 128 152 88 96 136 128 88 56 88 96 96 96 96 96 96 96 96 96 96 96 96 96 96
96 96 96 96 96 96 96 96 96 96 96 96 88 64 112 144 144 144 88 88 96 144 144 128 104 104 96 104 128 144 144 128 104 96 120 152 176 160 152 80 80 80 64 64 72 56 56 56 56 56 56 56 56 56 56 56 56 56 56 56 56 56 56 56 64 88 176 176 184 184 176 160 152 144 96 88 128 144 144 128 104 96 96 104 128 128 152 112 72 72 144 128 104 56 64 88 96 96 96 96 96 96 96 96 96 96 96 96
96 96 96 96 96 96 96 96 96 96 96 96 56 72 144 120 144 144 88 56 96 144 152 152 104 104 96 32 56 96 96 56 32 112 144 144 168 152 144 216 232 232 64 64 80 64 64 64 64 64 64 64 64 64 64 64 64 64 64 64 64 64 64 88 128 144 176 184 184 184 168 160 152 152 136 128 144 128 96 56 32 96 88 96 96 96 128 80 72 72 96 56 32 88 128 144 96 96 96 96 96 96 96 96 96 96 96 96
96 96 96 96 96 96 96 96 96 96 96 88 56 96 144 88 96 136 136 96 64 152 152 152 104 64 96 8 8 8 8 8 8 136 152 152 160 144 128 240 240 240 64 72 104 72 72 72 72 72 72 72 72 72 72 72 72 72 72 72 72 72 72 160 176 176 184 184 184 176 160 152 152 152 152 144 128 72 8 8 8 96 104 104 96 96 96 112 80 72 8 8 8 160 176 176 96 96 96 96 96 96 96 96 96 96 96 96
96 96 96 96 96 96 96 96 96 96 96 96 64 136 192 144 112 112 144 144 128 8 8 8 16 24 24 24 24 24 8 88 144 144 112 112 160 168 168 80 80 80 80 80 80 152 152 152 72 64 80 64 64 72 64 64 72 64 64 72 64 64 72 128 160 176 184 184 184 168 160 160 112 112 144 144 112 112 8 8 8 72 64 80 8 8 8 96 120 152 104 128 144 120 64 88 96 96 96 96 96 96 96 96 96 96 96 96
96 96 96 96 96 96 96 96 96 96 96 96 184 208 208 152 128 104 144 152 152 8 8 32 24 16 24 24 24 16 8 32 112 152 128 104 168 168 168 216 232 232 216 232 232 152 152 144 80 96 112 64 64 80 64 64 80 64 64 80 64 64 80 136 160 168 184 184 184 168 160 160 248 240 240 152 128 104 8 8 32 80 96 112 8 8 32 112 144 144 32 56 96 128 72 64 96 96 96 96 96 96 96 96 96 96 96 96
96 96 96 96 96 96 96 96 96 88 96 96 208 208 216 152 144 112 152 152 152 16 8 48 112 32 8 16 16 24 16 8 56 152 144 112 176 176 176 240 240 240 240 240 240 152 120 96 136 160 144 64 72 104 64 72 104 64 72 104 64 72 104 136 160 168 184 184 168 168 160 160 240 240 240 152 144 112 16 8 48 136 160 144 16 8 48 136 152 152 8 8 8 128 88 56 96 96 96 96 96 96 96 96 96 96 96 96
96 96 96 96 96 96 96 96 96 96 88 56 96 120 152 128 128 152 128 120 88 24 24 24 200 200 200 216 216 216 24 24 24 128 160 176 128 160 176 184 184 184 168 160 160 152 152 152 136 152 160 64 64 72 64 72 72 64 64 72 64 72 72 168 176 200 184 176 160 160 136 120 144 144 144 32 24 24 24 32 32 248 248 248 32 168 184 8 8 8 152 144 96 128 120 88 96 96 96 96 96 96 96 96 96 96 96 96
96 96 96 96 96 96 96 96 96 88 56 88 112 144 144 96 96 128 96 96 96 24 24 16 200 200 200 216 216 216 24 24 16 136 160 168 136 160 168 184 184 184 168 160 160 152 152 144 96 128 128 64 64 80 64 72 72 64 64 80 64 72 72 128 136 160 184 168 160 128 88 96 120 144 144 24 24 24 24 32 32 240 240 240 112 192 192 8 8 32 152 152 136 96 96 96 96 96 96 96 96 96 96 96 96 96 96 96
96 96 96 96 96 96 96 96 96 56 72 136 136 152 152 96 96 96 96 96 96 16 16 24 200 200 200 216 208 192 16 16 24 136 160 168 136 160 168 184 184 168 168 160 160 152 120 96 96 96 96 64 72 104 64 72 80 64 72 104 64 72 80 96 88 120 176 160 152 96 96 96 88 96 136 24 24 24 24 24 24 232 232 240 192 192 208 16 8 48 152 152 152 96 96 96 88 96 96 96 96 96 96 96 96 96 96 96
96 96 96 96 96 96 96 96 96 96 88 56 112 136 136 144 160 168 96 88 56 32 32 40 56 40 40 56 40 40 32 24 24 64 136 192 144 160 168 176 176 176 176 160 152 152 144 96 144 144 128 80 80 80 72 64 80 64 72 72 144 160 168 168 176 200 176 160 152 152 144 96 160 160 160 16 24 24 32 40 48 32 168 184 32 168 184 24 24 24 160 152 136 128 120 88 88 96 104 96 96 96 96 96 96 96 96 96
96 96 96 96 96 96 96 96 96 88 56 88 112 136 136 152 160 160 88 56 88 32 32 40 24 24 24 24 24 24 24 24 24 184 208 208 152 160 160 184 184 176 168 152 144 152 152 136 144 152 152 216 232 232 80 96 112 64 72 72 152 160 160 128 136 160 168 152 144 152 152 136 152 152 152 24 16 24 32 40 48 112 192 192 112 192 192 24 24 16 160 168 144 96 96 96 40 40 40 96 96 96 96 96 96 96 96 96
96 96 96 96 96 96 96 96 96 56 72 136 112 136 136 152 160 160 56 72 136 32 32 32 32 32 32 32 32 32 24 24 24 208 208 216 152 160 160 184 176 176 160 144 128 152 152 152 152 152 152 240 240 240 136 160 144 64 72 80 152 160 160 96 88 120 160 144 128 152 152 152 120 112 112 112 32 8 32 32 40 192 192 208 192 192 208 16 16 24 168 168 152 96 96 96 24 24 24 96 96 96 96 96 96 96 96 96
96 96 96 96 96 96 96 96 96 96 88 56 96 120 152 152 152 152 128 120 88 24 32 32 32 32 32 32 32 32 32 24 24 104 128 144 168 160 160 168 176 200 176 176 176 160 160 160 160 160 160 160 168 168 168 168 168 160 160 160 160 168 168 176 176 176 168 168 160 152 152 152 168 168 160 16 16 128 32 32 32 32 32 32 32 32 32 16 16 128 168 168 160 128 120 88 88 96 104 96 96 96 96 96 96 96 96 96
96 96 96 96 96 96 96 96 96 88 56 88 112 144 144 152 160 152 96 96 96 24 32 32 32 32 32 32 32 32 24 24 24 32 56 96 168 160 160 128 136 160 184 184 176 168 160 160 168 168 160 168 168 168 168 168 168 168 168 160 168 168 168 184 184 176 168 168 160 152 152 144 136 168 168 16 32 160 32 32 32 32 32 32 32 32 32 16 32 160 136 168 168 96 96 96 40 40 40 96 96 96 96 96 96 96 96 96
96 96 96 96 96 96 96 96 96 56 72 136 136 152 152 160 160 160 96 96 96 24 24 24 24 32 32 24 32 32 24 24 24 8 8 8 168 160 160 96 88 120 184 176 176 168 168 168 176 168 168 176 176 176 176 168 176 176 168 168 176 176 176 184 176 176 168 168 160 152 120 96 80 136 168 16 96 184 24 32 32 32 24 24 24 32 32 16 96 184 80 136 168 96 96 96 24 24 24 96 96 96 96 96 96 96 96 96
96 96 96 96 96 96 96 96 96 96 96 96 88 128 144 152 152 152 184 168 32 16 24 24 24 24 24 24 24 24 16 24 24 184 184 192 160 160 160 168 168 176 176 176 176 176 176 176 176 176 176 176 176 176 176 176 176 176 176 176 176 176 176 176 176 176 168 168 160 160 152 136 192 184 184 144 112 112 24 24 24 24 24 24 24 24 24 32 168 184 192 168 168 128 120 88 96 96 96 96 96 96 96 96 96 96 96 96
96 96 96 96 96 96 96 96 96 96 96 96 128 144 128 152 160 152 192 184 112 24 16 24 24 24 24 24 24 16 24 16 24 192 200 176 160 160 160 168 168 176 184 184 176 184 184 176 184 184 176 184 184 176 184 184 176 184 184 176 184 184 176 184 184 176 168 168 160 160 168 144 192 184 184 152 128 104 24 24 16 24 24 24 24 24 16 112 192 192 152 104 136 96 96 96 96 96 96 96 96 96 96 96 96 96 96 96
96 96 96 96 96 96 96 96 96 88 96 96 144 128 72 160 160 160 208 192 184 112 32 8 24 32 56 16 16 24 112 32 8 208 192 168 160 160 168 168 168 176 184 176 176 184 176 176 184 176 176 184 176 176 184 176 176 184 176 176 184 176 176 184 176 176 168 168 160 168 168 152 192 184 184 152 144 112 16 16 24 24 32 56 16 16 24 192 192 208 104 144 200 96 96 96 88 96 96 96 96 96 96 96 96 96 96 96
96 96 96 96 96 96 96 96 96 96 88 56 136 152 160 152 152 152 208 208 200 192 136 64 32 24 24 32 40 48 184 192 192 208 208 200 168 168 168 168 176 200 176 176 184 184 184 184 184 184 184 184 192 192 192 192 192 192 192 184 184 184 184 184 176 160 176 176 176 160 160 160 160 168 168 208 208 200 112 72 72 24 24 40 64 136 192 192 192 192 160 152 136 152 144 96 88 88 96 96 96 96 96 96 96 96 96 96
96 96 96 96 96 96 96 96 96 88 56 88 96 128 128 152 160 152 200 200 192 208 208 184 24 24 24 32 40 48 184 192 192 200 200 192 168 168 168 128 136 160 176 184 184 184 184 184 184 192 192 184 192 192 200 200 208 192 192 184 192 192 184 184 168 160 184 184 176 168 160 160 168 168 168 200 200 192 80 72 72 24 24 24 184 208 208 200 200 208 160 168 144 152 152 136 88 56 96 96 96 96 96 96 96 96 96 96
96 96 96 96 96 96 96 96 88 56 72 136 96 96 96 160 160 160 200 192 192 208 208 208 24 24 24 32 32 40 192 192 192 200 192 192 168 168 168 96 88 120 184 184 184 184 184 168 192 192 192 192 192 192 200 200 200 192 192 184 192 192 192 176 160 152 184 176 176 168 168 168 176 176 176 200 192 192 112 80 72 32 32 32 208 208 216 200 200 200 168 168 152 152 152 152 136 96 64 96 96 96 96 96 96 96 96 96
96 96 96 96 96 96 96 88 112 112 136 136 152 152 152 152 152 152 160 160 160 200 200 200 208 208 208 208 208 216 200 176 168 168 168 168 168 168 176 176 176 184 184 184 192 184 192 192 192 192 192 192 192 192 192 192 192 192 192 192 192 192 192 184 192 192 184 176 160 168 168 168 168 168 168 168 176 200 208 208 216 208 208 216 216 208 176 160 160 160 160 160 160 160 160 160 152 144 96 64 96 96 96 96 96 96 96 96
96 96 96 96 96 96 96 96 96 112 136 136 152 152 144 152 160 152 168 168 160 200 200 200 168 192 208 200 200 200 168 168 168 168 168 168 168 168 176 176 184 184 184 192 184 184 192 192 200 200 208 200 200 208 200 200 208 200 200 208 200 200 208 184 192 192 184 168 160 168 168 168 168 168 168 128 136 160 200 200 200 200 200 200 200 168 120 160 160 160 160 160 160 152 152 152 152 152 136 64 88 96 96 96 96 96 96 96
96 96 96 96 96 96 96 96 96 112 136 136 152 120 96 160 160 160 176 168 168 200 200 200 136 152 160 160 160 160 168 168 168 168 168 168 168 168 176 184 184 184 192 192 192 192 192 192 200 200 200 200 200 200 200 200 200 200 200 200 200 200 200 192 192 192 176 160 152 176 168 176 168 168 168 96 88 120 160 160 160 160 160 160 160 136 128 160 160 160 160 160 160 120 112 112 152 152 152 96 56 96 96 96 96 96 96 96
96 96 96 96 96 96 96 120 152 152 152 152 160 160 160 160 160 160 160 160 160 168 168 168 168 168 168 168 168 168 168 168 168 168 168 168 176 176 176 184 192 192 192 192 192 192 192 192 200 200 200 200 200 200 200 200 200 200 200 200 200 200 200 192 192 192 192 192 184 176 176 176 168 168 168 168 168 168 168 168 168 168 168 168 168 168 160 160 160 160 160 160 160 160 168 168 160 152 136 136 152 160 96 96 96 96 96 96
96 96 96 96 96 96 112 144 144 152 152 144 152 152 152 152 152 152 168 168 160 168 168 168 168 168 168 168 168 168 168 168 168 168 168 168 184 184 176 184 192 192 200 200 208 200 200 208 200 200 200 200 200 200 200 200 200 200 200 200 200 200 200 200 200 208 192 192 184 184 184 176 168 168 168 168 168 168 168 168 168 168 168 168 160 160 160 160 160 160 160 160 160 168 168 168 160 168 144 96 128 128 96 96 96 96 96 96
96 96 96 88 96 96 136 152 152 152 120 96 120 112 112 120 112 112 176 168 168 168 168 168 168 168 168 168 168 168 168 168 168 176 168 176 184 176 176 192 192 192 200 200 200 200 200 200 200 200 200 200 200 200 200 200 200 200 200 200 200 200 200 200 200 200 192 192 184 184 176 176 176 168 176 168 168 168 168 168 168 168 168 168 160 160 160 160 160 160 160 160 144 176 176 176 168 168 152 96 96 96 88 96 96 96 96 96
96 96 96 88 96 128 152 152 152 128 120 88 72 64 80 72 64 80 64 72 72 128 160 176 168 168 168 168 168 168 168 168 168 168 176 200 176 176 184 192 192 192 192 192 192 200 200 200 200 200 200 200 200 200 200 200 200 200 200 200 200 200 200 200 200 192 192 192 184 184 184 184 176 176 176 168 168 168 168 160 160 160 160 160 160 160 160 160 160 160 160 136 120 72 64 80 80 80 80 80 80 80 96 88 112 96 96 96
96 96 96 56 96 144 152 160 152 96 96 96 80 96 112 80 96 112 64 72 72 136 160 168 168 168 168 168 168 168 168 168 168 128 136 160 176 184 184 200 200 208 200 200 208 200 200 200 200 200 200 200 200 200 200 200 200 200 200 200 200 200 200 200 200 200 192 192 184 192 192 184 184 184 176 168 168 168 168 168 168 160 160 160 160 160 160 160 160 160 128 88 96 80 96 112 216 232 232 216 232 232 96 96 96 96 96 96
96 96 88 96 128 152 160 160 160 96 96 96 136 160 144 136 160 144 64 72 80 136 160 168 168 168 168 168 168 168 168 168 168 96 88 120 184 184 184 200 200 200 200 200 200 200 200 200 200 200 200 200 200 200 200 200 200 200 200 200 200 200 200 200 200 200 192 192 184 192 192 192 184 176 176 176 168 176 168 168 168 168 160 160 168 160 160 160 160 160 96 96 96 136 160 144 240 240 240 240 240 240 96 96 96 96 96 96
96 96 104 104 128 144 160 160 160 160 136 120 72 64 80 72 64 80 72 64 80 80 144 176 168 168 168 168 168 168 168 168 176 176 176 176 176 160 152 176 176 184 200 200 200 200 200 200 200 200 200 200 200 200 200 200 200 200 200 200 200 200 200 200 200 200 200 176 168 128 160 176 184 176 160 176 176 176 168 168 168 168 168 168 168 168 168 168 168 168 160 80 72 72 64 80 72 64 80 80 80 80 72 64 80 88 96 104
96 88 96 32 56 96 160 160 160 128 88 96 80 96 112 80 96 112 80 96 112 112 176 184 168 168 168 168 168 168 168 168 176 184 184 176 168 152 144 176 184 184 200 200 200 200 200 200 200 200 200 200 200 200 200 200 200 200 200 200 200 200 200 200 200 200 168 168 168 136 160 168 184 168 160 184 184 176 168 168 168 168 168 168 168 168 168 168 168 168 160 112 72 80 96 112 80 96 112 216 232 232 80 96 112 40 40 40
96 104 104 8 8 8 160 160 144 96 96 96 136 160 144 136 160 144 136 160 144 160 192 192 168 168 168 168 168 168 168 168 176 184 176 176 160 144 128 184 184 184 200 200 200 200 200 200 200 200 200 200 200 200 200 200 200 200 200 200 200 200 200 200 200 200 168 168 168 136 160 168 176 160 152 184 176 176 168 168 168 168 168 168 168 168 168 168 168 168 168 160 112 136 160 144 136 160 144 240 240 240 136 160 144 24 24 24
96 120 152 112 112 144 104 104 96 160 160 160 160 160 160 168 168 168 168 168 168 168 168 168 168 168 168 168 168 168 168 176 200 184 184 184 72 64 80 144 200 200 200 200 200 200 200 200 200 200 200 200 200 200 200 200 200 200 200 200 200 200 200 200 200 200 200 200 192 32 32 40 184 184 184 176 176 176 168 168 168 168 168 168 112 72 72 80 144 176 168 168 160 136 152 160 80 80 80 72 64 80 72 64 80 88 88 96
112 144 144 248 240 240 104 104 96 160 160 160 160 160 160 168 168 168 168 168 168 168 168 168 168 168 168 168 168 168 128 136 160 184 184 184 80 96 112 176 200 200 200 200 200 200 200 200 200 200 200 200 200 200 200 200 200 200 200 200 200 200 200 200 200 200 200 200 200 32 32 40 192 192 184 184 184 176 168 168 168 168 168 168 80 72 72 112 176 184 136 168 168 96 128 128 216 232 232 80 96 112 80 96 112 88 56 96
136 152 152 240 240 240 104 64 96 160 160 160 160 160 160 168 168 168 168 168 168 168 168 168 168 168 168 168 168 168 96 88 120 184 184 168 136 160 144 208 200 200 200 200 200 200 200 200 200 200 200 200 200 200 200 200 200 200 200 200 200 200 200 200 200 200 200 200 200 32 32 32 192 192 192 184 176 176 168 168 168 168 168 168 112 80 72 160 192 192 80 136 168 96 96 96 240 240 240 136 160 144 136 160 144 136 96 64
96 96 96 64 72 72 72 64 80 168 160 160 160 160 160 168 168 168 168 168 168 168 168 168 168 168 168 168 168 176 176 176 184 184 184 192 208 208 208 200 200 200 200 200 200 200 200 200 200 200 200 200 200 200 200 200 200 200 200 200 200 200 200 200 200 200 200 200 200 208 208 200 192 184 184 176 176 176 168 168 168 168 168 168 168 136 112 96 88 56 72 64 80 168 168 160 160 160 160 160 160 160 160 160 160 104 104 96
96 96 96 64 72 72 80 96 112 168 168 168 168 168 160 168 168 168 168 168 168 168 168 168 168 168 168 168 168 176 176 184 184 184 192 184 168 192 208 200 200 200 200 200 200 200 200 200 200 200 200 200 200 200 200 200 200 200 200 200 200 200 200 200 200 200 200 200 200 200 200 192 192 184 184 184 184 176 168 168 168 168 168 168 168 168 168 88 56 88 80 96 112 168 168 160 160 160 160 168 168 160 152 152 152 104 104 96
88 96 96 64 72 80 136 160 144 168 168 168 176 168 168 168 168 168 168 168 168 168 168 168 168 168 168 168 168 176 184 184 184 192 192 192 136 152 160 200 200 200 200 200 200 200 200 200 200 200 200 200 200 200 200 200 200 200 200 200 200 200 200 200 200 200 200 200 200 200 192 192 192 184 184 184 176 176 176 168 176 168 168 168 168 168 168 56 72 136 136 160 144 168 168 160 168 160 160 176 168 168 120 112 112 104 64 96
96 120 152 72 64 80 80 144 176 176 176 176 168 168 168 168 168 168 168 168 168 168 168 168 168 168 168 176 176 176 184 184 184 184 192 192 192 192 192 200 200 200 200 200 200 200 200 200 200 200 200 200 200 200 200 200 200 200 200 200 200 200 200 200 200 200 200 200 200 200 200 192 192 184 184 184 184 184 176 176 176 168 168 168 168 168 168 168 168 168 168 168 168 168 168 168 168 168 168 176 176 176 160 160 160 88 88 96
112 144 144 80 96 112 112 176 184 184 184 176 168 168 168 168 168 168 168 168 168 168 168 168 168 168 168 184 184 176 184 184 184 184 192 192 200 200 208 200 200 200 200 200 200 200 200 200 200 200 200 200 200 200 200 200 200 200 200 200 200 200 200 200 200 200 200 200 200 200 200 200 192 184 184 184 184 184 184 184 176 168 168 168 168 168 168 168 168 168 168 168 168 168 168 168 168 168 168 184 184 176 152 152 152 88 56 96
136 152 152 136 160 144 160 192 192 184 176 176 176 168 176 176 168 176 176 168 176 168 168 168 176 168 176 184 176 176 184 184 168 192 192 192 200 200 200 200 200 200 200 200 200 200 200 200 200 200 200 200 200 200 200 200 200 200 200 200 200 200 200 200 200 200 200 200 200 200 200 200 192 184 184 184 184 168 184 176 176 168 168 168 168 168 168 168 168 168 168 168 168 168 168 168 176 168 176 184 176 176 120 112 112 136 96 64
96 88 112 96 88 56 192 192 192 168 168 168 184 184 192 192 192 184 176 176 184 184 184 184 184 184 184 184 184 184 184 184 192 192 192 192 192 192 192 200 200 200 208 224 208 224 224 224 200 200 192 120 64 88 56 64 88 192 192 192 224 224 224 208 208 200 200 200 200 200 200 192 192 192 192 184 184 184 176 176 176 168 168 168 168 168 168 168 168 168 168 176 200 176 176 184 192 168 168 192 192 192 184 168 32 128 120 88
96 96 96 88 56 88 200 200 208 168 168 168 184 192 184 168 168 184 176 184 184 192 192 184 192 192 184 192 192 184 192 200 176 200 200 208 200 200 208 200 200 200 216 216 224 224 224 224 200 200 200 128 72 64 88 128 144 200 200 208 224 224 224 200 200 192 200 200 200 200 200 200 200 200 208 192 192 184 184 184 176 168 168 168 168 168 168 168 168 168 128 136 160 176 184 184 152 104 136 200 200 208 192 184 112 96 96 96
96 96 96 56 72 136 200 200 200 168 168 168 192 192 192 56 88 104 184 184 184 192 192 192 192 192 192 192 192 192 208 192 168 200 200 200 200 200 200 200 200 200 216 216 216 224 224 224 200 200 200 128 88 56 160 176 176 200 200 200 224 224 224 200 192 192 200 200 200 200 200 200 200 200 200 192 192 192 184 176 176 176 168 176 176 168 176 176 168 176 96 88 120 184 184 184 104 144 200 200 200 200 208 192 184 96 96 96
96 96 96 120 120 104 208 208 208 208 224 208 152 144 96 32 168 184 32 168 184 56 64 88 88 96 104 120 120 104 120 120 104 120 120 104 96 88 56 56 56 56 56 40 40 24 24 24 24 24 24 24 24 24 24 24 24 24 24 24 24 24 40 56 56 56 88 120 152 176 208 216 200 200 200 208 208 200 200 200 200 192 192 192 192 184 168 176 160 152 104 104 96 64 96 96 208 208 208 208 208 200 168 136 112 96 96 96
96 96 96 40 40 40 168 192 208 216 216 224 152 152 136 112 192 192 112 192 192 88 128 144 40 40 40 40 40 40 40 40 40 40 40 40 88 56 88 64 64 64 24 24 24 24 24 24 24 24 24 24 24 24 24 24 24 24 24 24 24 24 24 64 64 64 40 40 56 136 176 208 200 200 200 200 200 192 200 200 200 200 200 208 192 192 184 168 152 144 104 104 96 64 88 96 168 192 208 200 200 192 168 168 168 96 96 96
96 96 96 24 24 32 136 152 160 216 216 216 152 152 152 192 192 208 192 192 208 160 176 176 24 24 24 24 24 32 24 24 32 24 24 32 56 72 136 72 72 72 32 32 32 32 32 24 32 32 24 24 32 56 24 32 56 24 32 56 32 32 32 72 72 72 32 32 32 128 136 176 200 200 200 200 192 192 200 200 200 200 200 200 176 192 192 160 144 128 104 64 96 96 56 96 136 152 160 200 192 192 168 168 168 96 96 96
96 96 96 96 88 112 152 152 152 216 216 216 216 216 216 224 224 232 232 224 224 104 104 96 24 24 24 24 24 24 24 24 24 24 32 32 32 32 32 32 32 32 32 24 24 24 24 24 24 24 24 24 24 24 24 24 24 24 24 24 24 24 24 24 24 24 32 32 32 32 32 32 32 32 32 32 24 24 24 24 24 24 24 24 24 24 40 104 128 144 240 240 240 224 224 224 224 216 216 216 208 176 120 96 96 96 96 96
96 96 96 96 96 96 152 160 152 216 216 216 216 216 216 224 224 224 232 224 224 104 104 96 32 32 32 24 24 24 24 24 24 24 32 32 32 32 32 32 32 32 24 24 24 24 24 24 32 32 32 32 32 32 32 32 32 32 32 32 32 32 32 32 32 32 32 32 32 32 32 32 32 32 32 24 24 24 24 24 24 24 24 24 24 24 24 32 56 96 240 240 240 224 224 224 216 216 208 160 152 136 96 96 96 96 96 96
96 96 96 96 96 96 160 160 160 216 208 192 216 208 192 216 216 224 232 232 232 104 64 96 32 32 32 80 56 32 24 32 56 24 24 24 32 24 24 24 32 32 24 24 24 80 56 32 32 32 32 32 32 32 32 32 32 32 32 32 32 32 32 32 32 32 24 32 32 24 32 32 32 24 24 24 24 24 24 32 56 80 56 32 32 32 32 8 8 8 232 232 232 224 224 224 208 208 208 128 128 96 96 96 96 96 96 96
96 96 96 96 96 96 88 120 136 176 208 216 216 216 216 224 224 224 224 224 224 232 232 240 240 240 240 216 208 176 96 88 56 32 32 32 32 24 24 24 24 24 32 32 32 32 32 32 32 32 40 32 168 184 32 168 184 32 168 184 32 32 32 32 32 32 32 24 24 24 24 24 32 32 32 32 40 48 96 120 152 200 200 200 232 224 224 224 224 224 224 224 224 224 224 224 224 216 216 120 96 96 96 96 96 96 96 96
96 96 96 96 96 96 96 88 128 136 176 208 216 216 216 224 224 224 224 224 224 232 232 232 240 240 240 160 152 136 88 56 88 40 40 32 24 24 24 32 32 32 32 32 32 32 32 32 32 32 40 112 192 192 112 192 192 112 192 192 40 40 32 32 32 32 24 24 24 32 32 32 40 40 32 32 40 48 112 144 144 200 200 200 232 224 224 224 224 224 224 224 224 224 224 224 216 216 208 96 96 96 96 96 96 96 96 96
96 96 96 96 96 96 96 96 88 128 136 176 216 208 192 224 224 224 224 224 224 232 232 232 240 232 232 128 128 96 56 72 136 40 32 32 24 24 24 32 32 32 32 24 24 32 24 24 32 32 32 192 192 208 192 192 208 192 192 208 40 32 32 32 24 24 24 24 24 32 32 32 40 32 32 32 32 40 136 152 152 200 200 200 232 232 232 224 224 224 224 224 224 224 224 224 208 208 208 96 96 96 96 96 96 96 96 96
96 96 96 96 96 96 96 96 96 96 120 152 168 200 216 216 216 216 216 216 216 224 224 232 232 224 224 232 232 232 232 232 240 240 240 240 248 248 248 248 248 248 168 136 112 112 112 144 80 80 80 80 80 80 80 80 80 80 80 80 80 80 80 112 112 144 168 200 216 240 240 240 240 240 240 240 240 240 232 224 224 224 224 224 224 224 232 232 232 232 224 224 224 216 208 176 120 120 104 96 96 96 96 96 96 96 96 96
96 96 96 96 96 96 96 96 96 112 144 144 120 160 200 216 216 216 216 216 216 224 224 224 232 224 224 232 232 232 232 232 232 240 240 240 240 240 240 240 240 240 168 168 168 248 240 240 216 232 232 216 232 232 216 232 232 216 232 232 216 232 232 248 240 240 120 160 200 240 240 240 240 240 240 240 240 240 232 224 224 224 224 224 224 224 224 224 224 224 224 224 224 200 168 120 40 40 40 96 96 96 96 96 96 96 96 96
96 96 96 96 96 96 96 96 96 136 152 152 128 128 152 192 192 176 216 208 192 216 216 224 232 232 232 232 232 232 232 232 232 232 232 232 232 232 240 232 232 240 168 168 168 240 240 240 240 240 240 240 240 240 240 240 240 240 240 240 240 240 240 240 240 240 128 128 152 240 232 232 232 232 232 232 232 232 232 232 232 224 224 224 216 216 224 224 224 224 224 224 224 160 136 128 24 24 32 96 96 96 96 96 96 96 96 96
96 96 96 96 96 96 96 96 96 96 96 96 96 88 112 136 152 160 208 208 208 216 216 216 216 216 216 224 224 224 232 232 232 232 232 232 232 232 232 232 232 240 240 240 240 240 240 240 240 240 240 240 240 240 240 240 240 240 240 240 240 240 240 240 240 240 240 240 240 232 232 232 232 232 232 232 232 232 232 232 232 232 224 224 224 216 216 216 216 216 208 208 200 128 120 88 96 96 96 96 96 96 96 96 96 96 96 96
96 96 96 96 96 96 96 96 96 96 96 96 96 96 96 96 128 128 168 192 208 208 208 208 216 216 216 224 224 224 224 224 224 232 232 232 232 232 232 232 232 232 240 240 240 240 240 240 240 240 240 240 240 240 240 240 240 240 240 240 240 240 240 240 240 240 240 240 240 232 232 232 232 232 232 232 232 232 232 232 232 232 224 224 216 216 208 208 208 208 200 200 192 96 96 96 96 96 96 96 96 96 96 96 96 96 96 96
96 96 96 96 96 96 96 96 96 96 96 96 96 96 96 96 96 96 136 152 160 176 192 208 216 208 192 224 224 224 224 224 224 224 224 224 232 232 232 232 232 232 232 232 232 232 232 232 232 232 232 232 232 232 232 232 232 232 232 232 232 232 232 232 232 232 232 232 232 232 232 232 232 232 232 232 232 232 224 224 224 232 232 232 208 208 208 176 192 208 200 192 192 96 96 96 96 96 96 96 96 96 96 96 96 96 96 96
96 96 96 96 96 96 96 96 96 96 96 96 96 96 96 96 96 96 128 128 152 176 208 216 208 208 208 208 224 208 216 216 216 224 224 224 224 224 224 224 224 232 232 232 232 232 232 232 232 232 232 232 232 232 232 232 232 232 232 232 232 232 232 232 232 232 232 232 232 232 232 232 232 232 232 224 224 224 216 216 216 216 208 176 208 208 200 160 136 120 96 96 96 96 96 96 96 96 96 96 96 96 96 96 96 96 96 96
96 96 96 96 96 96 96 96 96 96 96 96 96 96 96 96 96 96 96 96 128 136 176 208 168 192 208 216 216 224 216 216 216 224 224 224 224 224 224 224 224 224 224 224 224 232 232 232 232 232 232 232 232 232 232 232 232 232 232 232 232 232 232 232 232 232 232 232 232 224 224 224 224 224 224 224 224 224 216 216 216 200 168 120 200 200 192 128 88 96 96 96 96 96 96 96 96 96 96 96 96 96 96 96 96 96 96 96
96 96 96 96 96 96 96 96 96 96 96 96 96 96 96 96 96 96 96 96 96 128 136 176 136 152 160 216 216 216 216 208 192 224 224 224 224 224 224 216 216 224 224 224 224 224 224 224 224 224 224 224 224 224 224 224 224 224 224 224 224 224 224 224 224 224 224 224 224 224 224 224 224 224 224 224 224 224 216 208 192 160 136 128 200 192 192 96 96 96 96 96 96 96 96 96 96 96 96 96 96 96 96 96 96 96 96 96
96 96 96 96 96 96 96 96 96 96 96 96 96 96 96 96 96 96 96 96 96 96 96 96 120 120 104 168 176 200 208 208 208 216 216 216 216 216 216 216 216 216 224 224 224 224 224 224 224 224 224 224 224 224 224 224 224 224 224 224 224 224 224 224 224 224 224 224 224 224 224 224 216 216 216 216 216 216 216 208 176 160 136 120 88 96 104 96 96 96 96 96 96 96 96 96 96 96 96 96 96 96 96 96 96 96 96 96
96 96 96 96 96 96 96 96 96 96 96 96 96 96 96 96 96 96 96 96 96 96 96 96 40 40 40 128 136 160 168 192 208 208 208 208 208 208 208 216 216 216 224 224 224 224 224 224 224 224 224 224 224 224 224 224 224 224 224 224 224 224 224 224 224 224 224 224 224 224 224 224 216 216 216 216 216 216 160 152 136 128 88 96 40 40 40 96 96 96 96 96 96 96 96 96 96 96 96 96 96 96 96 96 96 96 96 96
96 96 96 96 96 96 96 96 96 96 96 96 96 96 96 96 96 96 96 96 96 96 96 96 24 24 32 96 88 120 136 152 160 176 192 208 176 192 208 216 208 192 224 224 224 224 224 224 224 224 224 224 224 224 224 224 224 224 224 224 224 224 224 224 224 224 224 224 224 224 224 224 216 208 192 192 192 176 128 128 96 96 96 96 24 24 24 96 96 96 96 96 96 96 96 96 96 96 96 96 96 96 96 96 96 96 96 96
96 96 96 96 96 96 96 96 96 96 96 96 96 96 96 96 96 96 96 96 96 96 96 96 96 96 96 96 96 96 96 120 152 136 152 160 168 176 200 208 208 208 208 224 208 216 216 216 216 216 216 216 216 216 216 216 216 216 216 216 216 216 216 216 216 216 216 216 216 216 208 176 176 160 152 128 120 88 96 96 96 96 96 96 96 96 96 96 96 96 96 96 96 96 96 96 96 96 96 96 96 96 96 96 96 96 96 96
96 96 96 96 96 96 96 96 96 96 96 96 96 96 96 96 96 96 96 96 96 96 96 96 96 96 96 96 96 96 112 144 144 96 128 128 128 136 160 168 192 208 216 216 224 208 208 208 208 208 208 216 216 216 216 216 216 216 216 216 216 216 216 216 216 216 208 208 208 160 152 136 168 152 144 96 96 96 96 96 96 96 96 96 96 96 96 96 96 96 96 96 96 96 96 96 96 96 96 96 96 96 96 96 96 96 96 96
96 96 96 96 96 96 96 96 96 96 96 96 96 96 96 96 96 96 96 96 96 96 96 96 96 96 96 96 96 96 136 152 152 96 96 96 96 88 120 136 152 160 216 216 216 176 192 208 176 192 208 216 208 192 216 208 192 216 208 192 192 192 176 192 192 176 176 192 208 128 128 96 160 144 128 96 96 96 96 96 96 96 96 96 96 96 96 96 96 96 96 96 96 96 96 96 96 96 96 96 96 96 96 96 96 96 96 96
96 96 96 96 96 96 96 96 96 96 96 96 96 96 96 96 96 96 96 96 96 96 96 96 96 96 96 96 96 96 96 96 96 96 96 96 96 96 96 96 96 96 128 128 152 128 128 152 152 152 152 160 160 160 160 160 160 160 160 160 152 144 96 128 128 152 128 120 88 96 96 96 96 96 96 96 96 96 96 96 96 96 96 96 96 96 96 96 96 96 96 96 96 96 96 96 96 96 96 96 96 96 96 96 96 96 96 96
96 96 96 96 96 96 96 96 96 96 96 96 96 96 96 96 96 96 96 96 96 96 96 96 96 96 96 96 96 96 96 96 96 96 96 96 96 96 96 96 96 96 96 96 128 96 96 128 152 160 152 152 152 152 152 152 152 152 152 152 152 152 136 96 96 128 96 96 96 96 96 96 96 96 96 96 96 96 96 96 96 96 96 96 96 96 96 96 96 96 96 96 96 96 96 96 96 96 96 96 96 96 96 96 96 96 96 96
96 96 96 96 96 96 96 96 96 96 96 96 96 96 96 96 96 96 96 96 96 96 96 96 96 96 96 96 96 96 96 96 96 96 96 96 96 96 96 88 96 96 96 96 96 96 96 96 160 160 160 120 112 112 120 112 112 120 112 112 152 152 152 96 96 96 96 96 96 96 96 96 96 96 96 96 96 96 96 96 96 96 96 96 96 96 96 96 96 96 96 96 96 96 96 96 96 96 96 96 96 96 96 96 96 96 96 96
96 96 96 96 96 96 96 96 96 96 96 96 96 96 96 96 96 96 96 96 96 96 96 96 96 96 96 96 96 96 96 96 96 96 96 96 96 96 96 96 96 96 96 96 96 96 96 96 96 96 96 96 96 96 96 96 96 96 96 96 96 96 96 96 96 96 96 96 96 96 96 96 96 96 96 96 96 96 96 96 96 96 96 96 96 96 96 96 96 96 96 96 96 96 96 96 96 96 96 96 96 96 96 96 96 96 96 96
96 96 96 96 96 96 96 96 96 96 96 96 96 96 96 96 96 96 96 96 96 96 96 96 96 96 96 96 96 96 96 96 96 96 96 96 96 96 96 96 96 96 96 96 96 96 96 96 96 96 96 96 96 96 96 96 96 96 96 96 96 96 96 96 96 96 96 96 96 96 96 96 96 96 96 96 96 96 96 96 96 96 96 96 96 96 96 96 96 96 96 96 96 96 96 96 96 96 96 96 96 96 96 96 96 96 96 96
96 96 96 96 96 96 96 96 96 96 96 96 96 96 96 96 96 96 96 96 96 96 96 96 96 96 96 96 96 96 96 96 96 96 96 96 96 96 96 96 96 96 96 96 96 96 96 96 96 96 96 96 96 96 96 96 96 96 96 96 96 96 96 96 96 96 96 96 96 96 96 96 96 96 96 96 96 96 96 96 96 96 96 96 96 96 96 96 96 96 96 96 96 96 96 96 96 96 96 96 96 96 96 96 96 96 96 96
96 96 96 96 96 96 96 96 96 96 96 96 96 96 96 96 96 96 96 96 96 96 96 96 96 96 96 96 96 96 96 96 96 96 96 96 96 96 96 96 96 96 96 96 96 96 96 96 96 96 96 96 96 96 96 96 96 96 96 96 96 96 96 96 96 96 96 96 96 96 96 96 96 96 96 96 96 96 96 96 96 96 96 96 96 96 96 96 96 96 96 96 96 96 96 96 96 96 96 96 96 96 96 96 96 96 96 96
96 96 96 96 96 96 96 96 96 96 96 96 96 96 96 96 96 96 96 96 96 96 96 96 96 96 96 96 96 96 96 96 96 96 96 96 96 96 96 96 96 96 96 96 96 96 96 96 96 96 96 96 96 96 96 96 96 96 96 96 96 96 96 96 96 96 96 96 96 96 96 96 96 96 96 96 96 96 96 96 96 96 96 96 96 96 96 96 96 96 96 96 96 96 96 96 96 96 96 96 96 96 96 96 96 96 96 96
96 96 96 96 96 96 96 96 96 96 96 96 96 96 96 96 96 96 96 96 96 96 96 96 96 96 96 96 96 96 96 96 96 96 96 96 96 96 96 96 96 96 96 96 96 96 96 96 96 96 96 96 96 96 96 96 96 96 96 96 96 96 96 96 96 96 96 96 96 96 96 96 96 96 96 96 96 96 96 96 96 96 96 96 96 96 96 96 96 96 96 96 96 96 96 96 96 96 96 96 96 96 96 96 96 96 96 96
96 96 96 96 96 96 96 96 96 96 96 96 96 96 96 96 96 96 96 96 96 96 96 96 96 96 96 96 96 96 96 96 96 96 96 96 96 96 96 96 96 96 96 96 96 96 96 96 96 96 96 96 96 96 96 96 96 96 96 96 96 96 96 96 96 96 96 96 96 96 96 96 96 96 96 96 96 96 96 96 96 96 96 96 96 96 96 96 96 96 96 96 96 96 96 96 96 96 96 96 96 96 96 96 96 96 96 96
96 96 96 96 96 96 96 96 96 96 96 96 96 96 96 96 96 96 96 96 96 96 96 96 96 96 96 96 96 96 96 96 96 96 96 96 96 96 96 96 96 96 96 96 96 96 96 96 96 96 96 96 96 96 96 96 96 96 96 96 96 96 96 96 96 96 96 96 96 96 96 96 96 96 96 96 96 96 96 96 96 96 96 96 96 96 96 96 96 96 96 96 96 96 96 96 96 96 96 96 96 96 96 96 96 96 96 96
96 96 96 96 96 96 96 96 96 96 96 96 96 96 96 96 96 96 96 96 96 96 96 96 96 96 96 96 96 96 96 96 96 96 96 96 96 96 96 96 96 96 96 96 96 96 96 96 96 96 96 96 96 96 96 96 96 96 96 96 96 96 96 96 96 96 96 96 96 96 96 96 96 96 96 96 96 96 96 96 96 96 96 96 96 96 96 96 96 96 96 96 96 96 96 96 96 96 96 96 96 96 96 96 96 96 96 96
96 96 96 96 96 96 96 96 96 96 96 96 96 96 96 96 96 96 96 96 96 96 96 96 96 96 96 96 96 96 96 96 96 96 96 96 96 96 96 96 96 96 96 96 96 96 96 96 96 96 96 96 96 96 96 96 96 96 96 96 96 96 96 96 96 96 96 96 96 96 96 96 96 96 96 96 96 96 96 96 96 96 96 96 96 96 96 96 96 96 96 96 96 96 96 96 96 96 96 96 96 96 96 96 96 96 96 96
96 96 96 96 96 96 96 96 96 96 96 96 96 96 96 96 96 96 96 96 96 96 96 96 96 96 96 96 96 96 96 96 96 96 96 96 96 96 96 96 96 96 96 96 96 96 96 96 96 96 96 96 96 96 96 96 96 96 96 96 96 96 96 96 96 96 96 96 96 96 96 96 96 96 96 96 96 96 96 96 96 96 96 96 96 96 96 96 96 96 96 96 96 96 96 96 96 96 96 96 96 96 96 96 96 96 96 96
96 96 96 96 96 96 96 96 96 96 96 96 96 96 96 96 96 96 96 96 96 96 96 96 96 96 96 96 96 96 96 96 96 96 96 96 96 96 96 96 96 96 96 96 96 96 96 96 96 96 96 96 96 96 96 96 96 96 96 96 96 96 96 96 96 96 96 96 96 96 96 96 96 96 96 96 96 96 96 96 96 96 96 96 96 96 96 96 96 96 96 96 96 96 96 96 96 96 96 96 96 96 96 96 96 96 96 96